<?xml version="1.0" encoding="UTF-8" standalone="no"?>
<!-- Created with Inkscape (http://www.inkscape.org/) -->

<svg
   xmlns:dc="http://purl.org/dc/elements/1.1/"
   xmlns:cc="http://creativecommons.org/ns#"
   xmlns:rdf="http://www.w3.org/1999/02/22-rdf-syntax-ns#"
   xmlns:svg="http://www.w3.org/2000/svg"
   xmlns="http://www.w3.org/2000/svg"
   xmlns:sodipodi="http://sodipodi.sourceforge.net/DTD/sodipodi-0.dtd"
   xmlns:inkscape="http://www.inkscape.org/namespaces/inkscape"
   width="324.14758mm"
   height="214.59937mm"
   viewBox="0 0 1148.5545 760.39145"
   id="svg5994"
   version="1.1"
   inkscape:version="0.91 r13725"
   sodipodi:docname="moth.svg">
  <defs
     id="defs5996" />
  <sodipodi:namedview
     id="base"
     pagecolor="#ffffff"
     bordercolor="#666666"
     borderopacity="1.0"
     inkscape:pageopacity="0.0"
     inkscape:pageshadow="2"
     inkscape:zoom="0.35"
     inkscape:cx="591.19888"
     inkscape:cy="215.50694"
     inkscape:document-units="px"
     inkscape:current-layer="layer1"
     showgrid="false"
     showborder="false"
     fit-margin-top="0"
     fit-margin-left="0"
     fit-margin-right="0"
     fit-margin-bottom="0"
     inkscape:window-width="1215"
     inkscape:window-height="1000"
     inkscape:window-x="65"
     inkscape:window-y="24"
     inkscape:window-maximized="1" />
  <metadata
     id="metadata5999">
    <rdf:RDF>
      <cc:Work
         rdf:about="">
        <dc:format>image/svg+xml</dc:format>
        <dc:type
           rdf:resource="http://purl.org/dc/dcmitype/StillImage" />
        <dc:title></dc:title>
      </cc:Work>
    </rdf:RDF>
  </metadata>
  <g
     inkscape:label="Layer 1"
     inkscape:groupmode="layer"
     id="layer1"
     transform="translate(541.99875,267.57642)">
    <path
       style="fill:#000000;fill-opacity:1;fill-rule:evenodd;stroke:#000000;stroke-width:1px;stroke-linecap:butt;stroke-linejoin:miter;stroke-opacity:1"
       d="m -11.16005,-17.812001 -42.42641,-5.55583 -62.62946,-4.54569 -70.71068,6.06091 -26.26396,6.06092 -54.54824,14.1421296 -62.62946,24.2436704 -52.52793,24.24366 -46.46702,26.26396 -34.34518,26.26397 -30.30458,26.263971 -32.32488,36.36549 -11.11168,22.22335 -3.03046,11.11168 -1.01015,12.12183 3.03046,7.07107 5.05076,7.07107 14.14214,8.08122 13.13198,7.07107 16.16244,6.06091 12.12183,2.02031 21.21321,2.0203 20.20305,1.01015 12.12183,-2.0203 8.08122,-5.05076 15.15229,-6.06092 13.13198,-2.02031 19.1929,2.02031 16.16244,2.02031 20.20305,0 7.07107,4.04061 9.09137,6.06091 11.11168,6.06092 10.10152,3.03045 7.07107,0 6.06092,0 4.04061,2.02031 6.06091,5.05076 9.09137,6.06092 14.14214,3.03045 11.11168,-1.01015 8.08122,0 15.15229,2.02031 10.10152,6.06091 4.04061,8.08122 6.06092,14.14214 4.04061,15.15229 3.03046,9.09137 8.08122,4.04061 9.09137,5.05076 9.09137,5.05076 8.08122,8.08123 4.04061,10.10152 4.04061,11.11168 7.07107,4.04061 7.07107,2.0203 9.09137,2.02031 9.09137,5.05076 9.09138,11.11168 3.03045,10.10153 1.01016,8.08122 3.03045,5.05076 8.08122,5.05076 8.08123,-2.0203 7.07106,0 7.07107,3.03045 4.04061,5.05077 4.04061,9.09137 3.03046,16.16244 2.0203,15.15229 2.02031,8.08122 8.08122,14.14213 6.06091,2.02031 9.09138,0 3.03046,-2.52538 3.03045,-8.08122 3.03046,-13.13199 1.01015,-3.53553 2.52538,-7.07107 3.53554,-6.56599 6.56599,-6.06091 8.5863,-3.53554 5.05076,0 6.06091,-2.0203 4.54569,-5.55584 4.54569,-6.56599 0.50507,-5.05077 2.02031,-4.04061 5.05076,-4.04061 18.68782,-10.10152 6.566,-5.05077 4.54568,-6.06091 3.03046,-9.09137 -3.03046,-33.33504 1.01015,-17.17259 2.02031,-14.14214 -2.52538,-16.16244 -7.57615,-20.20305 -14.14213,-27.77919 -5.55584,-18.68783 -6.06092,-24.24366 -3.53553,-20.20305 -3.53553,-27.77919 -2.52539,-24.24366 -1.01015,-22.72844 1.01015,-13.13198 1.51523,-6.565991 1.51523,0.50508 0.50508,3.030451 -1.01015,7.07107 0.50507,9.59645 1.51523,5.05076 3.53554,6.566 0.50507,5.05076 3.53554,20.20305 2.0203,8.08122 2.52538,7.57614 3.53554,10.10153 1.01015,7.07107 0.50507,5.05076 2.02031,2.52538 2.0203,6.56599 1.01016,8.08122 1.51523,5.05077 1.51522,5.05076 1.01016,4.04061 2.0203,9.59645 2.02031,6.06091 2.52538,3.53554 0,5.05076 1.01015,6.06091 2.02031,7.07107 4.04061,9.59645 6.06091,10.6066 5.55584,10.10153 3.53554,5.05076 3.03045,10.10153 0.50508,-4.54569 2.0203,-8.5863 5.05077,-21.2132 2.0203,-15.65736 -0.50507,-15.15229 -1.01016,-20.70813 -0.50507,-12.62691 -0.50508,-12.6269 -1.51523,-19.69798 -0.50507,-2.0203 -0.50508,-5.55584 -4.54569,-19.69798 -0.50507,-1.51523 -5.55584,-30.80965 -1.01016,-7.07107 -2.0203,-11.111671 -5.05076,-5.05077 9.09137,-2.0203 5.05076,9.091371 4.04061,18.18275 6.06092,46.46701 4.04061,39.39595 4.04061,42.42641 -1.01015,28.28427 -4.04061,16.16244 -1.01016,14.14214 2.02031,10.10152 5.05076,18.18275 8.08122,17.17259 2.02031,15.15229 4.04061,15.15229 2.391,6.52108 5.35714,6.07143 5.71429,3.21428 c 0,0 5,3.21429 6.42857,3.21429 1.42857,0 6.42857,0.71428 6.42857,0.71428 l 6.07143,1.07143 7.85714,0.71429 4.64286,1.42857 4.28571,2.85714 5,5 2.85715,4.28572 3.21428,5 2.5,1.42857 7.5,2.5 5.71429,-0.71429 7.5,-0.71428 6.42857,2.14285 6.78571,2.85715 7.85715,7.14285 4.64285,7.5 4.64286,9.64286 3.21429,4.28571 4.28571,3.92858 4.28572,1.42857 5,0 5,-1.78572 2.14288,-6.42857 c 0,0 1.4285,-5.35714 1.4285,-7.85714 0,-2.5 1.0715,-12.85714 1.0715,-12.85714 l -1.4286,-10 -1.4286,-12.5 -0.7143,-8.21429 0.3572,-8.92857 2.5,-6.42857 4.6428,-6.07143 5,-3.57143 5.3572,-1.42857 5.3571,-4.28572 3.9286,-5.35714 1.0714,-7.85714 1.0715,-14.28572 1.0714,-8.57142 3.2143,-5.71429 5,-7.14286 4.6428,-2.85714 3.9286,-1.42857 3.2143,-1.78572 2.8571,-2.5 1.7857,-4.28571 0.7143,-6.78571 1.4286,-12.14286 2.5,-5.71429 4.6429,-7.85714 6.0714,-7.14286 4.2857,-4.28571 2.8571,-5.35714 0.3572,-8.57143 1.0714,-35.35715 0.3572,-9.28571 3.2142,-5.71429 5.7143,-6.42857 9.2857,-4.64285 4.2858,-4.64286 2.8571,-1.07143 6.0714,-2.5 5.7143,-1.42857 7.8572,-2.85714 5,-3.21429 5.3571,-4.28571 3.5714,-3.57143 0.3572,-3.92857 2.1428,-3.21429 5.3572,-3.21429 3.5714,-2.5 4.6429,-2.85714 8.9285,-6.78571 6.4286,-5.71429 3.2143,-3.57143 0.3571,-3.21428 c 0,0 1.0715,-4.28572 2.5,-4.64286 1.4286,-0.35714 11.868,-5.47727 11.868,-5.47727 l 18.1827,-7.07107 9.0914,-3.03046 10.1015,-3.03046 2.0203,-2.0203 5.0508,-5.05076 5.0508,-1.01016 8.0812,0 12.1218,3.03046 18.1828,-2.0203 15.1523,-8.081221 15.1522,-11.11168 17.1726,-8.08122 13.132,-12.12183 8.0812,-11.11168 10.1016,-17.17259 -1.0102,-11.11168 -9.0914,-8.08122 -13.1319,-12.1218304 -19.1929,-15.1522896 -19.1929,-11.11168 -27.2742,-11.11168 -42.4264,-15.15229 -41.4162,-12.12183 -26.264,-7.07106 -57.5787,-7.07107 -46.467,-2.02031 -42.4264,0 -32.32489,3.03046 -49.49747,8.08122 -34.34519,10.10153 -30.30458,13.13198 -25.25381,10.10153 -11.11168,5.05076 -5.59049,-4.36714 -3.21429,-5 -3.57143,-7.14286 -0.71428,-3.21429 -0.35715,-4.28571 0.35715,-2.85714 2.14285,-0.71429 2.85715,-3.21429 1.78571,-6.42857 -1.42857,-11.78571 -4.64286,-5 -5.71428,-5.35714 -5,-1.42858 -5.35715,-0.71428 -2.85714,1.07143 -1.78571,1.42857 -0.35715,-0.71429 20.35715,-21.071429 16.07143,-14.64285 15,-12.5 18.92857,-19.64286 10.35714,-10.35714 12.14286,-12.14286 17.5,-19.28571 14.64285,-17.5 13.21429,-16.42858 8.57143,-10.71428 6.07143,-8.92857 3.8291,-3.71441 2.52539,-2.27284 2.0203,-1.6415 1.89404,-0.63134 1.64149,0 1.6415,0.3788 1.13642,1.13643 0.25254,0.88388 0.37881,0.88388 1.26269,0.88389 1.13642,-0.25254 1.51523,-0.50508 1.38896,-2.0203 0.63135,-2.39912 -1.13643,-2.52538 -2.65165,-3.03045 -3.28299,-1.38896 -2.77792,0.25253 -3.283,1.13643 -2.0203,1.64149 -6.18719,8.20749 -14.2684,20.07678 -14.64721,18.94036 -18.68783,21.71828 -11.99556,13.00571 -49.11866,49.24494 -6.31346,5.55584 -9.97525,8.71257 -10.60661,10.73287 -10.22779,10.101519 -8.5863,8.46003 -3.34484,0.9282 -2.85714,-5 -2.63685,-2.49419 -5.05077,0 -2.52538,0 -1.76776,1.26269 -1.01016,2.0203 -0.50507,2.27285 -0.50508,1.01015 -1.13642,0.37881 -1.01015,-0.63135 -32.45115,-30.304569 -21.04407,-17.26469 -27.14285,-25.17857 -15.17857,-15.17858 -17.85715,-18.75 -11.42857,-12.67857 -15,-17.85714 -6.07143,-8.92857 -6.60714,-8.39286 -6.07143,-10.53571 -3.92857,-5.89286 -2.67857,-2.67857 -2.09956,-1.24196 -2.0203,-0.63135 -2.27284,-0.12627 -2.39912,0.63135 -0.75761,1.01015 -1.13642,1.51523 -0.75762,1.76777 0,1.64149 0.88389,1.38896 1.76776,1.38896 1.38896,0.75762 1.38896,0 0.63135,-1.01016 0.75761,-1.26269 1.13642,-0.25253 1.51523,0.63134 4.04061,3.40927 4.29315,5.3033 4.04061,4.92449 6.43972,8.46003 4.79823,6.69225 3.91434,4.9245 6.81853,8.20749 6.69226,7.57614 7.95495,9.34391 5.80838,6.56599 5.42957,5.68211 6.18718,6.18719 7.70242,8.20749 7.57614,7.70241 7.32361,6.69226 18.05647,15.78363 13.25825,12.12183 12.37437,10.35407 9.21765,8.08122 11.23794,10.48033 10.2278,9.470179 -0.52603,1.01486 -0.17858,0.53571 -1.60714,-0.17857 -5.53571,0 -3.75,1.07143 -2.85715,1.60714 -2.5,2.14286 -2.5,2.5 -3.03571,4.82143 -1.78571,5.17857 -0.71429,4.10714 -0.35714,5.17857 0.53571,3.03572 1.25,3.39285 1.07143,1.96429 2.14286,1.07143 2.14285,0.71428 0.53572,1.60715 -0.35714,1.42857 -1.29314,8.05151 -1.51523,8.5863 -2.02031,9.09137 z"
       id="path6553"
       inkscape:connector-curvature="0"
       sodipodi:nodetypes="cccccccccccccccccccccccccccccccccccccccccccccccccccccccccccccccccccccccccccccccccccccccccccccccccccccccccccccccccccccccccccccccccccccccccccccccccccccccccccccccccccccccccccscccccccccccccccccccccccscccccccccccccccccccccccccccccccccccccccccccccccccccccccccccccccccccccccccccccccccccccccccccccccccccccccccccccccccccccccccccccccccccccccccccccccccccccccccccccccccccccccccccccccccccccccccccccccccccccccccccccccccccccccccccccccccccc" />
  </g>
</svg>
