<?xml version="1.0" encoding="UTF-8" standalone="no"?>
<!-- Created with Inkscape (http://www.inkscape.org/) -->

<svg
   xmlns:dc="http://purl.org/dc/elements/1.1/"
   xmlns:cc="http://creativecommons.org/ns#"
   xmlns:rdf="http://www.w3.org/1999/02/22-rdf-syntax-ns#"
   xmlns:svg="http://www.w3.org/2000/svg"
   xmlns="http://www.w3.org/2000/svg"
   xmlns:sodipodi="http://sodipodi.sourceforge.net/DTD/sodipodi-0.dtd"
   xmlns:inkscape="http://www.inkscape.org/namespaces/inkscape"
   width="216.11568mm"
   height="170.83246mm"
   viewBox="0 0 765.76422 605.31186"
   id="svg5255"
   version="1.1"
   inkscape:version="0.91 r13725"
   sodipodi:docname="quetzal.svg">
  <defs
     id="defs5257" />
  <sodipodi:namedview
     id="base"
     pagecolor="#ffffff"
     bordercolor="#666666"
     borderopacity="1.0"
     inkscape:pageopacity="0.0"
     inkscape:pageshadow="2"
     inkscape:zoom="0.175"
     inkscape:cx="218.46841"
     inkscape:cy="328.17211"
     inkscape:document-units="px"
     inkscape:current-layer="layer1"
     showgrid="false"
     inkscape:window-width="1215"
     inkscape:window-height="1000"
     inkscape:window-x="65"
     inkscape:window-y="24"
     inkscape:window-maximized="1"
     showborder="false"
     fit-margin-top="0"
     fit-margin-left="0"
     fit-margin-right="0"
     fit-margin-bottom="0" />
  <metadata
     id="metadata5260">
    <rdf:RDF>
      <cc:Work
         rdf:about="">
        <dc:format>image/svg+xml</dc:format>
        <dc:type
           rdf:resource="http://purl.org/dc/dcmitype/StillImage" />
        <dc:title></dc:title>
      </cc:Work>
    </rdf:RDF>
  </metadata>
  <g
     inkscape:label="Layer 1"
     inkscape:groupmode="layer"
     id="layer1"
     transform="translate(70.503883,-368.97892)">
    <path
       style="fill:#000000;fill-opacity:1;fill-rule:evenodd;stroke:#000000;stroke-width:1px;stroke-linecap:butt;stroke-linejoin:miter;stroke-opacity:1"
       d="M -25.714286,496.64792 -10,508.79078 l 7.8571429,7.85714 8.5714285,15.71428 2.8571429,8.57143 L 10,550.93363 8.2142857,541.29078 5,535.93363 -1.1563717,535.37857 -20.714286,529.14792 c -12.803809,-1.70385 -19.012885,6.89671 -21.577908,15.22202 l -5.564949,4.06369 -5,3.21429 -2.142857,2.85714 -1.785714,1.78572 -1.428572,6.42857 2.142857,-1.78572 2.142857,-1.07143 4.642858,-2.85714 3.928571,-0.35714 6.071429,-0.35714 4.642857,0.35714 -4.285714,5.71428 -7.142858,4.28572 -5.357143,5.35714 c -4.853416,3.19732 0.791727,-1.14014 3.311457,-1.14014 l 4.480042,-1.73561 5.884535,-2.7847 8.823966,4.58903 5.714286,4.64285 3.571429,1.78571 23.5714284,18.92858 7.1428576,7.14285 1.071428,2.85715 0.714286,5 -22.1428573,32.85714 -3.5714287,5.71428 -2.5,6.42858 L -30,666.64792 l -8.928571,8.21428 c 0,0 5,-2.14285 8.214285,-2.5 3.214286,-0.35714 12.5,-6.07142 12.5,-6.07142 l -7.142857,14.28571 -5,4.64286 10.357143,-2.5 9.285714,-6.42857 3.5714288,-6.78572 -5.7142858,15.71429 -8.928571,14.28571 0,5.71429 8.928571,-5.35715 0.714286,3.92858 10.3571427,-2.5 2.8571429,-4.28572 L -2.5,721.64792 l 18.571429,-7.85714 2.142857,-1.42858 -1.428572,19.64286 3.928572,-0.71428 c 0,0 -1.785715,11.42857 0,11.42857 1.785714,0 11.071428,-2.5 11.071428,-2.5 l 4.285715,-3.57143 5.357142,-8.21429 -0.714285,7.85715 1.428571,4.64285 5,6.78572 3.214286,1.07143 6.071429,-1.78572 5.357142,-5 2.142858,-3.57143 0.357142,-8.57143 -1.428571,-13.92857 4.285714,17.85715 8.928572,11.07142 4.285714,2.14286 3.571429,-1.42857 4.642857,-5.35714 0,-4.28572 -1.785715,-7.85714 -1.785714,-7.5 1.785714,5.71429 c 0,0 1.785715,0.35714 3.214286,0.35714 1.428572,0 5,-3.21429 5,-3.21429 l 2.142857,-3.57143 -1.428571,-6.07142 -1.785714,-4.64286 6.071428,0.35714 1.78571,-1.78571 0.71429,-5 -1.42857,-5.71429 -2.857144,-5.71428 7.142854,-1.07143 3.21429,-0.71429 0,-2.85714 -1.78572,-8.57143 3.92858,0.71429 3.21428,-1.07143 1.78572,-2.5 0.71428,-3.21429 L 115,669.8622 l -1.78571,-2.85714 4.28571,0.71429 3.57143,-2.14286 1.78571,-4.28571 -2.14285,-4.64286 -2.14286,-3.57143 6.07143,-1.78571 48.92857,49.64285 3.92857,1.07143 1.42857,-1.42857 2.14286,-1.42857 31.42857,30.35714 5.35714,0.71429 3.57143,-0.71429 8.21429,12.5 2.85714,3.57143 3.57143,-1.07143 0.71428,-3.57143 -0.71428,-4.64285 -1.42857,-7.5 1.42857,-3.21429 2.14286,1.42857 c 0,0 0,1.78572 1.42857,2.14286 1.42857,0.35714 3.57143,0.35714 3.57143,0.35714 l 0.71428,-1.42857 -2.85714,-6.07143 -2.85714,-6.07143 16.42857,18.92857 L 280,760.21935 c 0,0 22.14286,12.85714 23.57143,14.28571 1.42857,1.42857 37.5,15.71429 37.5,15.71429 l 18.21428,4.28571 15.35715,0.35714 10,-0.35714 3.92857,1.42857 c 0,0 5,3.57143 5.71428,5 0.71429,1.42857 12.85715,4.28572 14.28572,5.35715 1.42857,1.07142 7.85714,2.85714 7.85714,2.85714 0,0 33.92857,7.5 37.85715,7.85714 3.92857,0.35714 9.64285,1.07143 9.64285,1.07143 l 12.5,2.14286 3.21429,-0.71429 6.42857,0.71429 8.92857,2.5 18.21429,5.71428 20.71428,5.35715 13.57143,2.14285 13.21429,2.5 3.57143,1.42857 19.28571,10 c 0,0 6.42857,2.85715 12.14286,5.35715 5.71428,2.5 6.42857,3.92857 7.85714,3.92857 1.42857,0 6.78571,1.42857 6.78571,1.42857 l 9.28572,7.5 10,8.21429 4.28571,3.21428 5.71429,0.35714 2.5,-4.28571 -1.42857,-6.78571 -5.35715,-7.5 -11.42857,-5.71429 -23.21428,-8.92857 L 570,838.43363 l -9.64286,-5 -16.42857,-8.92857 -25.71428,-13.21428 -16.78572,-8.57143 -18.21428,-5.35715 14.28571,2.5 18.92857,1.07143 10,1.78572 13.21429,1.07143 8.21428,-1.07143 c 0,0 6.78572,-1.42857 8.21429,-1.42857 1.42857,0 4.28571,2.14285 4.28571,2.14285 l 5.71429,4.64286 10,2.14286 10.71429,2.14285 13.21428,3.57143 7.14286,2.5 8.21428,7.5 13.57143,16.07143 6.78572,11.42857 2.85714,6.07143 4.28571,15.35714 -1.42857,6.42858 -3.57143,18.57142 -0.35714,35 9.64286,18.92858 4.64286,5 c 0,0 7.14285,3.92857 8.92857,4.64285 1.78571,0.71429 16.07143,5.71429 16.07143,5.71429 l 13.92857,4.64286 3.21428,0 0.71429,-1.42858 -3.57143,-3.21428 -5,-2.14286 -3.57143,-1.42857 -5.35714,-0.35714 -3.57143,-1.42857 -5.35714,-7.85715 c 0,0 -3.57143,-8.92857 -3.57143,-10.71428 0,-1.78572 0,-25 -0.71429,-27.14286 -0.71428,-2.14286 0.71429,-21.78571 0.71429,-21.78571 l -0.71429,-9.64286 -3.21428,-16.07143 c 0,0 -2.5,-15.71429 -5.35715,-17.5 -2.85714,-1.78571 -6.07142,-6.07143 -7.5,-7.14286 -1.42857,-1.07143 -18.57142,-18.57143 -18.57142,-18.57143 l -18.92858,-12.14285 c 0,0 -14.28571,-11.42857 -16.78571,-11.78572 -2.5,-0.35714 -26.42857,-11.78571 -26.42857,-11.78571 L 538.57143,780.57649 492.14286,767.00506 432.5,752.3622 381.78571,738.43363 c 0,0 -23.21428,-7.85714 -25,-8.21428 C 355,729.8622 318.92857,713.43363 318.92857,713.43363 L 282.5,695.57649 l -22.5,-10 -26.78571,-18.92857 -10.35715,-8.92857 18.57143,0.71428 3.21429,-1.78571 1.42857,-4.28572 -2.85714,-4.28571 -27.5,-17.5 -2.14286,-0.71429 0,-7.5 -3.21429,-3.21428 -23.21428,-13.92857 -8.92857,-2.85715 -7.85715,-4.28571 -1.78571,-2.85714 -14.28572,-6.78572 -10,-4.28571 c 0,0 -3.21428,-0.35714 -4.64285,-1.07143 -1.42857,-0.71429 -3.92857,-2.14286 -3.92857,-2.14286 l -6.78572,-7.5 -7.14286,-5.71428 -7.14285,-3.57143 -3.92857,-1.78572 1.42857,-4.28571 -2.5,-4.64286 -1.07143,-2.85714 5.35714,-0.35714 -1.42857,-3.21429 -4.28571,-2.85714 5.35714,-1.78572 -3.92857,-3.21428 -0.35715,-2.85714 5,-2.5 -5,-7.85715 -7.14285,-2.14285 4.28571,-3.57143 2.14286,-5.71429 -3.92857,-3.21428 -7.500003,-6.78572 L 79.285714,499.14792 82.5,492.3622 80,487.00506 l -5.357143,-2.5 c 0,0 -14.285714,1.07143 -12.857143,-1.07143 C 63.214286,481.29078 67.5,472.00506 67.5,472.00506 l 1.785714,-11.78571 -1.428571,-4.64286 -4.642857,-1.78571 -3.571429,2.14285 -7.857143,8.57143 -6.428571,6.42857 -9.642857,3.92857 3.928571,-6.07142 L 45,458.43363 c 0,0 1.071429,-10 1.071429,-12.14285 0,-2.14286 -2.5,-24.28572 -2.5,-24.28572 l -1.785715,-7.5 -3.214285,-4.64286 -3.214286,0.35715 -3.571429,3.92857 -3.928571,8.92857 -4.642857,15.35714 -2.857143,12.14286 -2.142857,7.85714 -1.428572,-31.42857 -2.142857,-13.92857 -7.4999998,-17.14286 -5.7142858,-12.5 L -2.5,383.07649 l -2.1428572,0 -1.7857142,1.78571 -1.4285715,1.42858 0,11.78571 0.3571429,16.07143 3.9285714,25.71428 -6.0714286,-33.21428 -4.9999998,-16.42857 -8.928572,-15.71429 -2.857142,-4.64286 -3.214286,-0.35714 -2.142857,2.5 -0.357143,8.21429 3.214286,37.14285 0.714285,9.28572 -10,-23.57143 -7.857143,-15.35714 -3.571428,-7.14286 -2.142857,-6.42857 -1.785715,-2.5 -2.142857,0.35714 -1.785714,1.42857 -1.785714,6.42857 1.071428,16.42858 4.285714,18.57142 -6.785714,-20 -3.928571,-1.42857 -1.785715,1.07143 -1.785714,4.28572 L -70,412.00506 l 1.071428,9.28572 2.5,14.28571 5,10.71429 10,13.21428 11.785715,13.57143 -17.142857,-17.5 L -60,454.50506 l -1.428572,1.42857 -0.714285,2.85715 0,5.35714 4.285714,8.92857 11.071429,11.07143 10,5.71428 7.5,3.57143 z"
       id="path5857"
       inkscape:connector-curvature="0"
       sodipodi:nodetypes="ccccccccccccccccccccccccccccccccccccccccsccccccccccccccccccscccccccccccccccccccccsccccccccccccccccccccccccccccccccccccccccsccccccscccccsscscccccccccccsscccccccccccccccccccccsccccccccccccccccsccccccccccsscccssccscccccscccccccccccccccccccscccccccccccccccccccccccccsccccccccccsccccccccccccccccccccccccccccccccccccccccccccccccccccccccccc" />
    <ellipse
       style="fill:none;fill-opacity:0.61568627;stroke:#000000;stroke-width:1.05200005;stroke-miterlimit:4;stroke-dasharray:none;stroke-dashoffset:0;stroke-opacity:1"
       id="path5878"
       cx="-24.514729"
       cy="540.95337"
       rx="4.1067791"
       ry="2.7178197" />
  </g>
</svg>
