<?xml version="1.0" encoding="utf-8" standalone="no"?>
<!DOCTYPE svg PUBLIC "-//W3C//DTD SVG 1.1//EN"
  "http://www.w3.org/Graphics/SVG/1.1/DTD/svg11.dtd">
<svg xmlns:xlink="http://www.w3.org/1999/xlink" width="460.8pt" height="345.6pt" viewBox="0 0 460.8 345.6" xmlns="http://www.w3.org/2000/svg" version="1.1">
 <metadata>
  <rdf:RDF xmlns:dc="http://purl.org/dc/elements/1.1/" xmlns:cc="http://creativecommons.org/ns#" xmlns:rdf="http://www.w3.org/1999/02/22-rdf-syntax-ns#">
   <cc:Work>
    <dc:type rdf:resource="http://purl.org/dc/dcmitype/StillImage"/>
    <dc:date>2023-02-10T10:20:38.002439</dc:date>
    <dc:format>image/svg+xml</dc:format>
    <dc:creator>
     <cc:Agent>
      <dc:title>Matplotlib v3.5.1, https://matplotlib.org/</dc:title>
     </cc:Agent>
    </dc:creator>
   </cc:Work>
  </rdf:RDF>
 </metadata>
 <defs>
  <style type="text/css">*{stroke-linejoin: round; stroke-linecap: butt}</style>
 </defs>
 <g id="figure_1">
  <g id="patch_1">
   <path d="M 0 345.6 
L 460.8 345.6 
L 460.8 0 
L 0 0 
z
" style="fill: #ffffff"/>
  </g>
  <g id="axes_1">
   <g id="patch_2">
    <path d="M 82.216312 307.584 
L 390.103688 307.584 
L 390.103688 41.472 
L 82.216312 41.472 
z
" style="fill: #ffffff"/>
   </g>
   <g id="PatchCollection_1">
    <path d="M 227.017154 225.161458 
L 200.293418 225.161227 
L 200.293114 260.324037 
L 96.211193 260.323138 
L 96.2119 178.745414 
L 227.017556 178.746549 
L 227.017154 225.161458 
" clip-path="url(#p72ddc05cf4)" style="fill: #1f77b4"/>
    <path d="M 376.107343 239.227871 
L 274.838454 239.226995 
L 274.838575 225.161872 
L 228.423666 225.16147 
L 228.424154 168.900974 
L 376.107952 168.902255 
L 376.107343 239.227871 
" clip-path="url(#p72ddc05cf4)" style="fill: #1f77b4"/>
    <path d="M 362.043807 56.381147 
L 366.263344 56.381184 
L 366.263221 70.446307 
L 376.108807 70.446393 
L 376.107952 168.902255 
L 280.465112 168.901426 
L 280.466017 64.81951 
L 304.376727 64.819719 
L 304.376654 73.258793 
L 336.726438 73.259075 
L 336.726511 64.820001 
L 340.946048 64.820037 
L 340.94611 57.787476 
L 347.978671 57.787537 
L 347.978708 53.568 
L 362.043831 53.568123 
L 362.043807 56.381147 
" clip-path="url(#p72ddc05cf4)" style="fill: #1f77b4"/>
    <path d="M 333.911973 239.227506 
L 333.911487 295.488 
L 315.626826 295.487842 
L 315.626839 294.08133 
L 314.220326 294.081318 
L 314.220314 295.48783 
L 305.78124 295.487757 
L 305.781726 239.227263 
L 333.911973 239.227506 
" clip-path="url(#p72ddc05cf4)" style="fill: #1f77b4"/>
   </g>
   <g id="PathCollection_1">
    <defs>
     <path id="m96c32fffb8" d="M 0 3 
C 0.795609 3 1.55874 2.683901 2.12132 2.12132 
C 2.683901 1.55874 3 0.795609 3 0 
C 3 -0.795609 2.683901 -1.55874 2.12132 -2.12132 
C 1.55874 -2.683901 0.795609 -3 0 -3 
C -0.795609 -3 -1.55874 -2.683901 -2.12132 -2.12132 
C -2.683901 -1.55874 -3 -0.795609 -3 0 
C -3 0.795609 -2.683901 1.55874 -2.12132 2.12132 
C -1.55874 2.683901 -0.795609 3 0 3 
z
" style="stroke: #00ff00"/>
    </defs>
    <g clip-path="url(#p72ddc05cf4)">
     <use xlink:href="#m96c32fffb8" x="319.383863" y="215.219951" style="fill: #00ff00; stroke: #00ff00"/>
     <use xlink:href="#m96c32fffb8" x="281.492144" y="187.006466" style="fill: #00ff00; stroke: #00ff00"/>
     <use xlink:href="#m96c32fffb8" x="325.232266" y="192.698597" style="fill: #00ff00; stroke: #00ff00"/>
     <use xlink:href="#m96c32fffb8" x="325.651165" y="203.450623" style="fill: #00ff00; stroke: #00ff00"/>
    </g>
   </g>
   <g id="matplotlib.axis_1">
    <g id="xtick_1">
     <g id="line2d_1">
      <defs>
       <path id="mb4bfeaf7ee" d="M 0 0 
L 0 3.5 
" style="stroke: #000000; stroke-width: 0.8"/>
      </defs>
      <g>
       <use xlink:href="#mb4bfeaf7ee" x="84.23811" y="307.584" style="stroke: #000000; stroke-width: 0.8"/>
      </g>
     </g>
     <g id="text_1">
      <!-- 730000 -->
      <g transform="translate(65.15061 322.182437)scale(0.1 -0.1)">
       <defs>
        <path id="DejaVuSans-37" d="M 525 4666 
L 3525 4666 
L 3525 4397 
L 1831 0 
L 1172 0 
L 2766 4134 
L 525 4134 
L 525 4666 
z
" transform="scale(0.015625)"/>
        <path id="DejaVuSans-33" d="M 2597 2516 
Q 3050 2419 3304 2112 
Q 3559 1806 3559 1356 
Q 3559 666 3084 287 
Q 2609 -91 1734 -91 
Q 1441 -91 1130 -33 
Q 819 25 488 141 
L 488 750 
Q 750 597 1062 519 
Q 1375 441 1716 441 
Q 2309 441 2620 675 
Q 2931 909 2931 1356 
Q 2931 1769 2642 2001 
Q 2353 2234 1838 2234 
L 1294 2234 
L 1294 2753 
L 1863 2753 
Q 2328 2753 2575 2939 
Q 2822 3125 2822 3475 
Q 2822 3834 2567 4026 
Q 2313 4219 1838 4219 
Q 1578 4219 1281 4162 
Q 984 4106 628 3988 
L 628 4550 
Q 988 4650 1302 4700 
Q 1616 4750 1894 4750 
Q 2613 4750 3031 4423 
Q 3450 4097 3450 3541 
Q 3450 3153 3228 2886 
Q 3006 2619 2597 2516 
z
" transform="scale(0.015625)"/>
        <path id="DejaVuSans-30" d="M 2034 4250 
Q 1547 4250 1301 3770 
Q 1056 3291 1056 2328 
Q 1056 1369 1301 889 
Q 1547 409 2034 409 
Q 2525 409 2770 889 
Q 3016 1369 3016 2328 
Q 3016 3291 2770 3770 
Q 2525 4250 2034 4250 
z
M 2034 4750 
Q 2819 4750 3233 4129 
Q 3647 3509 3647 2328 
Q 3647 1150 3233 529 
Q 2819 -91 2034 -91 
Q 1250 -91 836 529 
Q 422 1150 422 2328 
Q 422 3509 836 4129 
Q 1250 4750 2034 4750 
z
" transform="scale(0.015625)"/>
       </defs>
       <use xlink:href="#DejaVuSans-37"/>
       <use xlink:href="#DejaVuSans-33" x="63.623047"/>
       <use xlink:href="#DejaVuSans-30" x="127.246094"/>
       <use xlink:href="#DejaVuSans-30" x="190.869141"/>
       <use xlink:href="#DejaVuSans-30" x="254.492188"/>
       <use xlink:href="#DejaVuSans-30" x="318.115234"/>
      </g>
     </g>
    </g>
    <g id="xtick_2">
     <g id="line2d_2">
      <g>
       <use xlink:href="#mb4bfeaf7ee" x="119.40096" y="307.584" style="stroke: #000000; stroke-width: 0.8"/>
      </g>
     </g>
     <g id="text_2">
      <!-- 732500 -->
      <g transform="translate(100.31346 322.182437)scale(0.1 -0.1)">
       <defs>
        <path id="DejaVuSans-32" d="M 1228 531 
L 3431 531 
L 3431 0 
L 469 0 
L 469 531 
Q 828 903 1448 1529 
Q 2069 2156 2228 2338 
Q 2531 2678 2651 2914 
Q 2772 3150 2772 3378 
Q 2772 3750 2511 3984 
Q 2250 4219 1831 4219 
Q 1534 4219 1204 4116 
Q 875 4013 500 3803 
L 500 4441 
Q 881 4594 1212 4672 
Q 1544 4750 1819 4750 
Q 2544 4750 2975 4387 
Q 3406 4025 3406 3419 
Q 3406 3131 3298 2873 
Q 3191 2616 2906 2266 
Q 2828 2175 2409 1742 
Q 1991 1309 1228 531 
z
" transform="scale(0.015625)"/>
        <path id="DejaVuSans-35" d="M 691 4666 
L 3169 4666 
L 3169 4134 
L 1269 4134 
L 1269 2991 
Q 1406 3038 1543 3061 
Q 1681 3084 1819 3084 
Q 2600 3084 3056 2656 
Q 3513 2228 3513 1497 
Q 3513 744 3044 326 
Q 2575 -91 1722 -91 
Q 1428 -91 1123 -41 
Q 819 9 494 109 
L 494 744 
Q 775 591 1075 516 
Q 1375 441 1709 441 
Q 2250 441 2565 725 
Q 2881 1009 2881 1497 
Q 2881 1984 2565 2268 
Q 2250 2553 1709 2553 
Q 1456 2553 1204 2497 
Q 953 2441 691 2322 
L 691 4666 
z
" transform="scale(0.015625)"/>
       </defs>
       <use xlink:href="#DejaVuSans-37"/>
       <use xlink:href="#DejaVuSans-33" x="63.623047"/>
       <use xlink:href="#DejaVuSans-32" x="127.246094"/>
       <use xlink:href="#DejaVuSans-35" x="190.869141"/>
       <use xlink:href="#DejaVuSans-30" x="254.492188"/>
       <use xlink:href="#DejaVuSans-30" x="318.115234"/>
      </g>
     </g>
    </g>
    <g id="xtick_3">
     <g id="line2d_3">
      <g>
       <use xlink:href="#mb4bfeaf7ee" x="154.563811" y="307.584" style="stroke: #000000; stroke-width: 0.8"/>
      </g>
     </g>
     <g id="text_3">
      <!-- 735000 -->
      <g transform="translate(135.476311 322.182437)scale(0.1 -0.1)">
       <use xlink:href="#DejaVuSans-37"/>
       <use xlink:href="#DejaVuSans-33" x="63.623047"/>
       <use xlink:href="#DejaVuSans-35" x="127.246094"/>
       <use xlink:href="#DejaVuSans-30" x="190.869141"/>
       <use xlink:href="#DejaVuSans-30" x="254.492188"/>
       <use xlink:href="#DejaVuSans-30" x="318.115234"/>
      </g>
     </g>
    </g>
    <g id="xtick_4">
     <g id="line2d_4">
      <g>
       <use xlink:href="#mb4bfeaf7ee" x="189.726662" y="307.584" style="stroke: #000000; stroke-width: 0.8"/>
      </g>
     </g>
     <g id="text_4">
      <!-- 737500 -->
      <g transform="translate(170.639162 322.182437)scale(0.1 -0.1)">
       <use xlink:href="#DejaVuSans-37"/>
       <use xlink:href="#DejaVuSans-33" x="63.623047"/>
       <use xlink:href="#DejaVuSans-37" x="127.246094"/>
       <use xlink:href="#DejaVuSans-35" x="190.869141"/>
       <use xlink:href="#DejaVuSans-30" x="254.492188"/>
       <use xlink:href="#DejaVuSans-30" x="318.115234"/>
      </g>
     </g>
    </g>
    <g id="xtick_5">
     <g id="line2d_5">
      <g>
       <use xlink:href="#mb4bfeaf7ee" x="224.889513" y="307.584" style="stroke: #000000; stroke-width: 0.8"/>
      </g>
     </g>
     <g id="text_5">
      <!-- 740000 -->
      <g transform="translate(205.802013 322.182437)scale(0.1 -0.1)">
       <defs>
        <path id="DejaVuSans-34" d="M 2419 4116 
L 825 1625 
L 2419 1625 
L 2419 4116 
z
M 2253 4666 
L 3047 4666 
L 3047 1625 
L 3713 1625 
L 3713 1100 
L 3047 1100 
L 3047 0 
L 2419 0 
L 2419 1100 
L 313 1100 
L 313 1709 
L 2253 4666 
z
" transform="scale(0.015625)"/>
       </defs>
       <use xlink:href="#DejaVuSans-37"/>
       <use xlink:href="#DejaVuSans-34" x="63.623047"/>
       <use xlink:href="#DejaVuSans-30" x="127.246094"/>
       <use xlink:href="#DejaVuSans-30" x="190.869141"/>
       <use xlink:href="#DejaVuSans-30" x="254.492188"/>
       <use xlink:href="#DejaVuSans-30" x="318.115234"/>
      </g>
     </g>
    </g>
    <g id="xtick_6">
     <g id="line2d_6">
      <g>
       <use xlink:href="#mb4bfeaf7ee" x="260.052364" y="307.584" style="stroke: #000000; stroke-width: 0.8"/>
      </g>
     </g>
     <g id="text_6">
      <!-- 742500 -->
      <g transform="translate(240.964864 322.182437)scale(0.1 -0.1)">
       <use xlink:href="#DejaVuSans-37"/>
       <use xlink:href="#DejaVuSans-34" x="63.623047"/>
       <use xlink:href="#DejaVuSans-32" x="127.246094"/>
       <use xlink:href="#DejaVuSans-35" x="190.869141"/>
       <use xlink:href="#DejaVuSans-30" x="254.492188"/>
       <use xlink:href="#DejaVuSans-30" x="318.115234"/>
      </g>
     </g>
    </g>
    <g id="xtick_7">
     <g id="line2d_7">
      <g>
       <use xlink:href="#mb4bfeaf7ee" x="295.215215" y="307.584" style="stroke: #000000; stroke-width: 0.8"/>
      </g>
     </g>
     <g id="text_7">
      <!-- 745000 -->
      <g transform="translate(276.127715 322.182437)scale(0.1 -0.1)">
       <use xlink:href="#DejaVuSans-37"/>
       <use xlink:href="#DejaVuSans-34" x="63.623047"/>
       <use xlink:href="#DejaVuSans-35" x="127.246094"/>
       <use xlink:href="#DejaVuSans-30" x="190.869141"/>
       <use xlink:href="#DejaVuSans-30" x="254.492188"/>
       <use xlink:href="#DejaVuSans-30" x="318.115234"/>
      </g>
     </g>
    </g>
    <g id="xtick_8">
     <g id="line2d_8">
      <g>
       <use xlink:href="#mb4bfeaf7ee" x="330.378066" y="307.584" style="stroke: #000000; stroke-width: 0.8"/>
      </g>
     </g>
     <g id="text_8">
      <!-- 747500 -->
      <g transform="translate(311.290566 322.182437)scale(0.1 -0.1)">
       <use xlink:href="#DejaVuSans-37"/>
       <use xlink:href="#DejaVuSans-34" x="63.623047"/>
       <use xlink:href="#DejaVuSans-37" x="127.246094"/>
       <use xlink:href="#DejaVuSans-35" x="190.869141"/>
       <use xlink:href="#DejaVuSans-30" x="254.492188"/>
       <use xlink:href="#DejaVuSans-30" x="318.115234"/>
      </g>
     </g>
    </g>
    <g id="xtick_9">
     <g id="line2d_9">
      <g>
       <use xlink:href="#mb4bfeaf7ee" x="365.540917" y="307.584" style="stroke: #000000; stroke-width: 0.8"/>
      </g>
     </g>
     <g id="text_9">
      <!-- 750000 -->
      <g transform="translate(346.453417 322.182437)scale(0.1 -0.1)">
       <use xlink:href="#DejaVuSans-37"/>
       <use xlink:href="#DejaVuSans-35" x="63.623047"/>
       <use xlink:href="#DejaVuSans-30" x="127.246094"/>
       <use xlink:href="#DejaVuSans-30" x="190.869141"/>
       <use xlink:href="#DejaVuSans-30" x="254.492188"/>
       <use xlink:href="#DejaVuSans-30" x="318.115234"/>
      </g>
     </g>
    </g>
   </g>
   <g id="matplotlib.axis_2">
    <g id="ytick_1">
     <g id="line2d_10">
      <defs>
       <path id="md27e694f64" d="M 0 0 
L -3.5 0 
" style="stroke: #000000; stroke-width: 0.8"/>
      </defs>
      <g>
       <use xlink:href="#md27e694f64" x="82.216312" y="297.378761" style="stroke: #000000; stroke-width: 0.8"/>
      </g>
     </g>
     <g id="text_10">
      <!-- 1.00275 -->
      <g transform="translate(33.863187 301.17798)scale(0.1 -0.1)">
       <defs>
        <path id="DejaVuSans-31" d="M 794 531 
L 1825 531 
L 1825 4091 
L 703 3866 
L 703 4441 
L 1819 4666 
L 2450 4666 
L 2450 531 
L 3481 531 
L 3481 0 
L 794 0 
L 794 531 
z
" transform="scale(0.015625)"/>
        <path id="DejaVuSans-2e" d="M 684 794 
L 1344 794 
L 1344 0 
L 684 0 
L 684 794 
z
" transform="scale(0.015625)"/>
       </defs>
       <use xlink:href="#DejaVuSans-31"/>
       <use xlink:href="#DejaVuSans-2e" x="63.623047"/>
       <use xlink:href="#DejaVuSans-30" x="95.410156"/>
       <use xlink:href="#DejaVuSans-30" x="159.033203"/>
       <use xlink:href="#DejaVuSans-32" x="222.65625"/>
       <use xlink:href="#DejaVuSans-37" x="286.279297"/>
       <use xlink:href="#DejaVuSans-35" x="349.902344"/>
      </g>
     </g>
    </g>
    <g id="ytick_2">
     <g id="line2d_11">
      <g>
       <use xlink:href="#md27e694f64" x="82.216312" y="262.21591" style="stroke: #000000; stroke-width: 0.8"/>
      </g>
     </g>
     <g id="text_11">
      <!-- 1.00300 -->
      <g transform="translate(33.863187 266.015129)scale(0.1 -0.1)">
       <use xlink:href="#DejaVuSans-31"/>
       <use xlink:href="#DejaVuSans-2e" x="63.623047"/>
       <use xlink:href="#DejaVuSans-30" x="95.410156"/>
       <use xlink:href="#DejaVuSans-30" x="159.033203"/>
       <use xlink:href="#DejaVuSans-33" x="222.65625"/>
       <use xlink:href="#DejaVuSans-30" x="286.279297"/>
       <use xlink:href="#DejaVuSans-30" x="349.902344"/>
      </g>
     </g>
    </g>
    <g id="ytick_3">
     <g id="line2d_12">
      <g>
       <use xlink:href="#md27e694f64" x="82.216312" y="227.053059" style="stroke: #000000; stroke-width: 0.8"/>
      </g>
     </g>
     <g id="text_12">
      <!-- 1.00325 -->
      <g transform="translate(33.863187 230.852278)scale(0.1 -0.1)">
       <use xlink:href="#DejaVuSans-31"/>
       <use xlink:href="#DejaVuSans-2e" x="63.623047"/>
       <use xlink:href="#DejaVuSans-30" x="95.410156"/>
       <use xlink:href="#DejaVuSans-30" x="159.033203"/>
       <use xlink:href="#DejaVuSans-33" x="222.65625"/>
       <use xlink:href="#DejaVuSans-32" x="286.279297"/>
       <use xlink:href="#DejaVuSans-35" x="349.902344"/>
      </g>
     </g>
    </g>
    <g id="ytick_4">
     <g id="line2d_13">
      <g>
       <use xlink:href="#md27e694f64" x="82.216312" y="191.890208" style="stroke: #000000; stroke-width: 0.8"/>
      </g>
     </g>
     <g id="text_13">
      <!-- 1.00350 -->
      <g transform="translate(33.863187 195.689427)scale(0.1 -0.1)">
       <use xlink:href="#DejaVuSans-31"/>
       <use xlink:href="#DejaVuSans-2e" x="63.623047"/>
       <use xlink:href="#DejaVuSans-30" x="95.410156"/>
       <use xlink:href="#DejaVuSans-30" x="159.033203"/>
       <use xlink:href="#DejaVuSans-33" x="222.65625"/>
       <use xlink:href="#DejaVuSans-35" x="286.279297"/>
       <use xlink:href="#DejaVuSans-30" x="349.902344"/>
      </g>
     </g>
    </g>
    <g id="ytick_5">
     <g id="line2d_14">
      <g>
       <use xlink:href="#md27e694f64" x="82.216312" y="156.727357" style="stroke: #000000; stroke-width: 0.8"/>
      </g>
     </g>
     <g id="text_14">
      <!-- 1.00375 -->
      <g transform="translate(33.863187 160.526576)scale(0.1 -0.1)">
       <use xlink:href="#DejaVuSans-31"/>
       <use xlink:href="#DejaVuSans-2e" x="63.623047"/>
       <use xlink:href="#DejaVuSans-30" x="95.410156"/>
       <use xlink:href="#DejaVuSans-30" x="159.033203"/>
       <use xlink:href="#DejaVuSans-33" x="222.65625"/>
       <use xlink:href="#DejaVuSans-37" x="286.279297"/>
       <use xlink:href="#DejaVuSans-35" x="349.902344"/>
      </g>
     </g>
    </g>
    <g id="ytick_6">
     <g id="line2d_15">
      <g>
       <use xlink:href="#md27e694f64" x="82.216312" y="121.564506" style="stroke: #000000; stroke-width: 0.8"/>
      </g>
     </g>
     <g id="text_15">
      <!-- 1.00400 -->
      <g transform="translate(33.863187 125.363725)scale(0.1 -0.1)">
       <use xlink:href="#DejaVuSans-31"/>
       <use xlink:href="#DejaVuSans-2e" x="63.623047"/>
       <use xlink:href="#DejaVuSans-30" x="95.410156"/>
       <use xlink:href="#DejaVuSans-30" x="159.033203"/>
       <use xlink:href="#DejaVuSans-34" x="222.65625"/>
       <use xlink:href="#DejaVuSans-30" x="286.279297"/>
       <use xlink:href="#DejaVuSans-30" x="349.902344"/>
      </g>
     </g>
    </g>
    <g id="ytick_7">
     <g id="line2d_16">
      <g>
       <use xlink:href="#md27e694f64" x="82.216312" y="86.401655" style="stroke: #000000; stroke-width: 0.8"/>
      </g>
     </g>
     <g id="text_16">
      <!-- 1.00425 -->
      <g transform="translate(33.863187 90.200874)scale(0.1 -0.1)">
       <use xlink:href="#DejaVuSans-31"/>
       <use xlink:href="#DejaVuSans-2e" x="63.623047"/>
       <use xlink:href="#DejaVuSans-30" x="95.410156"/>
       <use xlink:href="#DejaVuSans-30" x="159.033203"/>
       <use xlink:href="#DejaVuSans-34" x="222.65625"/>
       <use xlink:href="#DejaVuSans-32" x="286.279297"/>
       <use xlink:href="#DejaVuSans-35" x="349.902344"/>
      </g>
     </g>
    </g>
    <g id="ytick_8">
     <g id="line2d_17">
      <g>
       <use xlink:href="#md27e694f64" x="82.216312" y="51.238804" style="stroke: #000000; stroke-width: 0.8"/>
      </g>
     </g>
     <g id="text_17">
      <!-- 1.00450 -->
      <g transform="translate(33.863187 55.038023)scale(0.1 -0.1)">
       <use xlink:href="#DejaVuSans-31"/>
       <use xlink:href="#DejaVuSans-2e" x="63.623047"/>
       <use xlink:href="#DejaVuSans-30" x="95.410156"/>
       <use xlink:href="#DejaVuSans-30" x="159.033203"/>
       <use xlink:href="#DejaVuSans-34" x="222.65625"/>
       <use xlink:href="#DejaVuSans-35" x="286.279297"/>
       <use xlink:href="#DejaVuSans-30" x="349.902344"/>
      </g>
     </g>
    </g>
    <g id="text_18">
     <!-- 1e7 -->
     <g transform="translate(82.216312 38.472)scale(0.1 -0.1)">
      <defs>
       <path id="DejaVuSans-65" d="M 3597 1894 
L 3597 1613 
L 953 1613 
Q 991 1019 1311 708 
Q 1631 397 2203 397 
Q 2534 397 2845 478 
Q 3156 559 3463 722 
L 3463 178 
Q 3153 47 2828 -22 
Q 2503 -91 2169 -91 
Q 1331 -91 842 396 
Q 353 884 353 1716 
Q 353 2575 817 3079 
Q 1281 3584 2069 3584 
Q 2775 3584 3186 3129 
Q 3597 2675 3597 1894 
z
M 3022 2063 
Q 3016 2534 2758 2815 
Q 2500 3097 2075 3097 
Q 1594 3097 1305 2825 
Q 1016 2553 972 2059 
L 3022 2063 
z
" transform="scale(0.015625)"/>
      </defs>
      <use xlink:href="#DejaVuSans-31"/>
      <use xlink:href="#DejaVuSans-65" x="63.623047"/>
      <use xlink:href="#DejaVuSans-37" x="125.146484"/>
     </g>
    </g>
   </g>
   <g id="LineCollection_1">
    <path d="M 265.764188 83.496242 
L 267.416356 82.901181 
L 273.961845 85.820656 
L 275.5465 88.413625 
L 278.798753 87.626457 
L 280.910258 87.789828 
L 283.88372 88.718334 
L 287.114506 88.173669 
L 288.431702 88.876812 
L 288.341849 92.671529 
L 289.415642 92.46249 
L 289.672854 95.512635 
L 290.99443 97.192711 
L 292.685672 98.255474 
L 291.989483 99.521935 
L 293.215627 101.893682 
L 292.802249 104.206953 
L 291.126947 105.861649 
L 290.560693 109.949317 
L 288.866976 111.021942 
L 287.522639 111.496924 
L 286.153761 110.772269 
L 285.141717 112.206895 
L 284.21019 114.201495 
L 281.908173 115.346741 
L 282.124441 117.275663 
L 280.599465 116.717269 
L 278.555891 118.890498 
L 277.683551 118.893114 
L 276.87244 120.057833 
L 275.140356 120.050484 
L 273.661259 121.297037 
L 274.761254 123.16607 
L 277.908341 123.523735 
L 285.554173 126.813218 
L 287.697462 127.941506 
L 289.91916 128.093139 
L 296.516493 136.520915 
L 298.070765 139.44599 
L 301.155722 142.848332 
L 303.568982 146.294313 
L 305.03815 148.613385 
L 305.741893 151.531032 
L 309.794415 156.431531 
L 310.297683 158.679001 
L 315.166359 162.172097 
L 316.421193 161.85551 
L 318.261557 164.610529 
L 322.115105 170.759069 
L 323.898899 174.008745 
L 323.753369 176.598747 
L 324.21442 181.571286 
L 327.797601 187.018717 
L 327.646837 189.06985 
L 328.948848 190.84088 
L 334.271642 191.039635 
L 336.161692 193.868395 
L 335.65957 197.102006 
L 336.241893 198.467949 
L 336.861557 200.338523 
L 338.889191 200.266474 
L 341.195862 201.943484 
L 342.614803 203.789832 
L 344.996264 204.903048 
L 346.522814 209.503192 
L 345.479158 211.512985 
L 345.623383 214.544414 
L 346.089523 216.574074 
L 346.058115 218.835065 
L 348.018134 220.554017 
L 347.03256 224.783077 
L 346.168476 225.385933 
L 345.527734 226.507051 
L 344.248538 225.660459 
L 343.343543 227.25558 
L 340.602938 226.428137 
L 338.254753 229.532955 
L 337.691875 231.386777 
L 336.209051 233.72711 
L 336.025194 235.223103 
L 333.549102 238.482765 
L 330.463444 240.128606 
L 326.860146 238.556402 
L 325.061522 237.968375 
L 320.332636 234.830886 
L 317.234026 234.999831 
L 313.071411 231.953694 
L 311.035153 229.401715 
L 309.503449 228.768976 
L 307.406448 225.831781 
L 303.221744 223.147398 
L 299.951027 220.634888 
L 296.789268 221.033773 
L 295.627007 219.423699 
L 293.679968 219.254378 
L 291.997447 218.333526 
L 290.710086 218.677061 
L 289.505565 217.49801 
L 287.628387 216.533124 
L 283.237247 214.717433 
L 279.56452 216.759415 
L 277.57061 216.948017 
L 273.735607 218.415576 
L 270.924906 218.339953 
L 269.307597 218.800353 
L 263.493735 219.044427 
L 261.029599 218.062364 
L 258.769638 217.931171 
L 254.109638 222.209872 
L 250.895681 225.31526 
L 250.166344 227.023912 
L 243.924898 228.956501 
L 241.354659 230.474044 
L 240.692871 227.946763 
L 240.967151 226.220814 
L 240.088903 224.507613 
L 241.127471 223.296469 
L 241.223126 217.016075 
L 238.704436 212.073347 
L 239.125193 207.75734 
L 238.542324 205.579816 
L 236.613672 203.291741 
L 236.04752 201.234795 
L 236.102103 199.360714 
L 234.980228 196.525532 
L 232.155216 196.417889 
L 228.623681 194.475738 
L 227.371379 194.097287 
L 223.397786 190.633413 
L 220.553828 191.169359 
L 217.576443 190.97255 
L 215.13475 188.739596 
L 216.845763 187.052972 
L 217.607652 184.266193 
L 219.253254 182.651614 
L 219.724415 177.990547 
L 219.139316 174.595151 
L 219.725131 171.84356 
L 222.433671 168.030579 
L 222.985441 164.651172 
L 223.984814 161.084615 
L 227.759526 157.30913 
L 233.940206 147.9822 
L 234.267746 143.130005 
L 234.449396 142.879813 
L 236.762573 138.369877 
L 235.273003 136.613061 
L 235.871114 135.132013 
L 236.499748 131.442781 
L 240.3979 123.618107 
L 241.112332 120.052739 
L 242.714678 116.221087 
L 247.934041 110.877891 
L 251.361356 107.102981 
L 249.817764 101.442643 
L 251.593216 103.299817 
L 256.612704 102.973151 
L 257.276807 103.24666 
L 258.294307 101.863574 
L 257.038708 100.319107 
L 258.00899 99.287485 
L 258.019021 98.284034 
L 259.305675 97.084257 
L 258.943044 95.89867 
L 259.157406 94.834209 
L 257.854722 93.922965 
L 258.644654 90.808755 
L 259.415834 81.509585 
L 265.422996 83.57084 
L 265.764188 83.496242 
L 265.764188 83.496242 
" clip-path="url(#p72ddc05cf4)" style="fill: none; stroke: #000000; stroke-width: 1.5"/>
   </g>
   <g id="LineCollection_2">
    <path d="M 299.192343 159.063811 
L 299.234931 159.527991 
L 299.404934 159.844446 
L 299.638675 160.224185 
L 300.084806 160.498378 
L 300.530984 160.983567 
L 300.913439 161.468771 
L 301.317168 162.101666 
L 301.550938 162.608003 
L 301.720964 163.029956 
L 302.145963 163.789445 
L 302.507223 164.48565 
L 302.740945 164.780991 
L 302.995889 164.99193 
L 303.378282 165.20284 
L 303.654482 165.477073 
L 303.845712 165.730225 
L 304.164461 166.299842 
L 304.461879 166.468572 
L 304.759287 166.595103 
L 304.99298 166.763848 
L 305.078008 167.038124 
L 305.056832 167.333523 
L 304.950686 167.607841 
L 304.865777 167.861055 
L 304.865862 168.240848 
L 305.014608 168.49401 
L 305.333291 168.768234 
L 305.588282 169.190169 
L 305.77954 169.569919 
L 305.86459 169.949693 
L 305.92839 170.287273 
L 305.758528 170.603805 
L 305.567449 171.025839 
L 305.65248 171.321215 
L 305.801199 171.447779 
L 305.949954 171.743141 
L 306.226177 172.122872 
L 306.502428 172.629202 
L 306.736131 172.840146 
L 306.969838 173.07219 
L 307.118599 173.388652 
L 307.437314 173.810574 
L 307.777219 174.000395 
L 308.074623 174.105828 
L 308.478248 174.274536 
L 308.754434 174.485471 
L 309.115567 174.611989 
L 309.497923 174.654104 
L 309.795285 174.56964 
L 310.028951 174.611788 
L 310.262654 174.822732 
L 310.411359 174.885999 
L 310.51758 174.949274 
L 310.836282 175.307898 
L 311.048766 175.624346 
L 311.409923 175.856362 
L 311.686104 176.046198 
L 312.047219 176.088318 
L 312.302127 176.130462 
L 312.472082 176.235922 
L 312.620861 176.636783 
L 312.748389 176.99545 
L 312.81222 177.480728 
L 312.833587 178.050414 
L 312.854916 178.451303 
L 312.939942 178.72558 
L 312.982541 179.253063 
L 313.025116 179.675047 
L 313.110147 179.970424 
L 313.131444 180.223615 
L 313.15275 180.519006 
L 313.19532 180.91989 
L 313.386549 181.173045 
L 313.811426 181.383949 
L 314.257549 181.615948 
L 314.491261 181.869093 
L 314.767479 182.227728 
L 314.937485 182.565286 
L 315.001269 182.839568 
L 314.937595 183.071678 
L 314.810233 183.4726 
L 314.746618 183.979006 
L 314.767947 184.379896 
L 314.874241 184.780767 
L 315.044238 185.076126 
L 315.299232 185.519164 
L 315.469283 186.067719 
L 315.511857 186.489704 
L 315.873069 186.974919 
L 316.127986 187.059263 
L 316.595327 187.18576 
L 316.829053 187.502205 
L 317.232747 187.987411 
L 317.678925 188.472609 
L 318.125039 188.66241 
L 318.719876 188.999878 
L 319.442122 189.147421 
L 320.228084 189.25275 
L 320.929066 189.294799 
L 321.630085 189.505646 
L 322.139951 189.822033 
L 322.713607 190.433802 
L 323.138512 190.771307 
L 323.669657 191.256488 
L 324.030823 191.530708 
L 324.370708 191.615034 
L 324.944359 192.205705 
L 325.156852 192.564356 
L 325.32683 192.775317 
" clip-path="url(#p72ddc05cf4)" style="fill: none; stroke: #708090; stroke-width: 1.5"/>
    <path d="M 325.32683 192.775317 
L 325.32953 192.053459 
L 325.233748 191.657403 
L 324.978419 191.023736 
L 324.595507 190.453468 
L 324.268459 190.073306 
L 324.069006 189.685194 
L 323.765794 188.893107 
L 323.717819 188.306925 
L 323.414623 187.594054 
L 323.143354 187.00792 
L 323.031615 186.580182 
L 322.776291 185.978202 
L 322.712428 185.677198 
L 322.728302 185.328648 
L 322.967487 185.059265 
L 323.254514 184.758185 
L 323.30229 184.425471 
L 323.238395 183.98188 
L 323.078758 183.33235 
L 322.711798 182.777924 
L 322.440576 182.413593 
L 322.249109 182.080931 
L 322.15336 181.843307 
L 322.121399 181.558139 
L 322.217068 181.431374 
L 322.312759 181.399667 
L 322.424419 181.463015 
L 322.75936 181.462942 
L 323.014525 181.336142 
L 323.142062 181.066782 
L 323.126061 180.82914 
L 323.078171 180.639034 
L 323.046223 180.417239 
L 323.062117 180.163747 
L 323.157741 179.831022 
L 323.253355 179.450768 
L 323.396839 179.165562 
L 323.348927 178.880398 
L 323.237249 178.737835 
L 322.95015 178.706212 
L 322.822557 178.722083 
L 322.742817 178.753787 
L 322.679029 178.80133 
" clip-path="url(#p72ddc05cf4)" style="fill: none; stroke: #708090; stroke-width: 1.5"/>
    <path d="M 325.32683 192.775317 
L 325.26185 193.274316 
L 325.218643 193.704419 
L 325.240411 194.263536 
L 325.240526 194.801153 
L 325.283907 195.188228 
L 325.392226 195.532279 
L 325.41394 195.83334 
L 325.392322 195.983878 
L 325.262468 196.177447 
L 325.219201 196.327989 
L 325.305816 196.41399 
L 325.565631 196.521458 
L 325.608975 196.736496 
L 325.587403 197.10208 
L 325.630761 197.381632 
L 325.674109 197.618174 
L 325.565949 198.026786 
L 325.371165 198.306388 
L 325.089756 198.45698 
L 324.959897 198.629045 
L 324.786762 198.908642 
L 324.743527 199.209717 
L 324.721945 199.532291 
L 324.722054 200.048404 
L 324.830404 200.542988 
L 324.830463 200.822549 
L 324.787214 201.05911 
L 324.808963 201.532208 
L 324.830689 201.897783 
L 324.895691 202.155825 
L 324.939053 202.456882 
" clip-path="url(#p72ddc05cf4)" style="fill: none; stroke: #708090; stroke-width: 1.5"/>
    <path d="M 325.32683 192.775317 
L 325.824745 193.33871 
L 326.279504 193.919239 
L 326.799242 194.650288 
L 327.210684 195.144808 
L 327.903645 196.004849 
L 328.336718 196.413346 
L 328.856379 196.778816 
L 329.462651 197.208782 
L 329.960663 197.574257 
L 330.631883 198.004209 
L 331.519616 198.520135 
L 331.887745 198.950151 
L 332.234253 199.509202 
L 332.537399 199.767194 
L 332.862193 200.025183 
L 333.165339 200.283176 
L 333.295294 200.56271 
L 333.317011 200.885277 
L 333.25209 201.014319 
L 333.013966 201.100388 
L 332.884065 201.078911 
L 332.819135 201.164944 
L 332.775863 201.293981 
" clip-path="url(#p72ddc05cf4)" style="fill: none; stroke: #708090; stroke-width: 1.5"/>
    <path d="M 332.775863 201.293981 
L 332.581055 201.46606 
L 332.429528 201.552111 
L 332.126451 201.616689 
L 331.801715 201.638262 
L 331.498615 201.595317 
L 331.238814 201.552362 
L 330.97904 201.638435 
L 330.870847 201.896515 
L 330.76265 202.13309 
L 330.654449 202.34816 
L 330.502939 202.520229 
L 330.286464 202.606293 
L 330.048344 202.713867 
L 329.896799 202.713899 
L 329.615339 202.627939 
L 329.33388 202.541979 
L 329.18228 202.283954 
L 329.074002 202.133444 
L 328.81417 201.939956 
L 328.532688 201.746473 
L 328.229557 201.552994 
L 328.013046 201.467021 
L 327.77489 201.402557 
L 327.471786 201.338106 
L 327.276942 201.338147 
L 326.930535 201.252201 
L 326.73566 201.101709 
L 326.519149 201.015736 
L 326.259343 200.951277 
L 326.021201 200.951327 
L 325.783064 200.972882 
L 325.566584 201.037441 
L 325.328474 201.188024 
L 325.133671 201.381607 
L 325.04859 201.48043 
L 324.975291 201.650416 
L 324.926432 201.796116 
L 324.950916 201.984293 
L 324.981509 202.160328 
L 324.987639 202.251382 
L 324.981546 202.336369 
L 324.939053 202.456882 
" clip-path="url(#p72ddc05cf4)" style="fill: none; stroke: #708090; stroke-width: 1.5"/>
    <path d="M 324.939053 202.456882 
L 324.79403 202.355053 
L 324.692408 202.27097 
L 324.603478 202.144832 
L 324.506067 201.951412 
L 324.425587 201.745372 
L 324.370501 201.505686 
L 324.353523 201.295428 
L 324.302685 201.12723 
L 324.133313 200.975877 
L 323.997829 200.917032 
L 323.879294 200.933878 
L 323.709965 200.984376 
L 323.591439 201.043274 
L 323.405166 201.051724 
L 323.26968 200.984469 
L 323.16806 200.908796 
L 323.057979 200.858357 
L 322.956371 200.841557 
L 322.83784 200.875224 
L 322.710868 201.035049 
L 322.626237 201.220097 
L 322.533146 201.438788 
L 322.423124 201.674303 
L 322.236901 201.918245 
L 322.042204 202.128547 
L 321.847502 202.313618 
L 321.610449 202.423003 
L 321.398779 202.448279 
L 321.08549 202.397882 
L 320.814503 202.196088 
L 320.365703 201.96069 
L 319.925372 201.7337 
L 319.696729 201.57395 
L 319.400358 201.447855 
L 319.180215 201.439491 
L 318.892369 201.590939 
L 318.672276 201.826477 
L 318.502982 202.045184 
L 318.316733 202.162969 
L 317.978064 202.213503 
L 317.673238 202.146283 
L 317.266823 202.146368 
L 316.843477 202.163277 
L 316.758821 202.230578 
L 316.657242 202.348346 
L 316.623413 202.533382 
L 316.538782 202.718429 
L 316.352547 202.903498 
L 316.166312 203.088566 
L 315.861539 203.273659 
L 315.692252 203.526007 
L 315.641496 203.744688 
L 315.556879 203.997019 
L 315.45531 204.165248 
L 315.302932 204.299847 
L 314.981204 204.384018 
L 314.591716 204.350457 
L 314.236082 204.249606 
L 313.812706 204.115128 
L 313.220004 204.047968 
L 312.711975 203.997611 
L 312.237842 204.081814 
L 311.865327 204.233279 
L 311.712978 204.502443 
L 311.62835 204.704311 
L 311.560684 205.040741 
L 311.611566 205.427609 
L 311.747111 205.780819 
L 311.848808 206.23496 
L 312.069037 206.655435 
L 312.289254 207.025447 
L 312.526389 207.311352 
L 312.543361 207.496378 
L 312.458729 207.681424 
L 312.238647 207.967424 
L 311.984659 208.068401 
L 311.612137 208.186223 
L 311.425894 208.337649 
L 311.392051 208.455402 
L 311.375148 208.606793 
L 311.290496 208.690914 
L 311.070375 208.791884 
L 310.816377 208.842399 
L 310.697853 208.909707 
L 310.647069 208.993821 
L 310.410032 209.178899 
L 310.27456 209.178927 
L 310.054405 209.111689 
L 309.868101 208.96034 
L 309.749533 208.808977 
L 309.630964 208.657614 
L 309.376914 208.455817 
L 309.249734 208.377211 
L 309.168462 208.339558 
" clip-path="url(#p72ddc05cf4)" style="fill: none; stroke: #708090; stroke-width: 1.5"/>
    <path d="M 309.168462 208.339558 
L 309.125839 208.272225 
L 309.1003 208.132862 
L 309.04922 207.841466 
L 308.972636 207.58175 
L 308.867355 207.331543 
L 308.790798 207.20486 
L 308.583438 206.764626 
L 308.411185 206.476422 
L 308.21342 206.178722 
L 307.999721 205.925369 
L 307.782838 205.697357 
L 307.569156 205.529526 
L 307.301266 205.364873 
L 306.998302 205.209731 
L 306.676214 205.095769 
L 306.287154 204.943812 
L 306.04478 204.807661 
L 305.690796 204.655697 
L 305.368704 204.52273 
L 305.132713 204.411918 
" clip-path="url(#p72ddc05cf4)" style="fill: none; stroke: #708090; stroke-width: 1.5"/>
    <path d="M 309.168462 208.339558 
L 309.169555 208.402276 
L 309.169581 208.529002 
L 309.169625 208.741194 
L 309.166689 208.891498 
L 309.175602 208.950438 
L 309.226078 209.136096 
L 309.288414 209.283439 
L 309.365566 209.342366 
L 309.454595 209.44255 
L 309.555517 209.66651 
L 309.650508 209.908154 
L 309.781128 210.267676 
L 309.882042 210.45627 
L 310.042287 210.603594 
L 310.250015 210.809849 
L 310.475546 211.021996 
L 310.576433 211.075023 
L 310.718853 211.110359 
L 310.85533 211.098543 
L 310.962126 211.033684 
L 311.080798 211.004189 
L 311.19948 211.027741 
L 311.294443 211.127924 
L 311.35974 211.245796 
L 311.454693 211.298824 
L 311.614924 211.381311 
L 311.751424 211.481485 
L 311.899794 211.593445 
L 312.02443 211.711304 
L 312.137198 211.829166 
L 312.202487 211.911672 
L 312.327112 211.976483 
L 312.534814 212.053066 
L 312.825582 212.094266 
L 313.187565 212.170817 
L 313.525812 212.247373 
L 314.036158 212.400519 
L 314.439691 212.541899 
L 314.772037 212.777601 
L 314.939343 213.060721 
L 314.958905 213.333798 
" clip-path="url(#p72ddc05cf4)" style="fill: none; stroke: #708090; stroke-width: 1.5"/>
    <path d="M 324.939053 202.456882 
L 325.062153 202.753154 
L 325.154122 202.961847 
L 325.213271 203.222724 
L 325.32494 203.437934 
L 325.430019 203.542268 
L 325.515393 203.613995 
L 325.574509 203.711816 
L 325.587668 203.842258 
L 325.541742 204.018368 
L 325.449866 204.253188 
L 325.39737 204.409732 
L 325.397394 204.527133 
L 325.42368 204.631483 
L 325.476245 204.80105 
L 325.476264 204.892361 
L 325.384365 205.022825 
L 325.069247 205.28378 
L 324.924845 205.531655 
L 324.452197 206.066577 
L 324.032075 206.588443 
L 323.927072 206.849354 
L 323.913983 207.058068 
L 323.914043 207.345046 
L 324.032278 207.566778 
L 324.25558 207.827621 
L 324.597095 208.20584 
L 324.859777 208.388408 
L 325.10935 208.688379 
L 325.201357 209.079694 
L 325.227686 209.392756 
L 325.306581 209.88843 
L 325.306667 210.305853 
L 325.201717 210.827653 
L 325.083597 211.166834 
L 324.847301 211.571261 
L 324.492804 211.923535 
L 324.151415 212.158405 
L 323.770611 212.301972 
L 323.297884 212.458603 
L 322.903945 212.589128 
L 322.680698 212.589174 
L 322.496853 212.615301 
L 322.470605 212.693573 
L 322.470639 212.863151 
L 322.588861 213.01966 
L 322.667686 213.176177 
L 322.746528 213.410962 
L 322.720306 213.619678 
L 322.641579 213.945806 
L 322.379013 214.324149 
" clip-path="url(#p72ddc05cf4)" style="fill: none; stroke: #708090; stroke-width: 1.5"/>
    <path d="M 322.379013 214.324149 
L 322.227245 214.386057 
L 322.038636 214.40253 
L 321.816936 214.409149 
L 321.545589 214.359901 
L 321.24115 214.3008 
L 320.992974 214.29099 
L 320.758037 214.297611 
L 320.599214 214.333799 
L 320.417242 214.44559 
L 320.179025 214.590262 
L 319.997057 214.718487 
L 319.825008 214.807268 
L 319.656261 214.863179 
L 319.474285 214.948675 
L 319.31879 215.083469 
L 319.113667 215.251141 
L 318.829124 215.395822 
L 318.577666 215.5142 
L 318.273262 215.626016 
L 318.074723 215.626056 
L 317.843082 215.56694 
L 317.677604 215.422351 
L 317.631252 215.290885 
L 317.498866 215.159437 
L 317.313543 215.060869 
L 317.10176 215.021469 
L 316.777441 214.830897 
L 316.539151 214.614012 
L 316.20158 214.344557 
L 315.850761 214.015941 
L 315.751462 213.871339 
L 315.645546 213.726738 
L 315.460217 213.601875 
L 315.261668 213.549326 
L 315.162387 213.490182 
L 315.049865 213.41132 
L 314.958905 213.333798 
" clip-path="url(#p72ddc05cf4)" style="fill: none; stroke: #708090; stroke-width: 1.5"/>
    <path d="M 314.958905 213.333798 
L 314.754129 213.286894 
L 314.53308 213.223452 
L 314.229465 213.101831 
L 313.715447 212.887668 
L 313.363884 212.70786 
L 313.086898 212.580943 
L 312.863197 212.570407 
L 312.650175 212.686844 
L 312.522373 212.813843 
L 312.447841 212.983157 
L 312.405262 213.131302 
L 312.4479 213.268848 
L 312.543794 213.385221 
L 312.575783 213.543932 
L 312.554507 213.681491 
L 312.437357 213.808489 
L 312.128449 213.850876 
L 311.457339 213.776945 
L 310.956674 213.745303 
L 310.285588 213.787765 
L 309.465402 213.988973 
L 308.804971 214.042013 
L 308.027371 214.126821 
L 307.52586 214.135263 
L 307.240652 214.178908 
L 306.988368 214.287925 
L 306.620902 214.407862 
" clip-path="url(#p72ddc05cf4)" style="fill: none; stroke: #708090; stroke-width: 1.5"/>
    <path d="M 306.620902 214.407862 
L 306.414333 214.380551 
L 306.209377 214.177047 
L 305.783724 213.879643 
L 305.484173 213.582215 
L 305.121591 213.378743 
L 304.837847 213.300514 
L 304.601397 213.25359 
L 304.301913 213.284965 
L 304.049717 213.316331 
L 303.734458 213.285081 
L 303.576803 213.144197 
L 303.576774 213.003281 
L 303.671293 212.721429 
L 303.907694 212.533493 
L 304.238678 212.376852 
L 304.522399 212.345479 
L 304.743076 212.345434 
L 304.83763 212.235813 
L 304.837563 211.907009 
L 304.474938 211.499992 
L 303.607842 210.764273 
L 302.851139 210.294708 
L 302.062924 209.887779 
L 301.684595 209.762597 
L 301.322035 209.668728 
L 301.101343 209.590486 
L 300.927944 209.54355 
L 300.833333 209.371339 
L 300.817525 209.152139 
L 300.691402 209.042564 
L 300.517991 208.932998 
L 300.313028 208.69818 
L 300.155379 208.588611 
L 299.966212 208.510364 
L 299.714 208.463443 
L 299.319932 208.447867 
L 298.988923 208.47925 
L 298.736715 208.447987 
L 298.594832 208.354072 
L 298.421386 208.072276 
L 298.137595 207.759188 
L 297.932648 207.602657 
L 297.522789 207.446168 
L 296.908038 207.399323 
L 296.450922 207.399417 
L 295.962298 207.477804 
L 295.647062 207.556155 
L 295.331823 207.618849 
L 294.96929 207.650238 
L 294.764367 207.603308 
L 294.543672 207.50941 
" clip-path="url(#p72ddc05cf4)" style="fill: none; stroke: #708090; stroke-width: 1.5"/>
    <path d="M 306.620902 214.407862 
L 306.414368 214.552782 
L 306.177934 214.584145 
L 305.846918 214.584212 
L 305.689276 214.505957 
L 305.389772 214.443389 
L 305.13757 214.44344 
L 304.838082 214.459158 
L 304.538617 214.584478 
L 304.349501 214.756747 
L 304.239197 214.929 
L 304.081608 215.11692 
L 303.656049 215.27358 
L 303.388106 215.383236 
L 303.135919 215.461574 
L 302.867954 215.461628 
L 302.536926 215.399066 
L 302.174382 215.383482 
L 301.84337 215.399206 
L 301.118317 215.540269 
L 300.33023 215.759631 
L 299.683981 215.853706 
L 298.91166 216.088722 
L 298.423054 216.261051 
L 297.824116 216.464717 
L 297.351313 216.840588 
L 297.099165 217.106813 
L 296.941602 217.41999 
L 296.84708 217.686184 
L 296.752549 217.905405 
L 296.610736 218.15595 
L 296.327034 218.281266 
L 296.137924 218.484849 
L 295.885772 218.735416 
L 295.759712 218.938986 
L 295.617896 219.173874 
" clip-path="url(#p72ddc05cf4)" style="fill: none; stroke: #708090; stroke-width: 1.5"/>
    <path d="M 295.617896 219.173874 
L 295.471189 219.039704 
L 295.159735 218.986948 
L 294.833098 218.979468 
L 294.445688 218.95691 
L 294.141828 218.896607 
L 293.936733 218.904194 
L 293.76963 218.972136 
L 293.594926 219.009898 
L 293.405017 218.9873 
L 293.169508 218.85153 
L 293.025156 218.730832 
L 292.956762 218.587482 
L 292.812403 218.429057 
L 292.554105 218.293291 
L 292.303421 218.240523 
L 292.067942 218.255662 
L 291.916022 218.270783 
L 291.748927 218.376452 
L 291.543855 218.49722 
L 291.331174 218.557626 
L 291.202047 218.595379 
L 290.989351 218.580331 
L 290.784242 218.520009 
L 290.594326 218.459684 
L 290.465176 218.384255 
L 290.343598 218.188099 
L 290.275191 217.984386 
L 290.100431 217.742968 
L 289.971269 217.607176 
L 289.826913 217.463842 
L 289.674963 217.3356 
L 289.47744 217.222459 
L 289.295119 217.154587 
L 289.128006 217.169711 
L 288.869736 217.169763 
L 288.634245 217.116992 
L 288.353176 217.064231 
L 288.132865 216.951094 
L 287.950514 216.739859 
L 287.806148 216.543707 
L 287.623805 216.370199 
L 287.35032 216.257073 
L 287.016054 216.083596 
L 286.621024 215.932767 
L 286.438708 215.895077 
L 286.248779 215.766843 
L 286.104423 215.62351 
L 285.89931 215.540551 
L 285.504293 215.457631 
L 285.177634 215.336971 
L 284.744617 215.155968 
L 284.455936 215.020209 
L 284.159671 214.944815 
L 283.863408 214.876966 
L 283.597527 214.801566 
L 283.400027 214.801606 
L 283.210116 214.763917 
L 283.06577 214.665856 
L 283.058145 214.522495 
L 283.012514 214.258415 
L 282.89092 213.97926 
L 282.830096 213.707638 
L 282.784461 213.420922 
L 282.776805 213.126653 
L 282.791961 212.94556 
L 282.829911 212.794644 
L 282.867844 212.560729 
L 282.837394 212.236283 
L 282.822154 212.002379 
L 282.784106 211.670389 
L 282.768891 211.557211 
" clip-path="url(#p72ddc05cf4)" style="fill: none; stroke: #708090; stroke-width: 1.5"/>
    <path d="M 295.617896 219.173874 
L 295.707355 219.464215 
L 295.850596 219.646442 
L 296.029638 219.824216 
L 296.181834 220.028667 
L 296.275859 220.264247 
L 296.347515 220.530948 
L 296.437058 220.730966 
L 296.56239 220.868744 
L 296.687716 220.975405 
L 296.875676 220.993149 
L 297.233675 220.930844 
L 297.466371 220.868564 
L 297.922824 220.806239 
L 298.271886 220.806169 
L 298.629899 220.806097 
L 298.835737 220.708261 
L 299.104223 220.59263 
L 299.363764 220.503673 
L 299.605419 220.485843 
L 299.847087 220.530248 
L 300.070866 220.636889 
L 300.312578 220.903557 
L 300.473735 221.16135 
L 300.599082 221.374697 
L 300.83183 221.570242 
L 301.189878 221.747981 
L 301.655354 222.041276 
L 302.013413 222.272358 
L 302.326729 222.547902 
L 302.425227 222.770146 
L 302.595323 222.965703 
L 302.747506 223.107922 
L 302.926533 223.205682 
L 303.123447 223.241205 
L 303.284555 223.250063 
L 303.499368 223.276692 
L 303.741039 223.338878 
L 304.099088 223.516617 
L 304.466093 223.721026 
L 304.851009 223.978776 
L 305.22699 224.316541 
L 305.585055 224.574296 
L 306.131091 224.903138 
L 306.792092 225.132399 
L 307.169497 225.330158 
L 307.347728 225.486308 
" clip-path="url(#p72ddc05cf4)" style="fill: none; stroke: #708090; stroke-width: 1.5"/>
    <path d="M 307.347728 225.486308 
L 307.453458 225.33822 
L 307.453442 225.256598 
L 307.526462 225.156824 
L 307.67253 225.093312 
L 307.992054 224.957213 
L 308.293336 224.911808 
L 308.530717 224.911761 
L 308.72246 224.975206 
L 308.914202 225.029582 
L 309.087672 225.029548 
L 309.24287 224.966034 
L 309.297643 224.929747 
L 309.370664 224.829973 
L 309.452807 224.693921 
L 309.589732 224.566927 
L 309.909229 224.294792 
L 310.183053 223.904769 
L 310.429468 223.424061 
L 310.794559 222.870776 
L 310.96795 222.471704 
L 311.031828 222.308448 
L 311.077434 222.090782 
L 311.168715 221.991004 
L 311.296524 221.936564 
L 311.460858 221.900255 
L 311.661699 221.800455 
L 312.045099 221.492031 
L 312.273303 221.25619 
L 312.47412 221.038492 
L 312.684087 220.920553 
L 312.903198 220.866094 
L 313.158837 220.856974 
L 313.405347 220.847855 
L 313.624459 220.802466 
L 313.807054 220.775222 
L 314.418728 220.57558 
L 314.747388 220.466685 
L 315.368184 220.230765 
L 316.13505 219.940401 
L 316.518478 219.768011 
L 316.737576 219.650069 
L 316.874503 219.532144 
L 317.093595 219.386994 
L 317.349208 219.241838 
L 317.878715 219.060349 
L 318.262147 218.906098 
L 318.526893 218.779077 
L 318.782505 218.63392 
L 319.083767 218.479685 
L 319.43981 218.334508 
L 319.923634 217.989785 
L 320.316141 217.563459 
L 320.58083 217.155297 
L 320.872928 216.837819 
L 321.311085 216.411483 
L 321.685349 216.066782 
L 321.959197 215.803723 
L 322.096108 215.604175 
L 322.214751 215.368355 
L 322.169047 215.10536 
L 322.152991 214.824337 
L 322.280613 214.607478 
L 322.379013 214.324149 
" clip-path="url(#p72ddc05cf4)" style="fill: none; stroke: #708090; stroke-width: 1.5"/>
    <path d="M 307.347728 225.486308 
L 307.481469 226.008617 
L 307.94702 226.768003 
L 308.329411 227.263239 
L 308.794929 227.857522 
L 309.011103 228.336281 
L 309.110884 228.600427 
L 309.443355 228.814997 
L 310.357594 229.112004 
L 311.039104 229.260464 
L 311.604276 229.474988 
L 311.920139 229.755603 
L 312.103047 230.118796 
L 312.418911 230.399411 
L 312.734745 230.531433 
L 312.884377 230.729529 
L 312.834603 231.19183 
L 312.93443 231.687124 
L 313.333442 232.182359 
L 314.264372 232.826084 
L 314.696625 233.304802 
L 315.211982 233.766994 
L 316.026529 234.245638 
L 316.392257 234.526244 
L 316.724736 234.773836 
L 317.107057 234.905845 
L 317.622321 234.889234 
L 318.087701 234.77357 
L 318.519838 234.657913 
L 319.301037 234.591718 
L 319.633465 234.575143 
L 319.882791 234.591605 
" clip-path="url(#p72ddc05cf4)" style="fill: none; stroke: #708090; stroke-width: 1.5"/>
    <path d="M 332.775863 201.293981 
L 332.998785 201.431234 
L 333.255553 201.671183 
L 333.547569 201.966125 
L 333.759052 202.286085 
L 333.990652 202.52604 
L 334.544491 203.160932 
L 334.927169 203.72086 
L 335.772993 204.500694 
L 336.115343 204.780626 
L 336.618851 205.44053 
L 337.041877 206.380456 
L 337.4649 207.300381 
L 337.545547 207.820373 
L 337.565848 208.62038 
L 337.747364 210.080365 
L 338.089887 211.200311 
L 338.593406 211.920218 
L 339.197578 212.540103 
L 340.043398 213.299941 
L 340.909261 213.619768 
L 341.251632 213.999704 
L 341.493324 214.359661 
L 341.594105 214.879649 
L 341.634501 215.499651 
L 341.755384 215.859632 
L 342.057444 216.039574 
L 342.278964 216.219531 
L 342.621314 216.499466 
L 342.903263 216.799414 
L 343.1852 217.03936 
L 343.587963 217.359284 
L 343.688706 217.699269 
L 343.789487 218.219258 
L 343.829838 218.619257 
L 343.890279 218.799248 
L 343.991002 219.039231 
L 343.991051 219.279236 
L 344.011239 219.539236 
L 343.910613 219.779261 
L 343.789808 219.799286 
L 343.628733 219.819319 
L 343.507965 220.019347 
L 343.588553 220.259335 
L 344.01143 220.479253 
L 344.494707 220.679158 
L 344.877282 220.739082 
L 345.13908 220.959033 
L 345.501597 221.398968 
L 345.843931 221.598902 
L 346.508414 221.758771 
L 347.112457 221.738648 
L 347.515143 221.678565 
L 347.998385 221.698468 
L 348.320527 221.618401 
L 348.803786 221.718305 
L 349.085699 221.83825 
" clip-path="url(#p72ddc05cf4)" style="fill: none; stroke: #708090; stroke-width: 1.5"/>
   </g>
   <g id="patch_3">
    <path d="M 82.216312 307.584 
L 82.216312 41.472 
" style="fill: none; stroke: #000000; stroke-width: 0.8; stroke-linejoin: miter; stroke-linecap: square"/>
   </g>
   <g id="patch_4">
    <path d="M 390.103688 307.584 
L 390.103688 41.472 
" style="fill: none; stroke: #000000; stroke-width: 0.8; stroke-linejoin: miter; stroke-linecap: square"/>
   </g>
   <g id="patch_5">
    <path d="M 82.216312 307.584 
L 390.103688 307.584 
" style="fill: none; stroke: #000000; stroke-width: 0.8; stroke-linejoin: miter; stroke-linecap: square"/>
   </g>
   <g id="patch_6">
    <path d="M 82.216312 41.472 
L 390.103688 41.472 
" style="fill: none; stroke: #000000; stroke-width: 0.8; stroke-linejoin: miter; stroke-linecap: square"/>
   </g>
  </g>
 </g>
 <defs>
  <clipPath id="p72ddc05cf4">
   <rect x="82.216312" y="41.472" width="307.887376" height="266.112"/>
  </clipPath>
 </defs>
</svg>
