<?xml version="1.0" encoding="UTF-8" standalone="no"?>
<!-- Created with Inkscape (http://www.inkscape.org/) -->

<svg
   xmlns:dc="http://purl.org/dc/elements/1.1/"
   xmlns:cc="http://creativecommons.org/ns#"
   xmlns:rdf="http://www.w3.org/1999/02/22-rdf-syntax-ns#"
   xmlns:svg="http://www.w3.org/2000/svg"
   xmlns="http://www.w3.org/2000/svg"
   xmlns:sodipodi="http://sodipodi.sourceforge.net/DTD/sodipodi-0.dtd"
   xmlns:inkscape="http://www.inkscape.org/namespaces/inkscape"
   width="257.07034mm"
   height="286.5784mm"
   viewBox="0 0 910.87917 1015.4353"
   id="svg2"
   version="1.1"
   inkscape:version="0.91 r13725"
   sodipodi:docname="flower.svg">
  <defs
     id="defs4" />
  <sodipodi:namedview
     id="base"
     pagecolor="#ffffff"
     bordercolor="#666666"
     borderopacity="0"
     inkscape:pageopacity="0.0"
     inkscape:pageshadow="2"
     inkscape:zoom="0.51398311"
     inkscape:cx="463.79596"
     inkscape:cy="404.85954"
     inkscape:document-units="px"
     inkscape:current-layer="layer1"
     showgrid="false"
     inkscape:window-width="1215"
     inkscape:window-height="1000"
     inkscape:window-x="65"
     inkscape:window-y="24"
     inkscape:window-maximized="1"
     showborder="true"
     borderlayer="true"
     fit-margin-top="0"
     fit-margin-left="0"
     fit-margin-right="0"
     fit-margin-bottom="0" />
  <metadata
     id="metadata7">
    <rdf:RDF>
      <cc:Work
         rdf:about="">
        <dc:format>image/svg+xml</dc:format>
        <dc:type
           rdf:resource="http://purl.org/dc/dcmitype/StillImage" />
        <dc:title />
      </cc:Work>
    </rdf:RDF>
  </metadata>
  <g
     inkscape:label="Layer 1"
     inkscape:groupmode="layer"
     id="layer1"
     transform="translate(83.187213,87.337939)">
    <ellipse
       style="fill:#ffffff;fill-opacity:1;stroke:#000000;stroke-width:19.39999962;stroke-miterlimit:4;stroke-dasharray:none;stroke-opacity:1"
       id="path4398"
       cx="372.25235"
       cy="420.3797"
       rx="445.73956"
       ry="498.01764" />
    <path
       style="fill:#000000;fill-opacity:1"
       d="m 356.67207,699.7719 0,-149.83846 -16.48999,2.78597 c -9.06948,1.53228 -25.16503,1.48508 -35.76786,-0.10481 -38.9486,-5.8407 -65.28219,-48.70724 -60.4994,-98.48266 l 1.92808,-20.06603 -25.26629,6.36458 c -42.46325,10.69645 -78.33347,-3.81498 -95.11389,-38.47873 -11.49559,-23.74668 -12.24184,-74.22514 -1.41397,-95.64233 7.03997,-13.92477 7.02902,-15.23035 -0.24589,-29.31028 -6.09657,-11.79933 -7.3257,-22.28867 -6.16702,-52.63005 1.60399,-42.00068 9.13985,-57.80202 35.26789,-73.95003 15.88692,-9.81865 61.95451,-11.21393 82.85528,-2.50948 l 13.5485,5.64245 0,-38.93976 c 0,-37.288724 -0.12597,-50.625547 17.94767,-59.00555 l 16.00209,-7.419508 39.69469,-6.05973 c 39.33783,-6.005252 48.75083,-0.04291 55.33492,5.915544 7.31485,6.619842 8.38993,6.629742 15.55755,0.143154 6.18092,-5.5937 16.82193,-6.968138 53.94719,-6.968138 45.04104,0 46.52765,0.301881 56.98824,11.578544 14.45043,15.577506 20.30733,34.88435 20.30733,66.941704 0,29.30949 -0.31704,29.06065 27.96599,21.93887 28.59712,-7.20083 59.75632,2.59301 76.93538,19.77207 l 13.76207,37.85537 -7.44297,87.77567 c 16.09989,52.41581 6.07064,120.06681 -2.60278,131.09348 -16.69313,21.2219 -55.50051,28.80374 -97.52386,19.05333 l -16.2736,-3.77585 2.50559,15.66913 c 1.37805,8.61801 0.69112,26.81752 -1.52652,40.44331 -3.25554,20.00287 -7.04055,27.85519 -19.65273,40.77123 -8.59136,8.79834 -22.16902,18.15814 -30.17258,20.79955 -16.25403,5.36433 -58.36934,2.50817 -65.30639,-4.42888 -2.44896,-2.44897 -5.96842,-4.4527 -7.82098,-4.4527 -1.85257,0 -3.19744,26.99906 -2.98857,59.99789 0.29851,47.19083 1.27279,56.88513 4.56362,45.41539 5.73899,-20.0024 17.66566,-35.72067 35.43883,-46.70508 13.27376,-8.20363 18.63016,-8.95122 47.29138,-6.60023 101.81928,8.35187 106.70209,8.37616 121.13671,0.6026 15.75439,-8.4843 26.97082,-6.2077 26.97082,5.47428 0,24.35926 -23.45528,59.22774 -60.83804,90.44155 -25.94545,21.66386 -51.80279,25.93107 -113.89259,18.79563 -46.20581,-5.31004 -46.31382,-5.34899 -46.16792,-16.647 0.0956,-7.40886 -2.45196,-12.00395 -7.36816,-13.28954 -7.03099,-1.83868 -7.51439,3.56214 -7.51439,83.95348 l 0,85.91855 -18.94669,0 -18.94669,0 0,-149.83848 z m 25.26227,-16.7199 c 0,-101.546 -1.4328,-153.04172 -4.21038,-151.32508 -5.77647,3.57007 -5.77647,305.25232 0,305.25232 2.73013,0 4.21038,-54.11601 4.21038,-153.92724 z m 7.36204,-74.4857 c -0.68675,-42.26165 -1.24862,-7.68394 -1.24862,76.83938 0,84.52331 0.56187,119.10104 1.24862,76.83937 0.68676,-42.26165 0.68676,-111.41708 0,-153.67875 z m 141.42985,81.30697 c 10.81199,-4.11071 66.87787,-57.87504 73.80441,-70.77466 3.65654,-6.80979 1.16939,-7.26358 -32.47889,-5.92578 -20.04127,0.79678 -53.24623,-0.82207 -73.78888,-3.59746 l -37.35017,-5.04619 -16.94908,12.01823 c -9.32203,6.61 -20.4938,18.64953 -24.82618,26.7545 l -7.87713,14.73632 10.59926,1.33225 c 8.96527,1.12687 10.59929,3.51983 10.59929,15.52214 0,12.85387 1.28836,14.34981 13.68373,15.88802 27.68494,3.43571 74.48088,2.93367 84.58364,-0.90737 z m 50.1484,-83.33725 c -9.84175,-0.88642 -25.94644,-0.88642 -35.7882,0 -9.84175,0.88645 -1.78941,1.61173 17.8941,1.61173 19.68351,0 27.73585,-0.72528 17.8941,-1.61173 z m -69.55891,-3.67129 c -1.39907,-1.39905 -5.03053,-1.54861 -8.0699,-0.33219 -3.35875,1.34404 -2.36109,2.34173 2.54377,2.54374 4.43842,0.18273 6.92518,-0.8123 5.52613,-2.21137 z m -33.59531,-4.56892 c -4.05249,-1.059 -10.68384,-1.059 -14.73633,0 -4.05248,1.05903 -0.73681,1.92553 7.36816,1.92553 8.10498,0 11.42065,-0.8665 7.36817,-1.92553 z M 365.09282,533.83212 c 0,-2.31571 -0.83551,-4.21037 -1.85669,-4.21037 -1.02118,0 -3.02767,1.89466 -4.45887,4.21037 -1.43119,2.3157 -0.59568,4.21038 1.85669,4.21038 2.45238,0 4.45887,-1.89468 4.45887,-4.21038 z m 93.81613,-1.60315 c 7.45164,-3.19744 20.17982,-12.77272 28.2848,-21.27843 14.40522,-15.11749 14.76912,-16.35855 16.19534,-55.23694 l 1.45902,-39.77203 13.62768,0 c 7.49524,0 24.20883,2.12502 37.14139,4.72223 20.54996,4.12701 25.54035,3.729 39.59265,-3.15779 8.8434,-4.33398 20.49894,-14.51134 25.90119,-22.61633 8.84532,-13.27068 9.56955,-17.87696 7.28172,-46.31415 -3.19762,-39.74532 -3.1921,-72.82928 0.0211,-115.96602 l 2.52101,-33.86369 -16.68665,-18.76602 -16.68846,-18.76602 -44.65702,1.23608 -44.65703,1.23612 0,-26.92267 c 0,-33.50328 -5.88472,-51.656401 -22.44245,-69.230413 -11.83053,-12.556614 -15.02485,-13.68373 -38.7814,-13.68373 -20.5418,0 -27.46294,1.739219 -33.50963,8.420754 -10.6691,11.789219 -44.0658,11.789219 -54.73489,0 -6.07638,-6.71433 -12.96785,-8.420754 -34.00748,-8.420754 -25.6233,0 -26.80855,0.492744 -40.96225,17.028103 -17.48271,20.424631 -20.59893,33.56369 -17.04066,71.8495 l 2.6965,29.01295 -16.93195,0 c -9.31255,0 -23.73377,-2.84201 -32.0472,-6.31557 -20.29646,-8.48042 -34.90137,-7.95181 -50.73903,1.83639 -32.54129,20.11162 -44.64781,60.20418 -28.34738,93.87642 11.30166,23.34608 11.30878,37.83626 0.0294,61.13517 -16.70781,34.51381 -1.31611,79.63877 32.66403,95.76343 13.99192,6.63959 19.08568,6.99524 39.57513,2.76322 12.93404,-2.67149 29.59061,-4.85721 37.0147,-4.85721 l 13.49834,0 -0.675,32.63041 c -0.79594,38.474 3.03459,49.62785 24.05446,70.04202 21.08,20.47267 44.93449,21.40257 66.36426,2.58698 19.41955,-17.05062 39.12997,-17.14461 57.19135,-0.27282 7.27633,6.7971 17.42373,13.17043 22.54976,14.16294 5.12603,0.99252 9.85456,2.06258 10.50789,2.37794 0.65329,0.31536 7.28464,-2.04271 14.73632,-5.24016 z M 340.9101,407.0277 c -15.54988,-4.4908 -39.52162,-26.81951 -50.39428,-46.94036 -10.41492,-19.27376 -10.21278,-71.03684 0.36545,-93.61415 17.8901,-38.18277 43.98694,-52.68208 94.55979,-52.53726 45.94911,0.13179 69.66351,11.94098 90.53642,45.08544 9.74702,15.47752 11.21619,22.2553 11.21619,51.74486 0,49.05374 -14.94921,75.45808 -52.62972,92.95821 -18.52452,8.60349 -69.12183,10.38805 -93.65393,3.30326 z m 76.81243,-20.14476 c 33.98986,-15.7861 49.26141,-39.40914 49.26141,-76.20079 0,-36.79166 -15.27155,-60.41469 -49.26141,-76.20079 -21.63211,-10.04676 -47.15029,-10.08074 -70.17477,-0.0934 -31.75592,13.77472 -49.82097,42.17505 -49.82097,78.32442 0,33.79606 25.80309,68.21989 58.58137,78.15339 18.92591,5.7355 43.9891,4.11014 61.41437,-3.9828 z m 59.62853,-60.41189 c -1.16799,-2.89462 -2.12367,-0.52629 -2.12367,5.26299 0,5.78926 0.95568,8.15759 2.12367,5.26297 1.168,-2.89464 1.168,-7.63132 0,-10.52596 z m 0,-42.10376 c -1.16799,-2.89463 -2.12367,-0.5263 -2.12367,5.26297 0,5.78928 0.95568,8.15761 2.12367,5.26297 1.168,-2.89463 1.168,-7.6313 0,-10.52594 z m -83.8382,-65.11873 c -6.36818,-0.96473 -16.78888,-0.96473 -23.15706,0 -6.3682,0.96467 -1.15786,1.75399 11.57854,1.75399 12.73638,0 17.94672,-0.78932 11.57852,-1.75399 z m 1.0526,301.95242 c 0,-2.3157 -5.21034,-4.02149 -11.57854,-3.79067 l -11.57854,0.41976 10.52596,3.371 c 5.78925,1.85404 10.99961,3.55989 11.57852,3.79069 0.57893,0.23073 1.0526,-1.47499 1.0526,-3.79069 z m -166.30988,191.7196 c -2.31571,-0.85968 -11.14107,-2.71869 -19.6119,-4.13114 -11.3734,-1.89645 -23.21116,-9.97064 -45.26155,-30.87169 -16.42302,-15.567 -29.86004,-30.04838 -29.86004,-32.18081 0,-2.13242 -2.86385,-7.04169 -6.36415,-10.90946 -3.50028,-3.86779 -6.81596,-14.43764 -7.36815,-23.48861 -1.11993,-18.3563 -1.20501,-18.33306 43.20495,-11.80525 10.42069,1.53174 43.39391,0.30019 73.27378,-2.73654 l 54.32711,-5.52152 19.35448,10.22426 c 15.27852,8.07108 21.76444,15.10106 30.79789,33.38134 13.32171,26.95803 14.68101,41.15808 4.34553,45.3972 -4.24654,1.74179 -7.36815,7.48154 -7.36815,13.54807 0,9.48195 -2.08802,10.78056 -21.0519,13.09301 -35.8714,4.37421 -84.00096,7.64087 -88.4179,6.00114 z m -27.36745,-16.47344 c 0,-0.87428 -3.31567,-4.18996 -7.36816,-7.36816 -6.67792,-5.23716 -6.82683,-5.08823 -1.58967,1.58968 5.50031,7.01343 8.95783,9.24379 8.95783,5.77848 z m 89.93546,-5.29817 c 18.83711,-2.58193 19.53433,-3.18305 19.53433,-16.8415 0,-11.35712 1.66874,-14.16405 8.42076,-14.16405 4.63142,0 8.41367,-2.36833 8.405,-5.26298 -0.0337,-11.4697 -17.38464,-32.74439 -33.34453,-40.88654 -14.98136,-7.64288 -20.01698,-8.1377 -45.42673,-4.46359 -15.71768,2.27268 -46.93825,4.16971 -69.37909,4.21555 l -40.80147,0.0834 5.75724,11.09708 c 7.1101,13.70481 54.83897,59.87846 66.95614,64.77446 10.76821,4.35091 53.1009,5.11837 79.87835,1.44819 z m -119.4081,-19.82704 c 0,-0.79896 -4.26301,-5.06196 -9.47334,-9.47335 l -9.47335,-8.02073 8.02072,9.47335 c 7.5375,8.9026 10.92597,11.39008 10.92597,8.02073 z m 155.78393,-46.45119 c 0,-0.87429 -3.31567,-4.18996 -7.36815,-7.36815 -6.67791,-5.23717 -6.82683,-5.08825 -1.58967,1.58965 5.5003,7.01345 8.95782,9.24381 8.95782,5.7785 z m -125.2587,-18.33472 c -9.84175,-0.88642 -25.94644,-0.88642 -35.78819,0 -9.84177,0.88645 -1.78942,1.61173 17.89409,1.61173 19.68351,0 27.73585,-0.72528 17.8941,-1.61173 z m 46.39427,-3.88926 c -2.85055,-1.1533 -8.53456,-1.22348 -12.63113,-0.1562 -4.09657,1.06751 -1.76428,2.01114 5.18285,2.09694 6.94711,0.0859 10.29884,-0.7876 7.44828,-1.94094 z m 29.39251,-4.23706 c -2.89462,-1.16801 -7.6313,-1.16801 -10.52594,0 -2.89463,1.168 -0.52629,2.12368 5.26298,2.12368 5.78927,0 8.1576,-0.95568 5.26296,-2.12368 z"
       id="path3347"
       inkscape:connector-curvature="0"
       sodipodi:nodetypes="ccssscssssssscsscssssssscccsscsssssssssssssscsscccccsssssssssssscsscsssssssscccccssssssssscsscsssssccccccsssssssscsssscssscsssssccccsssssscccsssssccsssssssssssssscscsssssssssscssssssssssssscssscssssscssssssscsscscccsssss" />
    <path
       style="fill:#000000;fill-opacity:1;stroke:#000000;stroke-width:2.91838384;stroke-miterlimit:4;stroke-dasharray:none;stroke-opacity:1"
       d="m 106.16477,650.43164 c -3.74526,-0.50852 -8.261244,-1.39957 -10.035525,-1.98011 -9.478798,-3.10143 -45.092603,-35.78028 -62.753305,-57.58177 -3.83521,-4.73442 -10.385108,-15.87981 -10.385108,-17.67142 0,-0.28278 13.368525,-0.51414 29.707834,-0.51414 33.932062,0 56.232704,-1.12928 79.245164,-4.0129 9.62365,-1.20591 19.39888,-1.85672 24.4114,-1.62524 7.40877,0.34213 9.33636,0.85442 16.93638,4.50117 16.96681,8.14125 31.8893,23.70992 36.05546,37.61677 1.44616,4.8274 1.43819,4.88043 -1.06111,7.05276 -1.52843,1.32849 -3.7928,2.18879 -5.761,2.18879 -6.51152,0 -9.22484,5.02976 -9.27186,17.18754 -0.0127,3.30022 -0.29513,6.70904 -0.62749,7.57514 -1.97963,5.15882 -17.06496,7.41916 -52.41303,7.85339 -14.98103,0.18403 -30.30255,-0.0815 -34.04781,-0.58998 z"
       id="path4388"
       inkscape:connector-curvature="0"
       transform="translate(116.36485,41.218052)" />
    <path
       style="fill:#000000;fill-opacity:1;stroke:#000000;stroke-width:2.91838384;stroke-miterlimit:4;stroke-dasharray:none;stroke-opacity:1"
       d="m 343.52666,650.3714 c -15.37903,-1.0967 -21.91217,-2.37395 -24.28627,-4.74805 -1.57423,-1.57423 -2.07295,-3.79367 -2.59351,-11.54178 -0.93079,-13.85397 -1.82875,-14.99668 -13.0313,-16.58316 -3.57691,-0.50655 -6.70449,-1.12201 -6.95016,-1.36769 -0.65689,-0.65689 5.2218,-11.97814 9.4266,-18.15386 5.28923,-7.76846 16.49739,-18.41365 28.17531,-26.76011 5.60811,-4.00823 10.64232,-7.28739 11.18714,-7.28702 0.54482,3.8e-4 8.87021,1.1027 18.50088,2.44961 35.32567,4.94051 45.55363,5.62689 85.31386,5.72529 27.58929,0.0683 37.95463,0.40083 38.79875,1.24478 1.86833,1.86795 -2.60334,8.32553 -15.41235,22.25708 -11.70299,12.72859 -36.2943,35.97306 -47.9006,45.27713 -3.47774,2.78789 -8.13965,5.87598 -10.3598,6.86242 -7.62735,3.3889 -42.20078,4.66969 -70.86855,2.62536 z"
       id="path4390"
       inkscape:connector-curvature="0"
       transform="translate(116.36485,41.218052)" />
    <path
       style="fill:#000000;fill-opacity:0.40880504;stroke:#000000;stroke-width:2.91838384;stroke-miterlimit:4;stroke-dasharray:none;stroke-opacity:1"
       d="m 261.10665,792.92308 c -3.09521,-4.80384 -4.58981,-222.02676 -1.88961,-274.63309 2.10295,-40.97052 3.63372,-33.7943 5.03747,23.6155 1.21033,49.49948 1.17047,150.09847 -0.0793,200.04498 -1.0099,40.36096 -1.77005,52.98796 -3.06859,50.97261 z"
       id="path4392"
       inkscape:connector-curvature="0"
       transform="translate(116.36485,41.218052)" />
    <path
       style="fill:#000000;fill-opacity:0.36477986;stroke:#000000;stroke-width:2.91838384;stroke-miterlimit:4;stroke-dasharray:none;stroke-opacity:1"
       d="m 319.69603,493.81717 c -7.97658,-2.08803 -16.12123,-6.95731 -25.79107,-15.41916 -3.16648,-2.77092 -8.61849,-6.42247 -12.11558,-8.11454 -5.61205,-2.71541 -7.32886,-3.07598 -14.6271,-3.07199 -10.09275,0.006 -16.63317,2.31759 -25.41272,8.98357 -21.78535,16.54076 -31.93844,19.67486 -47.83346,14.76539 -8.68047,-2.68113 -16.25634,-8.00703 -26.56434,-18.67497 -10.0941,-10.44657 -14.1465,-16.97833 -17.16504,-27.66709 -2.02649,-7.17587 -2.15716,-9.54961 -2.15512,-39.15075 l 0.002,-31.51171 -14.12494,0.61211 c -8.0707,0.34975 -19.96235,1.66064 -27.74405,3.05841 -24.660755,4.4296 -28.95828,4.85894 -35.031529,3.49981 -7.917457,-1.7719 -21.47295,-8.90013 -27.97421,-14.71051 -15.20569,-13.58982 -24.075571,-33.81949 -24.044779,-54.83931 0.01763,-12.03397 1.609084,-19.0694 7.354166,-32.5109 5.373702,-12.57261 7.19,-19.85433 7.208996,-28.90156 0.01831,-8.72192 -1.747708,-15.41388 -7.905474,-29.95613 -2.850325,-6.73136 -5.543068,-14.99229 -6.366804,-19.53239 -5.543954,-30.55599 10.765777,-62.47175 39.09292,-76.49911 14.425048,-7.14316 22.459061,-7.21438 42.901904,-0.38031 15.96426,5.33687 26.74223,7.23941 41.01155,7.23941 l 11.18541,0 -0.62729,-6.56636 c -3.84363,-40.233588 -4.1813,-50.117793 -2.10927,-61.738062 2.29342,-12.861828 8.77317,-24.144057 21.79418,-37.947018 10.31283,-10.932136 10.44073,-10.971467 35.65383,-10.963833 24.03095,0.0073 25.08227,0.234178 33.33765,7.19512 7.70381,6.495861 12.67169,8.170484 25.68552,8.658325 14.9939,0.562066 22.03547,-1.413624 30.46073,-8.546528 3.20296,-2.711655 7.58054,-5.466483 9.72795,-6.12184 2.53778,-0.774492 10.88452,-1.191557 23.84667,-1.191557 23.99243,0 25.44471,0.452214 35.92702,11.187052 19.14964,19.610987 24.35595,37.027132 24.37793,81.549061 l 0.009,16.85814 6.07997,-0.53624 c 3.34398,-0.29493 17.89942,-0.77232 32.34542,-1.06086 14.446,-0.28853 31.73743,-0.78798 38.42539,-1.10986 l 12.15993,-0.58526 13.69201,15.43101 c 7.53061,8.48705 15.05499,16.99025 16.72084,18.89602 l 3.02883,3.465 -1.92358,24.25964 c -2.46624,31.10358 -3.42514,84.03496 -1.91102,105.48799 2.03855,28.88343 2.39242,45.90373 1.06908,51.42003 -3.26467,13.60866 -20.89479,31.90254 -37.48572,38.89698 -11.28556,4.7578 -12.31688,4.75723 -40.37098,-0.0225 -10.78512,-1.8375 -22.2823,-3.10163 -31.37262,-3.44945 l -14.34872,-0.54904 0,5.38198 c 0,12.44296 -2.0293,55.3548 -2.97337,62.87537 -1.25207,9.97408 -3.60377,15.17817 -10.06087,22.26377 -14.27266,15.6619 -26.61113,24.47993 -41.347,29.54981 -6.19806,2.13245 -4.69538,2.15495 -13.71155,-0.20523 l -4.4e-4,4e-5 z M 289.3317,369.31859 c 24.75998,-2.6849 43.60396,-11.2181 58.23651,-26.37147 11.12997,-11.52615 16.83686,-22.92304 20.9049,-41.74798 1.9276,-8.91999 2.19632,-13.00444 2.23518,-33.97245 0.0503,-27.14639 -0.63994,-31.28586 -7.26459,-43.56753 -11.26275,-20.88041 -26.99622,-36.21843 -44.41088,-43.29464 -13.93433,-5.66202 -28.02309,-7.78914 -51.38414,-7.75797 -25.93777,0.0346 -41.54636,3.08747 -57.19126,11.1859 -14.40619,7.45724 -29.33425,24.5874 -36.56694,41.9611 -5.49288,13.1945 -7.26342,24.81122 -7.28476,47.7963 -0.0287,30.89156 2.77345,41.24661 15.86185,58.61624 11.23477,14.90965 30.47054,30.66227 41.27911,33.80441 13.90256,4.04158 44.69378,5.61346 65.58502,3.34809 z"
       id="path4394"
       inkscape:connector-curvature="0"
       transform="translate(116.36485,41.218052)" />
  </g>
</svg>
