<?xml version="1.0" encoding="UTF-8" standalone="no"?>
<!-- Created with Inkscape (http://www.inkscape.org/) -->

<svg
   xmlns:dc="http://purl.org/dc/elements/1.1/"
   xmlns:cc="http://creativecommons.org/ns#"
   xmlns:rdf="http://www.w3.org/1999/02/22-rdf-syntax-ns#"
   xmlns:svg="http://www.w3.org/2000/svg"
   xmlns="http://www.w3.org/2000/svg"
   xmlns:sodipodi="http://sodipodi.sourceforge.net/DTD/sodipodi-0.dtd"
   xmlns:inkscape="http://www.inkscape.org/namespaces/inkscape"
   width="42.575237mm"
   height="63.137142mm"
   viewBox="0 0 150.85714 223.71428"
   id="svg2"
   version="1.1"
   inkscape:version="0.91 r13725"
   sodipodi:docname="rappel.svg">
  <defs
     id="defs4" />
  <sodipodi:namedview
     id="base"
     pagecolor="#ffffff"
     bordercolor="#666666"
     borderopacity="1.0"
     inkscape:pageopacity="0.0"
     inkscape:pageshadow="2"
     inkscape:zoom="2.8"
     inkscape:cx="22.695743"
     inkscape:cy="135.01148"
     inkscape:document-units="px"
     inkscape:current-layer="layer1"
     showgrid="false"
     fit-margin-top="0"
     fit-margin-left="0"
     fit-margin-right="0"
     fit-margin-bottom="0"
     inkscape:window-width="1215"
     inkscape:window-height="1000"
     inkscape:window-x="65"
     inkscape:window-y="24"
     inkscape:window-maximized="1" />
  <metadata
     id="metadata7">
    <rdf:RDF>
      <cc:Work
         rdf:about="">
        <dc:format>image/svg+xml</dc:format>
        <dc:type
           rdf:resource="http://purl.org/dc/dcmitype/StillImage" />
        <dc:title></dc:title>
      </cc:Work>
    </rdf:RDF>
  </metadata>
  <g
     inkscape:label="Layer 1"
     inkscape:groupmode="layer"
     id="layer1"
     transform="translate(-467.1839,-637.32154)">
    <rect
       style="fill:#ffffff;fill-opacity:1;stroke:#000000;stroke-width:3.03613615;stroke-miterlimit:4;stroke-dasharray:none;stroke-opacity:1"
       id="rect4314"
       width="147.821"
       height="220.67815"
       x="468.70197"
       y="638.8396" />
    <path
       style="fill:#000000"
       d="m 467.96959,749.03587 0,-110.5 41.25,-0.0318 c 22.6875,-0.0175 44.4,-0.16578 48.25,-0.32958 l 7,-0.29783 -0.2928,29.35822 c -0.2532,25.38851 -0.0842,29.56683 1.25,30.90101 1.78783,1.78782 1.91661,3.60974 0.58369,8.25738 -0.6408,2.23433 -0.59108,4.93866 0.14981,8.14836 0.9605,4.16111 1.50244,4.88283 4.04904,5.39215 1.61707,0.32341 4.8663,1.44006 7.22052,2.48145 3.787,1.67517 4.87171,2.98704 9.41007,11.38078 2.82132,5.21805 5.12967,10.15277 5.12967,10.96605 0,1.93455 -11.4292,18.62615 -12.99978,21.12787 -0.8982,1.43072 -1.00022,9.08168 -1.00022,48.26834 0,29.58504 -0.34802,45.37756 -1,45.37756 -0.65187,0 -1,-15.68016 -1,-45.04049 0,-44.1828 0.71761,-48.6301 -2.09938,-47.88006 -2.85112,0.75913 -2.16186,-5.91969 -0.41307,-7.067 2.73797,-1.79626 0.0574,-10.01245 -1.14862,-10.01245 -0.26037,0 -3.03064,2.61382 -6.15616,5.80849 l -5.68277,5.80849 -14,3.34389 -14,3.3439 -10.81774,9.91809 c -10.04326,9.20801 -11.07865,9.89514 -14.46207,9.59761 l -3.64432,-0.32047 -1.6913,10 c -1.40467,8.30531 -4.02491,31.30197 -6.52304,57.25 l -0.50544,5.25 -13.42805,0 -13.42804,0 0,-110.5 z m 68.27906,5.46434 10.0714,-2.53566 -5.528,-2.89428 -5.528,-2.89428 -8.39723,7.29713 c -11.60134,10.08147 -12.44736,10.58876 -15.409,9.23934 -2.2776,-1.03774 -2.48919,-0.87432 -3.37687,2.60815 -2.96675,11.63891 -3.39107,11.57587 7.86827,1.16895 l 10.22802,-9.45369 z m 44.61581,-12.16077 c -1.13903,-2.1283 -1.19662,-2.1099 -3.97072,1.2684 -2.01988,2.45982 -2.66288,4.13413 -2.27659,5.92803 1.42418,6.61384 1.50561,6.62622 4.50977,0.68514 2.41522,-4.7764 2.70235,-6.07882 1.73754,-7.88157 z m -58.24921,-1.30357 c 5.40352,-4.675 10.73127,-8.49665 11.83946,-8.49256 1.10818,0.004 5.60042,2.05545 9.98275,4.55859 l 7.96786,4.55116 5.73863,-6.3086 c 3.15625,-3.46972 5.75821,-6.60121 5.78214,-6.95885 0.0239,-0.35764 -2.21589,-1.19228 -4.97738,-1.85475 -7.29879,-1.75095 -7.57007,-2.87447 -3.91334,-16.20731 1.7027,-6.20822 3.73446,-11.78729 4.51502,-12.39792 1.16339,-0.91012 1.41272,-5.86706 1.38324,-27.5 l -0.036,-26.38976 -2.50542,3 c -8.08486,9.68084 -20.03654,30.56692 -28.03936,49 -6.79222,15.64466 -19.52278,53.5 -17.99179,53.5 0.23628,0 4.85065,-3.825 10.25416,-8.5 z m 42.33903,-23.25 c -0.008,-0.4125 -0.45153,-1.425 -0.98469,-2.25 -0.78387,-1.21296 -0.97231,-1.06944 -0.98469,0.75 -0.008,1.2375 0.43469,2.25 0.98469,2.25 0.55,0 0.99311,-0.3375 0.98469,-0.75 z m 19.01531,4.0189 c -3.51444,-1.22645 -5.99981,-4.6384 -5.9682,-8.19321 0.0467,-5.25431 3.82757,-9.07569 8.97938,-9.07569 3.24241,0 7.98882,5.26835 7.98882,8.86731 0,5.19913 -6.3277,10.0321 -11,8.40159 z"
       id="path3347"
       inkscape:connector-curvature="0"
       sodipodi:nodetypes="ccsscsssssssssssssssscccsscsscccccccccssssccsssssccscscsssscssscccscscsssss" />
  </g>
</svg>
