<?xml version="1.0" encoding="UTF-8" standalone="no"?>
<svg
   xmlns:dc="http://purl.org/dc/elements/1.1/"
   xmlns:cc="http://creativecommons.org/ns#"
   xmlns:rdf="http://www.w3.org/1999/02/22-rdf-syntax-ns#"
   xmlns:svg="http://www.w3.org/2000/svg"
   xmlns="http://www.w3.org/2000/svg"
   xmlns:sodipodi="http://sodipodi.sourceforge.net/DTD/sodipodi-0.dtd"
   xmlns:inkscape="http://www.inkscape.org/namespaces/inkscape"
   width="221.13338mm"
   version="1.2"
   height="179.44498mm"
   viewBox="0 0 2611.8116 2119.4322"
   id="svg5130"
   inkscape:version="0.91 r13725"
   sodipodi:docname="CCinLosCed.svg"
   inkscape:export-filename="/home/daniel/Desktop/CCinLosCed.png"
   inkscape:export-xdpi="90"
   inkscape:export-ydpi="90">
  <metadata
     id="metadata5506">
    <rdf:RDF>
      <cc:Work
         rdf:about="">
        <dc:format>image/svg+xml</dc:format>
        <dc:type
           rdf:resource="http://purl.org/dc/dcmitype/StillImage" />
        <dc:title></dc:title>
      </cc:Work>
    </rdf:RDF>
  </metadata>
  <sodipodi:namedview
     pagecolor="#f1f4c7"
     bordercolor="#666666"
     borderopacity="1"
     objecttolerance="10"
     gridtolerance="10"
     guidetolerance="10"
     inkscape:pageopacity="1"
     inkscape:pageshadow="2"
     inkscape:window-width="1301"
     inkscape:window-height="744"
     id="namedview5504"
     showgrid="false"
     fit-margin-top="0"
     fit-margin-left="-20"
     fit-margin-right="-40"
     fit-margin-bottom="0"
     inkscape:zoom="0.59500049"
     inkscape:cx="510.4808"
     inkscape:cy="254.94987"
     inkscape:window-x="65"
     inkscape:window-y="280"
     inkscape:window-maximized="1"
     inkscape:current-layer="Layer 8" />
  <defs
     id="defs5132" />
  <defs
     id="defs5153" />
  <defs
     id="defs5190" />
  <defs
     id="defs5225" />
  <g
     inkscape:label="Layer 4"
     inkscape:groupmode="layer"
     id="Layer 4"
     sodipodi:insensitive="true"
     style="display:inline;fill:none;fill-rule:evenodd;stroke:#000000;stroke-width:1;stroke-linecap:square;stroke-linejoin:bevel"
     transform="translate(-170.00788,29.598435)">
    <g
       font-style="normal"
       font-weight="400"
       font-size="45.8333"
       id="g5228"
       style="font-style:normal;font-weight:400;font-size:45.83330154px;font-family:Ubuntu;fill:none;stroke:#000000;stroke-width:1;stroke-linecap:square;stroke-linejoin:bevel;stroke-opacity:1" />
    <g
       font-style="normal"
       font-weight="400"
       transform="matrix(11.8081,0,0,11.8081,212.545,165.313)"
       font-size="45.8333"
       id="g5230"
       style="font-style:normal;font-weight:400;font-size:45.83330154px;font-family:Ubuntu;fill:none;stroke:#000000;stroke-width:1;stroke-linecap:square;stroke-linejoin:bevel;stroke-opacity:1" />
    <g
       font-style="normal"
       font-weight="400"
       transform="matrix(11.8081,0,0,11.8081,212.545,165.313)"
       font-size="45.8333"
       id="g5232"
       style="font-style:normal;font-weight:400;font-size:45.83330154px;font-family:Ubuntu;fill:none;stroke:#000000;stroke-width:1;stroke-linecap:square;stroke-linejoin:bevel;stroke-opacity:1" />
    <g
       font-style="normal"
       font-weight="400"
       transform="matrix(0.999751,0,0,0.999751,212.545,165.313)"
       font-size="45.8333"
       id="g5234"
       style="font-style:normal;font-weight:400;font-size:45.83330154px;font-family:Ubuntu;fill:#000000;fill-opacity:0;stroke:none">
      <path
         vector-effect="non-scaling-stroke"
         d="m 0,0 2764,0 0,1925 L 0,1925 0,0"
         id="path5236"
         inkscape:connector-curvature="0"
         style="fill-rule:evenodd" />
    </g>
    <g
       font-style="normal"
       font-weight="400"
       transform="matrix(0.999751,0,0,0.999751,212.545,165.313)"
       font-size="45.8333"
       id="g5238"
       style="font-style:normal;font-weight:400;font-size:45.83330154px;font-family:Ubuntu;fill:#02bd5a;fill-opacity:1;stroke:#000000;stroke-width:3.07086992;stroke-linecap:square;stroke-linejoin:bevel;stroke-opacity:1">
      <path
         vector-effect="none"
         d="m -276.416,-193.424 3317.356,0.958 -0.4,1514.106 -13.45,-19.44 -45.34,-41.54 -33.99,0 -60.42,-7.55 -37.76,-26.45 -22.67,-45.3 -7.55,-45.32 -15.12,-71.77 26.45,-105.751 -34,-11.319 -49.1,33.999 -37.75,30.201 -22.66,41.55 -56.66,7.55 -60.43,-11.33 -37.76,-3.77 -18.88,-45.32 -34,-41.561 -56.64,22.68 -60.43,30.201 -37.77,37.77 -67.99,22.65 -67.83,-12.04 -128.56,-25.73 -113.3,-22.65 -94.42,-18.882 -71.75,18.882 -18.89,75.54 -45.32,75.53 -45.31,15.11 -49.11,26.44 -56.65,11.32 -18.88,64.22 -26.44,49.09 -56.63,-11.32 -60.45,11.32 -11.32,-41.54 41.54,-60.45 18.88,-64.19 56.65,-71.75 60.44,-71.75 37.76,-52.9 0,-37.768 18.89,-67.958 30.2,-45.345 45.33,3.795 0,-64.202 -15.11,-49.101 -45.32,-79.304 18.88,-56.665 45.32,-64.19 71.77,-94.419 -26.45,-86.869 -18.88,-56.665 -15.11,-56.638 -49.1,-56.665 -22.65,-30.217 -11.33,-64.1893 15.1,-64.2026 -15.1,-56.6517 -57.72,-7.9117 -17.82,57.0125 -18.87,60.4071 -49.11,56.6647 0,79.318 7.55,75.536 52.88,79.304 -15.11,60.434 -56.66,64.189 -41.53,60.447 -15.12,71.754 -7.55,49.087 0,71.767 0,83.073 -18.88,60.447 -52.8,0.802 -49.13,3.502 -45.36,3.247 3.78,52.856 22.67,30.217 22.65,33.999 -18.88,30.213 -67.99,0 -86.87,-3.78 -98.19,-22.664 -79.313,-7.537 -101.971,-22.68 -79.304,3.796 -75.536,-3.796 -94.419,-26.421 -90.638,-7.551 -90.65,-11.346 -113.29,-33.986 -79.318,-52.87 -75.536,-60.433 -56.6515,-67.985 -67.9713,7.564 -75.5356,67.971 -83.0996,45.332 -49.088,49.101 -75.535,67.972 -14.245,9.972"
         id="path5240"
         inkscape:connector-curvature="0"
         style="fill-rule:evenodd" />
    </g>
    <g
       font-style="normal"
       font-weight="400"
       transform="matrix(0.999751,0,0,0.999751,212.545,165.313)"
       font-size="45.8333"
       id="g5242"
       style="font-style:normal;font-weight:400;font-size:45.83330154px;font-family:Ubuntu;fill:#02bd5a;fill-opacity:1;stroke:#000000;stroke-width:3.07086992;stroke-linecap:square;stroke-linejoin:bevel;stroke-opacity:1" />
    <g
       font-style="normal"
       font-weight="400"
       transform="matrix(0.31992,0,0,0.31992,585.446,631.783)"
       font-size="45.8333"
       id="g5244"
       style="font-style:normal;font-weight:400;font-size:45.83330154px;font-family:Ubuntu;fill:#02bd5a;fill-opacity:1;stroke:#000000;stroke-width:3.07086992;stroke-linecap:square;stroke-linejoin:bevel;stroke-opacity:1" />
    <g
       font-style="normal"
       font-weight="400"
       transform="matrix(0.999751,0,0,0.999751,585.446,631.783)"
       font-size="45.8333"
       id="g5246"
       style="font-style:normal;font-weight:400;font-size:45.83330154px;font-family:Ubuntu;fill:#000000;fill-opacity:1;stroke:none">
      <path
         vector-effect="non-scaling-stroke"
         d="m 19.7344,-32.2031 c 3.8021,0 6.6927,0.789 8.6718,2.3672 1.9792,1.5781 2.9688,3.6692 2.9688,6.2734 0,1.1667 -0.1615,2.2813 -0.4844,3.3437 -0.3229,1.0626 -0.8281,2.0443 -1.5156,2.9454 -0.6875,0.901 -1.5755,1.7057 -2.6641,2.414 -1.0885,0.7084 -2.4036,1.2917 -3.9453,1.75 0.4063,0.7084 0.8386,1.5599 1.2969,2.5547 0.4583,0.9948 0.9323,2.06772 1.4219,3.21876 0.4896,1.15104 0.9661,2.35417 1.4297,3.60938 0.4635,1.25521 0.8776,2.49739 1.2421,3.72656 l -6.0937,0 c -0.375,-1.10417 -0.763,-2.22396 -1.1641,-3.35938 -0.401,-1.13541 -0.8151,-2.23177 -1.2422,-3.28906 -0.427,-1.05729 -0.8645,-2.05468 -1.3124,-2.99218 -0.448,-0.93748 -0.8907,-1.77088 -1.3282,-2.49998 -0.2708,0.0312 -0.6067,0.0468 -1.0078,0.0468 -0.401,0 -0.7526,0 -1.0547,0 l -2.6719,0 L 9.39062,0 3.59375,0 11.0938,-31.4219 c 1.4687,-0.3021 2.9609,-0.5078 4.4765,-0.6172 1.5156,-0.1093 2.9037,-0.164 4.1641,-0.164 m 5.75,9.2969 c 0,-1.6876 -0.612,-2.8464 -1.836,-3.4766 -1.2239,-0.6302 -2.8672,-0.9453 -4.9296,-0.9453 -0.4271,0 -0.8855,0.0156 -1.375,0.0469 -0.4896,0.0312 -0.9792,0.0781 -1.4688,0.1406 l -2.4844,10.3906 2.5782,0 c 1.375,0 2.6458,-0.1146 3.8124,-0.3438 1.1667,-0.2291 2.1719,-0.5885 3.0157,-1.0781 0.8437,-0.4896 1.5026,-1.125 1.9765,-1.9062 0.474,-0.7813 0.711,-1.724 0.711,-2.8281 m 7.6875,14.2187 c 0,-2.0625 0.3281,-4.0521 0.9843,-5.9687 0.6563,-1.9167 1.6068,-3.6172 2.8516,-5.1016 1.2448,-1.4844 2.7396,-2.6719 4.4844,-3.5625 1.7448,-0.8906 3.7057,-1.3359 5.8828,-1.3359 2.3333,0 4.1432,0.5963 5.4297,1.789 1.2864,1.1927 1.9297,2.7266 1.9297,4.6016 0,1.9375 -0.474,3.5026 -1.4219,4.6953 -0.9479,1.1927 -2.1823,2.1276 -3.7031,2.8047 -1.5209,0.6771 -3.2396,1.138 -5.1563,1.38279 -1.9166,0.24479 -3.8541,0.39843 -5.8125,0.46093 -0.0312,0.0625 -0.0468,0.125 -0.0468,0.1875 l 0,0.45313 c 0,2.79167 1.7656,4.1875 5.2968,4.1875 2.0834,0 4.1667,-0.42708 6.25,-1.28125 l 0.4688,4.5 c -0.7396,0.333333 -1.7839,0.669271 -3.1328,1.007812 -1.349,0.338542 -2.8828,0.507813 -4.6016,0.507813 -1.7188,0 -3.1927,-0.244792 -4.4219,-0.734375 -1.2291,-0.489583 -2.2343,-1.16406 -3.0156,-2.02344 -0.7813,-0.85937 -1.3542,-1.84896 -1.7187,-2.96875 -0.3646,-1.11979 -0.5469,-2.32031 -0.5469,-3.60156 m 13.375,-11.4219 c -0.9167,0 -1.7891,0.1849 -2.6172,0.5547 -0.8281,0.3698 -1.5651,0.8776 -2.2109,1.5235 -0.6459,0.6458 -1.2058,1.4036 -1.6797,2.2734 -0.474,0.8698 -0.8151,1.8151 -1.0235,2.8359 3.6771,-0.125 6.3516,-0.5703 8.0235,-1.3359 1.6718,-0.7656 2.5078,-1.9193 2.5078,-3.461 0,-0.6041 -0.224,-1.1536 -0.6719,-1.6484 -0.4479,-0.4948 -1.224,-0.7422 -2.3281,-0.7422 m 16.5156,16.20315 c 1.4687,0 2.6328,-0.23958 3.4922,-0.71875 0.8594,-0.47917 1.2891,-1.20833 1.2891,-2.1875 0,-0.79167 -0.2761,-1.42708 -0.8282,-1.90625 -0.5521,-0.47917 -1.5208,-1.03646 -2.9062,-1.67185 -0.7292,-0.3438 -1.4089,-0.6979 -2.0391,-1.0625 -0.6302,-0.3646 -1.1745,-0.7943 -1.6328,-1.2891 -0.4583,-0.4948 -0.8255,-1.0703 -1.1016,-1.7266 -0.276,-0.6562 -0.414,-1.4479 -0.414,-2.375 0,-2.3854 0.8724,-4.2838 2.6172,-5.6953 1.7448,-1.4114 4.2734,-2.1171 7.5859,-2.1171 1.5312,0 2.9036,0.1614 4.1172,0.4843 1.2135,0.3229 2.1276,0.6511 2.7422,0.9844 L 74,-18.8594 c -0.5208,-0.3125 -1.2708,-0.6146 -2.25,-0.9062 -0.9792,-0.2917 -2.0052,-0.4375 -3.0781,-0.4375 -0.5209,0 -1.0339,0.0469 -1.5391,0.1406 -0.5052,0.0937 -0.9583,0.2474 -1.3594,0.4609 -0.401,0.2136 -0.7317,0.5131 -0.9922,0.8985 -0.2604,0.3854 -0.3906,0.8541 -0.3906,1.4062 0,0.7084 0.2839,1.2839 0.8516,1.7266 0.5677,0.4427 1.388,0.9088 2.4609,1.3984 1.0104,0.4584 1.8698,0.9037 2.5781,1.336 0.7084,0.4323 1.2917,0.9166 1.75,1.4531 0.4584,0.5364 0.7943,1.1328 1.0079,1.78905 0.2135,0.65625 0.3203,1.44792 0.3203,2.375 0,1.13542 -0.2292,2.1849 -0.6875,3.14844 -0.4584,0.96354 -1.125,1.79166 -2,2.48437 -0.875,0.692711 -1.9558,1.236982 -3.2422,1.632815 -1.2865,0.395833 -2.7578,0.59375 -4.4141,0.59375 -1.1354,0 -2.1562,-0.075521 -3.0625,-0.226563 -0.9062,-0.151041 -1.6979,-0.3255203 -2.375,-0.523437 -0.6771,-0.197917 -1.2448,-0.40625 -1.7031,-0.625 -0.4583,-0.21875 -0.8125,-0.401045 -1.0625,-0.546875 l 1.9844,-4.375 c 0.2187,0.125 0.5338,0.28646 0.9453,0.48437 0.4114,0.19792 0.8854,0.38803 1.4219,0.57032 0.5364,0.18229 1.1354,0.34375 1.7968,0.48437 0.6615,0.14063 1.362,0.21094 2.1016,0.21094 M 77.3594,-8.6875 c 0,-2.0625 0.3281,-4.0521 0.9844,-5.9687 0.6562,-1.9167 1.6067,-3.6172 2.8515,-5.1016 1.2448,-1.4844 2.7396,-2.6719 4.4844,-3.5625 1.7448,-0.8906 3.7057,-1.3359 5.8828,-1.3359 2.3333,0 4.1432,0.5963 5.4297,1.789 1.2864,1.1927 1.9297,2.7266 1.9297,4.6016 0,1.9375 -0.474,3.5026 -1.4219,4.6953 -0.9479,1.1927 -2.1823,2.1276 -3.7031,2.8047 -1.5209,0.6771 -3.2396,1.138 -5.1563,1.38279 -1.9166,0.24479 -3.8541,0.39843 -5.8125,0.46093 -0.0312,0.0625 -0.0469,0.125 -0.0469,0.1875 l 0,0.45313 c 0,2.79167 1.7657,4.1875 5.2969,4.1875 2.0834,0 4.1667,-0.42708 6.25,-1.28125 l 0.4688,4.5 c -0.7396,0.333333 -1.7839,0.669271 -3.1328,1.007812 -1.349,0.338542 -2.8829,0.507813 -4.6016,0.507813 -1.7187,0 -3.1927,-0.244792 -4.4219,-0.734375 -1.2291,-0.489583 -2.2344,-1.16406 -3.0156,-2.02344 -0.7812,-0.85937 -1.3542,-1.84896 -1.7188,-2.96875 -0.3645,-1.11979 -0.5468,-2.32031 -0.5468,-3.60156 m 13.375,-11.4219 c -0.9167,0 -1.7891,0.1849 -2.6172,0.5547 -0.8281,0.3698 -1.5651,0.8776 -2.211,1.5235 -0.6458,0.6458 -1.2057,1.4036 -1.6796,2.2734 -0.474,0.8698 -0.8151,1.8151 -1.0235,2.8359 3.6771,-0.125 6.3516,-0.5703 8.0235,-1.3359 1.6718,-0.7656 2.5078,-1.9193 2.5078,-3.461 0,-0.6041 -0.224,-1.1536 -0.6719,-1.6484 -0.4479,-0.4948 -1.224,-0.7422 -2.3281,-0.7422 m 27.3596,0.9688 c -0.604,-0.2084 -1.258,-0.375 -1.961,-0.5 -0.703,-0.125 -1.529,-0.1875 -2.477,-0.1875 -0.521,0 -1.073,0.039 -1.656,0.1172 -0.583,0.0781 -1.073,0.1744 -1.469,0.289 L 105.859,0 l -5.562,0 5.515,-22.9531 c 1.292,-0.4271 2.688,-0.8021 4.188,-1.125 1.5,-0.3229 3.125,-0.4844 4.875,-0.4844 0.375,0 0.792,0.0234 1.25,0.0703 0.458,0.0469 0.909,0.099 1.352,0.1563 0.442,0.0573 0.856,0.1328 1.242,0.2265 0.385,0.0938 0.713,0.2032 0.984,0.3282 l -1.609,4.6406 M 124.266,0 c -0.771,-3.125 -1.464,-6.75 -2.078,-10.875 -0.615,-4.125 -1.016,-8.5208 -1.204,-13.1875 l 5.704,0 c 0.031,1.3542 0.085,2.8125 0.164,4.375 0.078,1.5625 0.179,3.1328 0.304,4.7109 0.125,1.5782 0.274,3.1042 0.446,4.5782 0.171,1.47392 0.367,2.80986 0.586,4.00778 0.802,-1.04167 1.664,-2.29167 2.585,-3.74998 0.922,-1.4584 1.813,-2.9922 2.672,-4.6016 0.86,-1.6094 1.644,-3.2266 2.352,-4.8516 0.708,-1.625 1.276,-3.1145 1.703,-4.4687 l 5.797,0 c -0.729,2.1146 -1.649,4.2917 -2.758,6.5313 -1.109,2.2395 -2.31,4.4166 -3.601,6.5312 -1.292,2.11458 -2.62,4.125 -3.985,6.03125 -1.364,1.90625 -2.667,3.5625 -3.906,4.96875 l -4.781,0 m 38.89,-9.34375 c -0.083,0.34375 -0.172,0.89844 -0.265,1.66406 -0.094,0.76563 -0.141,1.48698 -0.141,2.16407 0,0.88541 0.076,1.75 0.227,2.59374 0.151,0.84376 0.398,1.69271 0.742,2.54688 l -4.969,0.75 c -0.365,-0.739583 -0.656,-1.52604 -0.875,-2.35938 -0.771,0.67709 -1.716,1.283859 -2.836,1.820318 -1.12,0.536458 -2.383,0.804687 -3.789,0.804687 -1.438,0 -2.672,-0.236979 -3.703,-0.7109375 -1.031,-0.4739585 -1.867,-1.1328075 -2.508,-1.9765675 -0.641,-0.84374 -1.115,-1.83333 -1.422,-2.96874 -0.307,-1.13542 -0.461,-2.35938 -0.461,-3.67188 0,-2.2396 0.399,-4.3255 1.196,-6.2578 0.796,-1.9323 1.908,-3.6042 3.336,-5.0156 1.427,-1.4115 3.122,-2.5235 5.085,-3.336 1.964,-0.8125 4.107,-1.2187 6.43,-1.2187 1.198,0 2.404,0.0989 3.617,0.2968 1.214,0.198 2.43,0.573 3.649,1.125 l -3.313,13.75005 m -3.015,-10.39065 c -0.584,-0.125 -1.245,-0.1875 -1.985,-0.1875 -1.375,0 -2.646,0.2995 -3.812,0.8985 -1.167,0.5989 -2.175,1.3958 -3.024,2.3906 -0.849,0.9948 -1.502,2.138 -1.961,3.4297 -0.458,1.2916 -0.687,2.6406 -0.687,4.04685 0,0.70833 0.062,1.36979 0.187,1.98437 0.125,0.61459 0.334,1.15105 0.625,1.60938 0.292,0.45833 0.683,0.82552 1.172,1.10156 0.49,0.27604 1.115,0.41406 1.875,0.41406 0.99,0 1.86,-0.20833 2.61,-0.625 0.75,-0.41666 1.448,-0.97395 2.093,-1.67187 0.032,-0.80208 0.099,-1.55469 0.204,-2.25781 0.104,-0.70313 0.25,-1.40884 0.437,-2.11724 l 2.266,-9.0156 M 178.922,0 l 7.625,-31.875 19.781,0 -1.14,4.8281 -14.047,0 -1.907,8 12.454,0 -1.157,4.7344 -12.375,0 -2.297,9.48438 15.094,0 L 199.797,0 178.922,0 m 27.172,-9.10938 c 0,-2.08332 0.328,-4.06772 0.984,-5.95312 0.656,-1.8854 1.599,-3.5417 2.828,-4.9687 1.229,-1.4271 2.732,-2.5547 4.508,-3.3829 1.776,-0.8281 3.8,-1.2421 6.07,-1.2421 1.198,0 2.295,0.0989 3.289,0.2968 0.995,0.1979 1.941,0.4948 2.836,0.8906 L 224.625,-19 c -0.552,-0.25 -1.164,-0.4661 -1.836,-0.6484 -0.672,-0.1823 -1.503,-0.2735 -2.492,-0.2735 -1.313,0 -2.498,0.2683 -3.555,0.8047 -1.057,0.5365 -1.956,1.2656 -2.695,2.1875 -0.74,0.9219 -1.307,2.0104 -1.703,3.2656 -0.396,1.2552 -0.594,2.5912 -0.594,4.00785 0,0.79167 0.083,1.51823 0.25,2.17969 0.167,0.66146 0.443,1.24479 0.828,1.75 0.386,0.50521 0.914,0.89583 1.586,1.17187 0.672,0.27604 1.513,0.41407 2.524,0.41407 1.052,0 2.059,-0.13803 3.023,-0.41407 0.963,-0.27604 1.706,-0.54948 2.227,-0.82031 l 0.468,4.546875 c -0.708,0.333333 -1.646,0.661458 -2.812,0.984375 -1.167,0.322917 -2.485,0.484375 -3.953,0.484375 -1.688,0 -3.146,-0.252604 -4.375,-0.757813 -1.23,-0.505208 -2.25,-1.195312 -3.063,-2.070312 -0.812,-0.875 -1.409,-1.90104 -1.789,-3.07812 -0.38,-1.17709 -0.57,-2.45834 -0.57,-3.84376 m 29.89,9.750005 c -2.854,0 -5.031,-0.84375 -6.531,-2.531245 -1.5,-1.6875 -2.25,-3.91146 -2.25,-6.67188 0,-1.7708 0.276,-3.6094 0.828,-5.5156 0.552,-1.9063 1.393,-3.6407 2.524,-5.2031 1.13,-1.5626 2.554,-2.849 4.273,-3.8594 1.719,-1.0104 3.745,-1.5156 6.078,-1.5156 2.854,0 5.032,0.8359 6.532,2.5078 1.5,1.6718 2.25,3.888 2.25,6.6484 0,1.8021 -0.269,3.6562 -0.805,5.5625 -0.537,1.90625 -1.365,3.64062 -2.485,5.20312 -1.119,1.5625 -2.544,2.84896 -4.273,3.85938 -1.729,1.010417 -3.776,1.515625 -6.141,1.515625 m 4.235,-20.609425 c -1.198,0 -2.266,0.3464 -3.203,1.0391 -0.938,0.6927 -1.719,1.5755 -2.344,2.6485 -0.625,1.0729 -1.107,2.2447 -1.445,3.5156 -0.339,1.2708 -0.508,2.5052 -0.508,3.7031 0,1.53125 0.291,2.74219 0.875,3.63281 0.583,0.89063 1.609,1.33594 3.078,1.33594 1.198,0 2.266,-0.34635 3.203,-1.03906 0.937,-0.69271 1.719,-1.56771 2.344,-2.625 0.625,-1.05729 1.107,-2.22917 1.445,-3.51559 0.339,-1.2865 0.508,-2.5131 0.508,-3.6797 0,-1.5313 -0.292,-2.75 -0.875,-3.6563 -0.583,-0.9062 -1.609,-1.3594 -3.078,-1.3594 m 20.969,20.421925 c -1.448,-0.03125 -2.67,-0.213542 -3.665,-0.546875 -0.994,-0.333333 -1.791,-0.791667 -2.39,-1.375 -0.599,-0.58333 -1.029,-1.27344 -1.289,-2.07031 -0.261,-0.79688 -0.391,-1.67448 -0.391,-2.63282 0,-0.97916 0.115,-2.01302 0.344,-3.10156 0.229,-1.08856 0.484,-2.16926 0.765,-3.24216 l 5.329,-22.2656 5.797,-0.9219 c -0.948,4.0208 -1.896,8.0156 -2.844,11.9843 -0.948,3.9688 -1.912,7.9636 -2.891,11.9844 -0.156,0.6459 -0.328,1.2839 -0.515,1.91409 -0.188,0.63021 -0.282,1.2526 -0.282,1.86719 0,0.52083 0.008,1.0026 0.024,1.44531 0.015,0.44271 0.138,0.82552 0.367,1.14843 0.229,0.32292 0.575,0.59115 1.039,0.80469 0.463,0.21354 1.06,0.35157 1.789,0.41407 l -1.187,4.593745 m 14.39,0.1875 c -2.854,0 -5.031,-0.84375 -6.531,-2.531245 -1.5,-1.6875 -2.25,-3.91146 -2.25,-6.67188 0,-1.7708 0.276,-3.6094 0.828,-5.5156 0.552,-1.9063 1.393,-3.6407 2.523,-5.2031 1.131,-1.5626 2.555,-2.849 4.274,-3.8594 1.719,-1.0104 3.745,-1.5156 6.078,-1.5156 2.854,0 5.031,0.8359 6.531,2.5078 1.5,1.6718 2.25,3.888 2.25,6.6484 0,1.8021 -0.268,3.6562 -0.804,5.5625 -0.537,1.90625 -1.365,3.64062 -2.485,5.20312 -1.12,1.5625 -2.544,2.84896 -4.273,3.85938 -1.729,1.010417 -3.776,1.515625 -6.141,1.515625 m 4.234,-20.609425 c -1.197,0 -2.265,0.3464 -3.203,1.0391 -0.937,0.6927 -1.718,1.5755 -2.343,2.6485 -0.625,1.0729 -1.107,2.2447 -1.446,3.5156 -0.338,1.2708 -0.508,2.5052 -0.508,3.7031 0,1.53125 0.292,2.74219 0.876,3.63281 0.583,0.89063 1.609,1.33594 3.078,1.33594 1.198,0 2.265,-0.34635 3.203,-1.03906 0.937,-0.69271 1.719,-1.56771 2.343,-2.625 0.626,-1.05729 1.107,-2.22917 1.446,-3.51559 0.338,-1.2865 0.508,-2.5131 0.508,-3.6797 0,-1.5313 -0.292,-2.75 -0.875,-3.6563 -0.584,-0.9062 -1.61,-1.3594 -3.079,-1.3594 m 5.422,-16.4687 3,3.7813 -8.703,5.8281 -2.25,-2.75 7.953,-6.8594 m 13.11,40.39062 c 2.271,0 3.979,-0.52083 5.125,-1.5625 1.146,-1.04166 1.922,-2.468745 2.328,-4.28124 l 0.141,-0.64063 c -0.615,0.3125 -1.352,0.59896 -2.211,0.85937 -0.86,0.26042 -1.763,0.39063 -2.711,0.39063 -2.709,0 -4.714,-0.72917 -6.016,-2.1875 -1.302,-1.45833 -1.953,-3.40104 -1.953,-5.82813 0,-2.20832 0.383,-4.24742 1.148,-6.11722 0.766,-1.8698 1.847,-3.4869 3.243,-4.8515 1.395,-1.3646 3.075,-2.4297 5.039,-3.1953 1.963,-0.7657 4.143,-1.1485 6.539,-1.1485 1.166,0 2.416,0.1302 3.75,0.3906 1.333,0.2605 2.536,0.6823 3.609,1.2657 L 311.5,-2.53125 c -0.427,1.8125 -0.971,3.416667 -1.633,4.8125 -0.661,1.39583 -1.528,2.5599 -2.601,3.49219 -1.073,0.93229 -2.399,1.64583 -3.977,2.14062 -1.578,0.49479 -3.487,0.74219 -5.727,0.74219 -1.624,0 -3.091,-0.17708 -4.398,-0.53125 -1.307,-0.35417 -2.45,-0.79167 -3.43,-1.3125 l 1.985,-4.51562 c 0.823,0.48958 1.778,0.88802 2.867,1.19531 1.088,0.30729 2.341,0.46093 3.758,0.46093 m 4.031,-9.75 c 0.833,0 1.685,-0.15364 2.555,-0.46093 0.869,-0.30729 1.596,-0.69011 2.179,-1.14844 l 2.969,-12.28125 c -0.708,-0.1563 -1.401,-0.2344 -2.078,-0.2344 -1.406,0 -2.685,0.2604 -3.836,0.7813 -1.151,0.5208 -2.141,1.2265 -2.969,2.1172 -0.828,0.8906 -1.474,1.927 -1.937,3.1093 -0.464,1.1823 -0.696,2.4453 -0.696,3.7891 0,1.35417 0.292,2.41406 0.876,3.17969 0.583,0.76562 1.562,1.14843 2.937,1.14843 M 323.266,0 l -5.516,0 5.75,-24.0625 5.562,0 L 323.266,0 m 4.14,-27.6875 c -0.823,0 -1.541,-0.2474 -2.156,-0.7422 -0.615,-0.4948 -0.922,-1.2318 -0.922,-2.2109 0,-1.1354 0.391,-2.0703 1.172,-2.8047 0.781,-0.7344 1.677,-1.1016 2.688,-1.1016 0.833,0 1.565,0.2526 2.195,0.7578 0.63,0.5052 0.945,1.2474 0.945,2.2266 0,1.1354 -0.401,2.0651 -1.203,2.7891 -0.802,0.7239 -1.708,1.0859 -2.719,1.0859 m 3.906,18.57812 c 0,-2.08332 0.329,-4.06772 0.985,-5.95312 0.656,-1.8854 1.599,-3.5417 2.828,-4.9687 1.229,-1.4271 2.732,-2.5547 4.508,-3.3829 1.776,-0.8281 3.799,-1.2421 6.07,-1.2421 1.198,0 2.294,0.0989 3.289,0.2968 0.995,0.1979 1.94,0.4948 2.836,0.8906 L 349.844,-19 c -0.552,-0.25 -1.164,-0.4661 -1.836,-0.6484 -0.672,-0.1823 -1.503,-0.2735 -2.492,-0.2735 -1.313,0 -2.498,0.2683 -3.555,0.8047 -1.057,0.5365 -1.956,1.2656 -2.695,2.1875 -0.74,0.9219 -1.308,2.0104 -1.704,3.2656 -0.395,1.2552 -0.593,2.5912 -0.593,4.00785 0,0.79167 0.083,1.51823 0.25,2.17969 0.166,0.66146 0.442,1.24479 0.828,1.75 0.385,0.50521 0.914,0.89583 1.586,1.17187 0.672,0.27604 1.513,0.41407 2.523,0.41407 1.052,0 2.06,-0.13803 3.024,-0.41407 0.963,-0.27604 1.705,-0.54948 2.226,-0.82031 l 0.469,4.546875 c -0.708,0.333333 -1.646,0.661458 -2.813,0.984375 -1.166,0.322917 -2.484,0.484375 -3.953,0.484375 -1.687,0 -3.145,-0.252604 -4.375,-0.757813 -1.229,-0.505208 -2.25,-1.195312 -3.062,-2.070312 -0.813,-0.875 -1.409,-1.90104 -1.789,-3.07812 -0.38,-1.17709 -0.571,-2.45834 -0.571,-3.84376 m 41.016,-0.23437 c -0.083,0.34375 -0.172,0.89844 -0.266,1.66406 -0.093,0.76563 -0.14,1.48698 -0.14,2.16407 0,0.88541 0.075,1.75 0.226,2.59374 0.151,0.84376 0.399,1.69271 0.743,2.54688 l -4.969,0.75 c -0.365,-0.739583 -0.656,-1.52604 -0.875,-2.35938 -0.771,0.67709 -1.716,1.283859 -2.836,1.820318 -1.12,0.536458 -2.383,0.804687 -3.789,0.804687 -1.438,0 -2.672,-0.236979 -3.703,-0.7109375 -1.031,-0.4739585 -1.867,-1.1328075 -2.508,-1.9765675 -0.641,-0.84374 -1.115,-1.83333 -1.422,-2.96874 -0.307,-1.13542 -0.461,-2.35938 -0.461,-3.67188 0,-2.2396 0.399,-4.3255 1.195,-6.2578 0.797,-1.9323 1.909,-3.6042 3.336,-5.0156 1.427,-1.4115 3.123,-2.5235 5.086,-3.336 1.964,-0.8125 4.107,-1.2187 6.43,-1.2187 1.198,0 2.404,0.0989 3.617,0.2968 1.214,0.198 2.43,0.573 3.649,1.125 l -3.313,13.75005 m -3.016,-10.39065 c -0.583,-0.125 -1.244,-0.1875 -1.984,-0.1875 -1.375,0 -2.646,0.2995 -3.812,0.8985 -1.167,0.5989 -2.175,1.3958 -3.024,2.3906 -0.849,0.9948 -1.502,2.138 -1.961,3.4297 -0.458,1.2916 -0.687,2.6406 -0.687,4.04685 0,0.70833 0.062,1.36979 0.187,1.98437 0.125,0.61459 0.334,1.15105 0.625,1.60938 0.292,0.45833 0.683,0.82552 1.172,1.10156 0.49,0.27604 1.115,0.41406 1.875,0.41406 0.99,0 1.859,-0.20833 2.609,-0.625 0.75,-0.41666 1.448,-0.97395 2.094,-1.67187 0.032,-0.80208 0.099,-1.55469 0.203,-2.25781 0.105,-0.70313 0.25,-1.40884 0.438,-2.11724 l 2.265,-9.0156 m 42.797,18.3594 c -1.02,0.520833 -2.312,0.994792 -3.875,1.421875 -1.562,0.427083 -3.463,0.640625 -5.703,0.640625 -1.958,0 -3.705,-0.299479 -5.242,-0.898438 -1.536,-0.598958 -2.841,-1.466142 -3.914,-2.601562 -1.073,-1.13542 -1.893,-2.5 -2.461,-4.09375 -0.568,-1.59375 -0.852,-3.38545 -0.852,-5.37495 0,-2.573 0.43,-5.0808 1.29,-7.5235 0.859,-2.4427 2.101,-4.6146 3.726,-6.5156 1.625,-1.9011 3.604,-3.4271 5.938,-4.5781 2.333,-1.1511 4.968,-1.7266 7.906,-1.7266 1.937,0 3.62,0.2161 5.047,0.6484 1.427,0.4323 2.677,0.9558 3.75,1.5704 l -2.219,4.6406 c -0.979,-0.5834 -2.029,-1.0365 -3.148,-1.3594 -1.12,-0.3229 -2.383,-0.4844 -3.79,-0.4844 -1.937,0 -3.671,0.4297 -5.203,1.2891 -1.531,0.8594 -2.841,1.987 -3.929,3.3828 -1.089,1.3958 -1.917,2.9844 -2.485,4.7656 -0.567,1.7813 -0.851,3.5886 -0.851,5.4219 0,2.85417 0.62,4.96354 1.859,6.32812 1.24,1.36459 3.057,2.04688 5.453,2.04688 1.844,0 3.409,-0.20573 4.696,-0.61719 1.286,-0.41146 2.388,-0.83073 3.304,-1.25781 l 0.703,4.875 m 12.516,2.015625 c -2.854,0 -5.031,-0.84375 -6.531,-2.531245 -1.5,-1.6875 -2.25,-3.91146 -2.25,-6.67188 0,-1.7708 0.276,-3.6094 0.828,-5.5156 0.552,-1.9063 1.393,-3.6407 2.523,-5.2031 1.131,-1.5626 2.555,-2.849 4.274,-3.8594 1.719,-1.0104 3.745,-1.5156 6.078,-1.5156 2.854,0 5.031,0.8359 6.531,2.5078 1.5,1.6718 2.25,3.888 2.25,6.6484 0,1.8021 -0.268,3.6562 -0.805,5.5625 -0.536,1.90625 -1.364,3.64062 -2.484,5.20312 -1.12,1.5625 -2.544,2.84896 -4.273,3.85938 -1.73,1.010417 -3.776,1.515625 -6.141,1.515625 m 4.234,-20.609425 c -1.198,0 -2.265,0.3464 -3.203,1.0391 -0.937,0.6927 -1.718,1.5755 -2.344,2.6485 -0.624,1.0729 -1.106,2.2447 -1.445,3.5156 -0.338,1.2708 -0.508,2.5052 -0.508,3.7031 0,1.53125 0.292,2.74219 0.875,3.63281 0.584,0.89063 1.61,1.33594 3.078,1.33594 1.198,0 2.266,-0.34635 3.204,-1.03906 0.937,-0.69271 1.718,-1.56771 2.343,-2.625 0.625,-1.05729 1.107,-2.22917 1.446,-3.51559 0.338,-1.2865 0.507,-2.5131 0.507,-3.6797 0,-1.5313 -0.291,-2.75 -0.874,-3.6563 -0.584,-0.9062 -1.61,-1.3594 -3.079,-1.3594 m 18.438,-10.4374 5.797,-0.9219 -1.766,7.2656 7.875,0 -1.094,4.6094 -7.89,0 -2.297,9.5156 c -0.146,0.67708 -0.248,1.23698 -0.305,1.67969 -0.057,0.44271 -0.086,0.85156 -0.086,1.22656 0,0.36458 0.037,0.72396 0.11,1.07813 0.073,0.35416 0.224,0.66145 0.453,0.92187 0.229,0.26042 0.567,0.47396 1.015,0.64063 0.448,0.16666 1.052,0.25 1.813,0.25 0.833,0 1.633,-0.10678 2.398,-0.32032 0.766,-0.21354 1.44,-0.44531 2.024,-0.69531 l 0.422,4.46875 c -0.709,0.302083 -1.599,0.5911458 -2.672,0.867188 -1.073,0.276041 -2.334,0.414062 -3.782,0.414062 -2.635,0 -4.52,-0.5755208 -5.656,-1.72656 -1.135,-1.15104 -1.703,-2.72136 -1.703,-4.71094 0,-0.73958 0.055,-1.5 0.164,-2.28125 0.11,-0.78125 0.274,-1.61458 0.492,-2.5 l 4.688,-19.7812 m 32.781,21.06245 c -0.083,0.34375 -0.172,0.89844 -0.266,1.66406 -0.093,0.76563 -0.14,1.48698 -0.14,2.16407 0,0.88541 0.075,1.75 0.226,2.59374 0.151,0.84376 0.399,1.69271 0.743,2.54688 l -4.969,0.75 c -0.365,-0.739583 -0.656,-1.52604 -0.875,-2.35938 -0.771,0.67709 -1.716,1.283859 -2.836,1.820318 -1.12,0.536458 -2.383,0.804687 -3.789,0.804687 -1.438,0 -2.672,-0.236979 -3.703,-0.7109375 -1.031,-0.4739585 -1.867,-1.1328075 -2.508,-1.9765675 -0.641,-0.84374 -1.115,-1.83333 -1.422,-2.96874 -0.307,-1.13542 -0.461,-2.35938 -0.461,-3.67188 0,-2.2396 0.399,-4.3255 1.195,-6.2578 0.797,-1.9323 1.909,-3.6042 3.336,-5.0156 1.427,-1.4115 3.123,-2.5235 5.086,-3.336 1.964,-0.8125 4.107,-1.2187 6.43,-1.2187 1.198,0 2.404,0.0989 3.617,0.2968 1.214,0.198 2.43,0.573 3.649,1.125 l -3.313,13.75005 m -3.016,-10.39065 c -0.583,-0.125 -1.244,-0.1875 -1.984,-0.1875 -1.375,0 -2.646,0.2995 -3.812,0.8985 -1.167,0.5989 -2.175,1.3958 -3.024,2.3906 -0.849,0.9948 -1.502,2.138 -1.961,3.4297 -0.458,1.2916 -0.687,2.6406 -0.687,4.04685 0,0.70833 0.062,1.36979 0.187,1.98437 0.125,0.61459 0.334,1.15105 0.625,1.60938 0.292,0.45833 0.683,0.82552 1.172,1.10156 0.49,0.27604 1.115,0.41406 1.875,0.41406 0.99,0 1.859,-0.20833 2.609,-0.625 0.75,-0.41666 1.448,-0.97395 2.094,-1.67187 0.032,-0.80208 0.099,-1.55469 0.203,-2.25781 0.105,-0.70313 0.25,-1.40884 0.438,-2.11724 l 2.265,-9.0156 m 8.766,10.62502 c 0,-2.08332 0.328,-4.06772 0.984,-5.95312 0.657,-1.8854 1.599,-3.5417 2.829,-4.9687 1.229,-1.4271 2.731,-2.5547 4.507,-3.3829 1.776,-0.8281 3.8,-1.2421 6.071,-1.2421 1.198,0 2.294,0.0989 3.289,0.2968 0.995,0.1979 1.94,0.4948 2.836,0.8906 L 504.359,-19 c -0.552,-0.25 -1.164,-0.4661 -1.836,-0.6484 -0.671,-0.1823 -1.502,-0.2735 -2.492,-0.2735 -1.312,0 -2.497,0.2683 -3.554,0.8047 -1.058,0.5365 -1.956,1.2656 -2.696,2.1875 -0.739,0.9219 -1.307,2.0104 -1.703,3.2656 -0.396,1.2552 -0.594,2.5912 -0.594,4.00785 0,0.79167 0.084,1.51823 0.25,2.17969 0.167,0.66146 0.443,1.24479 0.828,1.75 0.386,0.50521 0.915,0.89583 1.586,1.17187 0.672,0.27604 1.513,0.41407 2.524,0.41407 1.052,0 2.06,-0.13803 3.023,-0.41407 0.964,-0.27604 1.706,-0.54948 2.227,-0.82031 l 0.469,4.546875 c -0.709,0.333333 -1.646,0.661458 -2.813,0.984375 -1.167,0.322917 -2.484,0.484375 -3.953,0.484375 -1.687,0 -3.146,-0.252604 -4.375,-0.757813 -1.229,-0.505208 -2.25,-1.195312 -3.062,-2.070312 -0.813,-0.875 -1.409,-1.90104 -1.79,-3.07812 -0.38,-1.17709 -0.57,-2.45834 -0.57,-3.84376 m 41.016,-0.23437 c -0.084,0.34375 -0.172,0.89844 -0.266,1.66406 -0.094,0.76563 -0.14,1.48698 -0.14,2.16407 0,0.88541 0.075,1.75 0.226,2.59374 0.151,0.84376 0.398,1.69271 0.742,2.54688 l -4.968,0.75 c -0.365,-0.739583 -0.657,-1.52604 -0.876,-2.35938 -0.77,0.67709 -1.716,1.283859 -2.835,1.820318 -1.12,0.536458 -2.383,0.804687 -3.789,0.804687 -1.438,0 -2.672,-0.236979 -3.704,-0.7109375 -1.031,-0.4739585 -1.867,-1.1328075 -2.507,-1.9765675 -0.641,-0.84374 -1.115,-1.83333 -1.422,-2.96874 -0.308,-1.13542 -0.461,-2.35938 -0.461,-3.67188 0,-2.2396 0.398,-4.3255 1.195,-6.2578 0.797,-1.9323 1.909,-3.6042 3.336,-5.0156 1.427,-1.4115 3.122,-2.5235 5.086,-3.336 1.963,-0.8125 4.107,-1.2187 6.43,-1.2187 1.198,0 2.403,0.0989 3.617,0.2968 1.213,0.198 2.43,0.573 3.648,1.125 l -3.312,13.75005 m -3.016,-10.39065 c -0.583,-0.125 -1.245,-0.1875 -1.984,-0.1875 -1.375,0 -2.646,0.2995 -3.813,0.8985 -1.166,0.5989 -2.174,1.3958 -3.023,2.3906 -0.849,0.9948 -1.503,2.138 -1.961,3.4297 -0.458,1.2916 -0.688,2.6406 -0.688,4.04685 0,0.70833 0.063,1.36979 0.188,1.98437 0.125,0.61459 0.333,1.15105 0.625,1.60938 0.292,0.45833 0.682,0.82552 1.172,1.10156 0.489,0.27604 1.114,0.41406 1.875,0.41406 0.989,0 1.859,-0.20833 2.609,-0.625 0.75,-0.41666 1.448,-0.97395 2.094,-1.67187 0.031,-0.80208 0.099,-1.55469 0.203,-2.25781 0.104,-0.70313 0.25,-1.40884 0.437,-2.11724 l 2.266,-9.0156 m 8.766,10.62502 c 0,-2.08332 0.328,-4.06772 0.984,-5.95312 0.656,-1.8854 1.599,-3.5417 2.828,-4.9687 1.229,-1.4271 2.732,-2.5547 4.508,-3.3829 1.776,-0.8281 3.8,-1.2421 6.07,-1.2421 1.198,0 2.295,0.0989 3.289,0.2968 0.995,0.1979 1.941,0.4948 2.836,0.8906 L 551.125,-19 c -0.552,-0.25 -1.164,-0.4661 -1.836,-0.6484 -0.672,-0.1823 -1.503,-0.2735 -2.492,-0.2735 -1.313,0 -2.498,0.2683 -3.555,0.8047 -1.057,0.5365 -1.956,1.2656 -2.695,2.1875 -0.74,0.9219 -1.307,2.0104 -1.703,3.2656 -0.396,1.2552 -0.594,2.5912 -0.594,4.00785 0,0.79167 0.083,1.51823 0.25,2.17969 0.167,0.66146 0.443,1.24479 0.828,1.75 0.386,0.50521 0.914,0.89583 1.586,1.17187 0.672,0.27604 1.513,0.41407 2.524,0.41407 1.052,0 2.059,-0.13803 3.023,-0.41407 0.963,-0.27604 1.706,-0.54948 2.227,-0.82031 l 0.468,4.546875 c -0.708,0.333333 -1.646,0.661458 -2.812,0.984375 -1.167,0.322917 -2.485,0.484375 -3.953,0.484375 -1.688,0 -3.146,-0.252604 -4.375,-0.757813 -1.23,-0.505208 -2.25,-1.195312 -3.063,-2.070312 -0.812,-0.875 -1.409,-1.90104 -1.789,-3.07812 -0.38,-1.17709 -0.57,-2.45834 -0.57,-3.84376 m 20,9.10938 8.328,-34.7812 5.797,-0.9219 -2.828,11.8281 c 0.614,-0.1562 1.281,-0.3021 2,-0.4375 0.718,-0.1354 1.427,-0.2031 2.125,-0.2031 1.354,0 2.513,0.1901 3.476,0.5703 0.964,0.3802 1.758,0.9088 2.383,1.5859 0.625,0.6771 1.083,1.4896 1.375,2.4375 0.292,0.9479 0.438,1.974 0.438,3.0781 0,1.323 -0.183,2.7188 -0.547,4.1876 L 572.094,0 l -5.563,0 2.907,-12.0469 c 0.145,-0.7083 0.296,-1.4297 0.453,-2.164 0.156,-0.7344 0.234,-1.4245 0.234,-2.0703 0,-1.0105 -0.268,-1.862 -0.805,-2.5547 -0.536,-0.6927 -1.56,-1.0391 -3.07,-1.0391 -0.615,0 -1.229,0.0547 -1.844,0.1641 -0.614,0.1093 -1.166,0.2369 -1.656,0.3828 L 558.172,0 552.594,0 M 584,0 l -5.516,0 5.75,-24.0625 5.563,0 L 584,0 m 4.141,-27.6875 c -0.823,0 -1.542,-0.2474 -2.157,-0.7422 -0.614,-0.4948 -0.922,-1.2318 -0.922,-2.2109 0,-1.1354 0.391,-2.0703 1.172,-2.8047 0.782,-0.7344 1.677,-1.1016 2.688,-1.1016 0.833,0 1.565,0.2526 2.195,0.7578 0.63,0.5052 0.945,1.2474 0.945,2.2266 0,1.1354 -0.401,2.0651 -1.203,2.7891 -0.802,0.7239 -1.708,1.0859 -2.718,1.0859 m 4.453,12 12.234,0 -1.187,5.1094 -12.25,0 1.203,-5.1094 m 38.265,14.3125 c -1.02,0.520833 -2.312,0.994792 -3.875,1.421875 -1.562,0.427083 -3.463,0.640625 -5.703,0.640625 -1.958,0 -3.705,-0.299479 -5.242,-0.898438 -1.536,-0.598958 -2.841,-1.466142 -3.914,-2.601562 -1.073,-1.13542 -1.893,-2.5 -2.461,-4.09375 -0.568,-1.59375 -0.852,-3.38545 -0.852,-5.37495 0,-2.573 0.43,-5.0808 1.29,-7.5235 0.859,-2.4427 2.101,-4.6146 3.726,-6.5156 1.625,-1.9011 3.604,-3.4271 5.938,-4.5781 2.333,-1.1511 4.968,-1.7266 7.906,-1.7266 1.937,0 3.62,0.2161 5.047,0.6484 1.427,0.4323 2.677,0.9558 3.75,1.5704 l -2.219,4.6406 c -0.979,-0.5834 -2.029,-1.0365 -3.148,-1.3594 -1.12,-0.3229 -2.383,-0.4844 -3.79,-0.4844 -1.937,0 -3.671,0.4297 -5.203,1.2891 -1.531,0.8594 -2.841,1.987 -3.929,3.3828 -1.089,1.3958 -1.917,2.9844 -2.485,4.7656 -0.567,1.7813 -0.851,3.5886 -0.851,5.4219 0,2.85417 0.62,4.96354 1.859,6.32812 1.24,1.36459 3.057,2.04688 5.453,2.04688 1.844,0 3.409,-0.20573 4.696,-0.61719 1.286,-0.41146 2.388,-0.83073 3.304,-1.25781 l 0.703,4.875 M 654.5,-9.34375 c -0.083,0.34375 -0.172,0.89844 -0.266,1.66406 -0.093,0.76563 -0.14,1.48698 -0.14,2.16407 0,0.88541 0.075,1.75 0.226,2.59374 0.151,0.84376 0.399,1.69271 0.742,2.54688 l -4.968,0.75 c -0.365,-0.739583 -0.656,-1.52604 -0.875,-2.35938 -0.771,0.67709 -1.716,1.283859 -2.836,1.820318 -1.12,0.536458 -2.383,0.804687 -3.789,0.804687 -1.438,0 -2.672,-0.236979 -3.703,-0.7109375 -1.032,-0.4739585 -1.868,-1.1328075 -2.508,-1.9765675 -0.641,-0.84374 -1.115,-1.83333 -1.422,-2.96874 -0.307,-1.13542 -0.461,-2.35938 -0.461,-3.67188 0,-2.2396 0.398,-4.3255 1.195,-6.2578 0.797,-1.9323 1.909,-3.6042 3.336,-5.0156 1.427,-1.4115 3.123,-2.5235 5.086,-3.336 1.964,-0.8125 4.107,-1.2187 6.43,-1.2187 1.198,0 2.404,0.0989 3.617,0.2968 1.214,0.198 2.43,0.573 3.648,1.125 L 654.5,-9.34375 m -3.016,-10.39065 c -0.583,-0.125 -1.244,-0.1875 -1.984,-0.1875 -1.375,0 -2.646,0.2995 -3.812,0.8985 -1.167,0.5989 -2.175,1.3958 -3.024,2.3906 -0.849,0.9948 -1.503,2.138 -1.961,3.4297 -0.458,1.2916 -0.687,2.6406 -0.687,4.04685 0,0.70833 0.062,1.36979 0.187,1.98437 0.125,0.61459 0.333,1.15105 0.625,1.60938 0.292,0.45833 0.682,0.82552 1.172,1.10156 0.49,0.27604 1.115,0.41406 1.875,0.41406 0.99,0 1.859,-0.20833 2.609,-0.625 0.75,-0.41666 1.448,-0.97395 2.094,-1.67187 0.031,-0.80208 0.099,-1.55469 0.203,-2.25781 0.104,-0.70313 0.25,-1.40884 0.438,-2.11724 l 2.265,-9.0156 m 31.172,-4.3281 c -0.614,1.75 -1.291,3.5677 -2.031,5.4531 -0.74,1.8854 -1.563,3.7787 -2.469,5.6797 -0.906,1.9011 -1.883,3.79428 -2.929,5.6797 -1.047,1.88542 -2.17,3.71875 -3.368,5.5 -0.885,1.354167 -1.804,2.651042 -2.757,3.89062 -0.954,1.23959 -1.99,2.33594 -3.11,3.28907 -1.12,0.95312 -2.357,1.72135 -3.711,2.30469 -1.354,0.58333 -2.89,0.875 -4.609,0.875 -0.948,0 -1.8,-0.10938 -2.555,-0.32813 -0.755,-0.21875 -1.393,-0.46354 -1.914,-0.73437 L 655,3.07812 c 0.427,0.25 0.911,0.45053 1.453,0.60157 0.542,0.15104 1.136,0.22656 1.781,0.22656 1.448,0 2.719,-0.375 3.813,-1.125 1.094,-0.75 2.088,-1.77083 2.984,-3.0625 -0.989,-3.39583 -1.828,-7.08854 -2.515,-11.07815 -0.688,-3.9896 -1.141,-8.2239 -1.36,-12.7031 l 5.625,0 c 0.031,1.2917 0.102,2.7187 0.211,4.2813 0.11,1.5624 0.248,3.164 0.414,4.8046 0.167,1.6407 0.375,3.2578 0.625,4.8516 0.25,1.59375 0.531,3.06771 0.844,4.42188 0.917,-1.46876 1.776,-3.01823 2.578,-4.64848 0.802,-1.6302 1.542,-3.25 2.219,-4.8593 0.677,-1.6094 1.268,-3.1719 1.773,-4.6875 0.506,-1.5157 0.946,-2.9037 1.321,-4.1641 l 5.89,0 m 20.219,14.71875 c -0.083,0.34375 -0.172,0.89844 -0.266,1.66406 -0.093,0.76563 -0.14,1.48698 -0.14,2.16407 0,0.88541 0.075,1.75 0.226,2.59374 0.151,0.84376 0.399,1.69271 0.743,2.54688 l -4.969,0.75 c -0.365,-0.739583 -0.657,-1.52604 -0.875,-2.35938 -0.771,0.67709 -1.716,1.283859 -2.836,1.820318 -1.12,0.536458 -2.383,0.804687 -3.789,0.804687 -1.438,0 -2.672,-0.236979 -3.703,-0.7109375 -1.032,-0.4739585 -1.868,-1.1328075 -2.508,-1.9765675 -0.641,-0.84374 -1.115,-1.83333 -1.422,-2.96874 -0.307,-1.13542 -0.461,-2.35938 -0.461,-3.67188 0,-2.2396 0.398,-4.3255 1.195,-6.2578 0.797,-1.9323 1.909,-3.6042 3.336,-5.0156 1.427,-1.4115 3.123,-2.5235 5.086,-3.336 1.964,-0.8125 4.107,-1.2187 6.43,-1.2187 1.198,0 2.404,0.0989 3.617,0.2968 1.214,0.198 2.43,0.573 3.649,1.125 l -3.313,13.75005 m -3.016,-10.39065 c -0.583,-0.125 -1.244,-0.1875 -1.984,-0.1875 -1.375,0 -2.646,0.2995 -3.813,0.8985 -1.166,0.5989 -2.174,1.3958 -3.023,2.3906 -0.849,0.9948 -1.503,2.138 -1.961,3.4297 -0.458,1.2916 -0.687,2.6406 -0.687,4.04685 0,0.70833 0.062,1.36979 0.187,1.98437 0.125,0.61459 0.333,1.15105 0.625,1.60938 0.292,0.45833 0.682,0.82552 1.172,1.10156 0.49,0.27604 1.115,0.41406 1.875,0.41406 0.99,0 1.859,-0.20833 2.609,-0.625 0.75,-0.41666 1.448,-0.97395 2.094,-1.67187 0.031,-0.80208 0.099,-1.55469 0.203,-2.25781 0.104,-0.70313 0.25,-1.40884 0.438,-2.11724 l 2.265,-9.0156 m 14.266,15.40628 c 0.313,0.0625 0.638,0.10156 0.977,0.11718 0.338,0.01563 0.674,0.02344 1.007,0.02344 1.469,0 2.795,-0.28385 3.977,-0.85156 1.182,-0.56771 2.187,-1.33334 3.016,-2.29688 0.828,-0.96354 1.466,-2.09896 1.914,-3.40626 0.448,-1.3073 0.672,-2.6953 0.672,-4.164 0,-0.6771 -0.076,-1.3152 -0.227,-1.9141 -0.151,-0.599 -0.404,-1.1276 -0.758,-1.5859 -0.354,-0.4584 -0.831,-0.8256 -1.43,-1.1016 -0.599,-0.2761 -1.356,-0.4141 -2.273,-0.4141 -0.615,0 -1.198,0.0391 -1.75,0.1172 -0.552,0.0781 -1.042,0.1797 -1.469,0.3047 l -3.656,15.17188 M 731.25,-15.4062 c 0,2.177 -0.344,4.2239 -1.031,6.14058 -0.688,1.91666 -1.698,3.59635 -3.031,5.03906 -1.334,1.44271 -2.959,2.58333 -4.876,3.421872 -1.916,0.8385422 -4.119,1.257813 -6.609,1.257813 -0.427,0 -0.862,-0.020833 -1.305,-0.0625 -0.442,-0.041667 -0.882,-0.09375 -1.32,-0.15625 l -2.031,8.281245 -5.563,0 7.594,-31.60942 c 1.261,-0.4583 2.664,-0.8255 4.211,-1.1015 1.547,-0.2761 3.102,-0.4141 4.664,-0.4141 1.604,0 2.995,0.237 4.172,0.711 1.177,0.4739 2.143,1.125 2.898,1.9531 0.756,0.8281 1.316,1.8021 1.68,2.9219 0.365,1.1198 0.547,2.3255 0.547,3.6172 m 23.219,6.06245 c -0.084,0.34375 -0.172,0.89844 -0.266,1.66406 -0.094,0.76563 -0.141,1.48698 -0.141,2.16407 0,0.88541 0.076,1.75 0.227,2.59374 0.151,0.84376 0.399,1.69271 0.742,2.54688 l -4.969,0.75 c -0.364,-0.739583 -0.656,-1.52604 -0.874,-2.35938 -0.771,0.67709 -1.717,1.283859 -2.836,1.820318 -1.12,0.536458 -2.383,0.804687 -3.79,0.804687 -1.437,0 -2.671,-0.236979 -3.703,-0.7109375 -1.031,-0.4739585 -1.867,-1.1328075 -2.507,-1.9765675 -0.641,-0.84374 -1.115,-1.83333 -1.422,-2.96874 -0.308,-1.13542 -0.461,-2.35938 -0.461,-3.67188 0,-2.2396 0.398,-4.3255 1.195,-6.2578 0.797,-1.9323 1.909,-3.6042 3.336,-5.0156 1.427,-1.4115 3.122,-2.5235 5.086,-3.336 1.963,-0.8125 4.107,-1.2187 6.43,-1.2187 1.198,0 2.403,0.0989 3.617,0.2968 1.213,0.198 2.429,0.573 3.648,1.125 l -3.312,13.75005 m -3.016,-10.39065 c -0.583,-0.125 -1.245,-0.1875 -1.984,-0.1875 -1.375,0 -2.646,0.2995 -3.813,0.8985 -1.166,0.5989 -2.174,1.3958 -3.023,2.3906 -0.849,0.9948 -1.503,2.138 -1.961,3.4297 -0.458,1.2916 -0.688,2.6406 -0.688,4.04685 0,0.70833 0.063,1.36979 0.188,1.98437 0.125,0.61459 0.333,1.15105 0.625,1.60938 0.292,0.45833 0.682,0.82552 1.172,1.10156 0.489,0.27604 1.114,0.41406 1.875,0.41406 0.989,0 1.859,-0.20833 2.609,-0.625 0.75,-0.41666 1.448,-0.97395 2.094,-1.67187 0.031,-0.80208 0.099,-1.55469 0.203,-2.25781 0.104,-0.70313 0.25,-1.40884 0.438,-2.11724 l 2.265,-9.0156 m 14.609,15.82815 c 1.469,0 2.633,-0.23958 3.493,-0.71875 0.859,-0.47917 1.289,-1.20833 1.289,-2.1875 0,-0.79167 -0.276,-1.42708 -0.828,-1.90625 -0.552,-0.47917 -1.521,-1.03646 -2.907,-1.67185 -0.729,-0.3438 -1.408,-0.6979 -2.039,-1.0625 -0.63,-0.3646 -1.174,-0.7943 -1.632,-1.2891 -0.459,-0.4948 -0.826,-1.0703 -1.102,-1.7266 -0.276,-0.6562 -0.414,-1.4479 -0.414,-2.375 0,-2.3854 0.872,-4.2838 2.617,-5.6953 1.745,-1.4114 4.273,-2.1171 7.586,-2.1171 1.531,0 2.904,0.1614 4.117,0.4843 1.214,0.3229 2.128,0.6511 2.742,0.9844 L 777,-18.8594 c -0.521,-0.3125 -1.271,-0.6146 -2.25,-0.9062 -0.979,-0.2917 -2.005,-0.4375 -3.078,-0.4375 -0.521,0 -1.034,0.0469 -1.539,0.1406 -0.505,0.0937 -0.959,0.2474 -1.36,0.4609 -0.401,0.2136 -0.731,0.5131 -0.992,0.8985 -0.26,0.3854 -0.39,0.8541 -0.39,1.4062 0,0.7084 0.283,1.2839 0.851,1.7266 0.568,0.4427 1.388,0.9088 2.461,1.3984 1.011,0.4584 1.87,0.9037 2.578,1.336 0.709,0.4323 1.292,0.9166 1.75,1.4531 0.459,0.5364 0.795,1.1328 1.008,1.78905 0.214,0.65625 0.32,1.44792 0.32,2.375 0,1.13542 -0.229,2.1849 -0.687,3.14844 -0.458,0.96354 -1.125,1.79166 -2,2.48437 -0.875,0.692711 -1.956,1.236982 -3.242,1.632815 -1.287,0.395833 -2.758,0.59375 -4.414,0.59375 -1.136,0 -2.157,-0.075521 -3.063,-0.226563 -0.906,-0.151041 -1.698,-0.3255203 -2.375,-0.523437 -0.677,-0.197917 -1.245,-0.40625 -1.703,-0.625 -0.458,-0.21875 -0.813,-0.401045 -1.063,-0.546875 l 1.985,-4.375 c 0.219,0.125 0.534,0.28646 0.945,0.48437 0.412,0.19792 0.886,0.38803 1.422,0.57032 0.537,0.18229 1.135,0.34375 1.797,0.48437 0.661,0.14063 1.362,0.21094 2.101,0.21094"
         id="path5248"
         inkscape:connector-curvature="0"
         style="fill-rule:nonzero" />
    </g>
    <g
       font-style="normal"
       font-weight="400"
       transform="matrix(0.31992,0,0,0.31992,585.446,631.783)"
       font-size="45.8333"
       id="g5250"
       style="font-style:normal;font-weight:400;font-size:45.83330154px;font-family:Ubuntu;fill:#02bd5a;fill-opacity:1;stroke:#000000;stroke-width:3.07086992;stroke-linecap:square;stroke-linejoin:bevel;stroke-opacity:1" />
    <g
       font-style="normal"
       font-weight="400"
       transform="matrix(0.999751,0,0,0.999751,212.545,165.313)"
       font-size="45.8333"
       id="g5252"
       style="font-style:normal;font-weight:400;font-size:45.83330154px;font-family:Ubuntu;fill:#02bd5a;fill-opacity:1;stroke:#000000;stroke-width:3.07086992;stroke-linecap:square;stroke-linejoin:bevel;stroke-opacity:1" />
    <g
       font-style="normal"
       font-weight="400"
       transform="matrix(11.8081,0,0,11.8081,212.545,165.313)"
       font-size="45.8333"
       id="g5254"
       style="font-style:normal;font-weight:400;font-size:45.83330154px;font-family:Ubuntu;fill:none;stroke:#000000;stroke-width:1;stroke-linecap:square;stroke-linejoin:bevel;stroke-opacity:1" />
    <g
       font-style="normal"
       font-weight="400"
       transform="matrix(11.8081,0,0,11.8081,212.545,165.313)"
       font-size="45.8333"
       id="g5256"
       style="font-style:normal;font-weight:400;font-size:45.83330154px;font-family:Ubuntu;fill:none;stroke:#000000;stroke-width:1;stroke-linecap:square;stroke-linejoin:bevel;stroke-opacity:1" />
    <g
       font-style="normal"
       font-weight="400"
       transform="matrix(11.8081,0,0,11.8081,212.545,165.313)"
       font-size="45.8333"
       id="g5258"
       style="font-style:normal;font-weight:400;font-size:45.83330154px;font-family:Ubuntu;fill:none;stroke:#000000;stroke-width:1;stroke-linecap:square;stroke-linejoin:bevel;stroke-opacity:1" />
    <g
       font-style="normal"
       font-weight="400"
       font-size="45.8333"
       id="g5260"
       style="font-style:normal;font-weight:400;font-size:45.83330154px;font-family:Ubuntu;fill:none;stroke:#000000;stroke-width:1;stroke-linecap:square;stroke-linejoin:bevel;stroke-opacity:1" />
    <g
       font-style="normal"
       font-weight="400"
       transform="matrix(11.8081,0,0,11.8081,212.545,165.313)"
       font-size="45.8333"
       id="g5262"
       style="font-style:normal;font-weight:400;font-size:45.83330154px;font-family:Ubuntu;fill:none;stroke:#000000;stroke-width:1;stroke-linecap:square;stroke-linejoin:bevel;stroke-opacity:1" />
    <g
       font-style="normal"
       font-weight="400"
       transform="matrix(11.8081,0,0,11.8081,212.545,165.313)"
       font-size="45.8333"
       id="g5264"
       style="font-style:normal;font-weight:400;font-size:45.83330154px;font-family:Ubuntu;fill:none;stroke:#000000;stroke-width:1;stroke-linecap:square;stroke-linejoin:bevel;stroke-opacity:1" />
    <g
       font-style="normal"
       font-weight="400"
       transform="scale(11.8081,11.8081)"
       font-size="45.8333"
       id="g5266"
       style="font-style:normal;font-weight:400;font-size:45.83330154px;font-family:Ubuntu;fill:none;stroke:#000000;stroke-width:1;stroke-linecap:square;stroke-linejoin:bevel;stroke-opacity:1" />
    <g
       font-style="normal"
       font-weight="400"
       transform="scale(11.8081,11.8081)"
       font-size="45.8333"
       id="g5268"
       style="font-style:normal;font-weight:400;font-size:45.83330154px;font-family:Ubuntu;fill:none;stroke:#000000;stroke-width:1;stroke-linecap:square;stroke-linejoin:bevel;stroke-opacity:1" />
    <g
       font-style="normal"
       font-weight="400"
       font-size="45.8333"
       id="g5270"
       style="font-style:normal;font-weight:400;font-size:45.83330154px;font-family:Ubuntu;fill:none;stroke:#000000;stroke-width:1;stroke-linecap:square;stroke-linejoin:bevel;stroke-opacity:1" />
  </g>
  <defs
     id="defs5272" />
  <g
     inkscape:label="Layer 5"
     inkscape:groupmode="layer"
     id="Layer 5"
     sodipodi:insensitive="true"
     style="display:inline;fill:none;fill-rule:evenodd;stroke:#000000;stroke-width:1;stroke-linecap:square;stroke-linejoin:bevel"
     transform="translate(-170.00788,29.598435)">
    <g
       font-style="normal"
       font-weight="400"
       font-size="45.8333"
       id="g5275"
       style="font-style:normal;font-weight:400;font-size:45.83330154px;font-family:Ubuntu;fill:none;stroke:#000000;stroke-width:1;stroke-linecap:square;stroke-linejoin:bevel;stroke-opacity:1" />
    <g
       font-style="normal"
       font-weight="400"
       transform="matrix(11.8081,0,0,11.8081,212.545,165.313)"
       font-size="45.8333"
       id="g5277"
       style="font-style:normal;font-weight:400;font-size:45.83330154px;font-family:Ubuntu;fill:none;stroke:#000000;stroke-width:1;stroke-linecap:square;stroke-linejoin:bevel;stroke-opacity:1" />
    <g
       font-style="normal"
       font-weight="400"
       transform="matrix(11.8081,0,0,11.8081,212.545,165.313)"
       font-size="45.8333"
       id="g5279"
       style="font-style:normal;font-weight:400;font-size:45.83330154px;font-family:Ubuntu;fill:none;stroke:#000000;stroke-width:1;stroke-linecap:square;stroke-linejoin:bevel;stroke-opacity:1" />
    <g
       font-style="normal"
       font-weight="400"
       transform="matrix(0.999751,0,0,0.999751,212.545,165.313)"
       font-size="45.8333"
       id="g5281"
       style="font-style:normal;font-weight:400;font-size:45.83330154px;font-family:Ubuntu;fill:#000000;fill-opacity:0;stroke:none">
      <path
         vector-effect="non-scaling-stroke"
         d="m 0,0 2764,0 0,1925 L 0,1925 0,0"
         id="path5283"
         inkscape:connector-curvature="0"
         style="fill-rule:evenodd" />
    </g>
    <g
       font-style="normal"
       font-weight="400"
       transform="matrix(0.999751,0,0,0.999751,212.545,165.313)"
       font-size="45.8333"
       id="g5285"
       style="font-style:normal;font-weight:400;font-size:45.83330154px;font-family:Ubuntu;fill:#85e2d4;fill-opacity:0.69411801;stroke:#ff0000;stroke-width:8.85826969;stroke-linecap:square;stroke-linejoin:bevel;stroke-opacity:0.69411801">
      <path
         vector-effect="none"
         d="m 1412.65,444.352 11.71,7.318 10.01,-0.369 14.14,1.045 8.27,2.085 4.43,3.797 3.85,5.926 0.76,7.839 6.82,9.173 3.1,8.68 2.41,15.275 6.2,9.374 8.67,11.198 1.67,3.733 1.04,4.166 2.09,4.514 -0.03,5.553 0,24.301 1.53,3.68 -7.05,5.692 -4.49,10.413 -1.38,10.414 -3.1,7.289 -11.39,15.272 -7.93,7.288 -8.26,8.448 -7.26,0.922 -9.24,5.148 -9.38,9.774 -7.59,6.247 -17.15,17.195 -2.17,3.282 -4.48,2.429 -6.56,6.247 -16.2,6.94 -5.87,7.635 -13.79,9.37 -13.45,2.08 -5.52,1.387 -2.07,6.943 -5.18,6.941 13.35,16.167 30.4,2.247 21.61,10.01 6.36,0.755 5.43,4.709 8.53,3.953 13.97,0.718 10.75,6.374 5.8,4.391 8.3,0.679 4.8,3.837 7.73,5.953 7.79,1.688 8.27,6.598 17.01,16.111 22.7,38.414 42.26,57.127 41.89,50.863 0,16.348 13.91,21.022 19.45,24.52 4.14,16.46 7.21,5.3 11.38,10.77 7.58,7.29 5.17,3.82 9.17,6.39 6.69,1.94 8.62,6.26 5.48,2.46 7.28,2.05 8.27,5.56 12.42,14.23 4.47,14.24 6.9,6.94 1.72,10.76 3.45,4.52 6.89,10.41 0.26,7.02 3.53,4.44 5.17,9.03 2.76,22.91 -1.04,29.16 3.1,13.19 7.58,11.11 1.72,7.99 3.95,6.78 8.81,9.19 6.2,10.76 1.6,13.26 4.26,7.57 5.98,8.13 7.64,4.65 8.1,4.93 5.86,0.35 16.19,2.26 7.6,0.87 6.67,9.51 2.29,17.91 0.34,23.96 4.14,14.58 7.58,6.94 8.97,0.7 8.96,3.12 13.45,9.03 12.07,12.16 21.03,20.13 7.92,9.08 6.9,6.2 4.48,6.6 1.38,9.02 -5.52,6.25 -4.07,7.92 -0.07,5.27 -1.38,15.97 -0.35,16.66 1.95,14.21 -0.74,6.34 5.33,10.35 13.2,16.91 -0.37,14.93 -10.02,25.01 -6.68,2.24 -4.45,8.58 -7.04,-3.36 -4.08,1.5 -6.68,6.71 -9.27,0 -8.52,-5.23 -15.21,7.47 -10.39,17.54 -5.38,15.3 -4.65,10.29 -7.77,10.99 -1.86,14.93 -16.32,18.29 -18.17,16.42 -18.17,6.34 -16.69,-10.08 -16.14,-7.87 -14.63,-6.32 -7.79,-9.71 -19.33,-12 -35.91,-3.69 -19.28,-11.57 -28.31,-31.47 -19.15,-11.47 -18.16,-21.29 -13.35,-7.84 -20.77,-11.95 -17.42,-17.55 -15.53,-4.65 -9.31,0.92 -5.94,-1.13 -18.91,-13.81 -19.28,-2.99 -15.2,-4.49 -28.78,-15.89 -21.28,-10.62 -27.81,0.37 -7.04,4.48 -7.05,6.71 -25.59,5.22 -27.28,11.02 -29.22,2.45 -49.56,4.81 -20.02,-0.76 -17.43,-10.45 -20.84,3.83 -10.69,10.76 -7.93,5.9 -11.04,4.16 -8.62,7.98 -1.73,9.03 -11.1,12.83 -5.32,6.78 -12.2,9.89 -10.06,4.95 -25.66,2.72 -9.12,5.77 -8.78,2.72 -15.53,0.68 0.34,-12.58 0.34,-21.76 0.68,-24.47 1.69,-11.9 1.04,-5.95 4.37,-9.68 -15.59,-10.28 -5.19,-2.24 -8.9,-17.18 -4.82,-19.04 0.76,-51.51 -21.88,-29.13 -5.92,-43.3 -10.75,-13.07 -24.107,2.61 -40.045,-20.92 -17,-14.33 -17.11,-14.42 -24.105,4.47 -23.362,-0.75 -9.269,-7.84 -5.75,3.55 -6.199,-12.85 15.844,-16.9 11.383,-14.58 -0.689,-4.17 3.105,-4.86 7.933,-8.33 0.349,-20.13 -0.686,-14.24 1.383,-17.01 0.201,-13.52 8.77,-12.51 1.384,-23.61 2.416,-9.72 6.968,-8.93 0.967,-7.73 6.912,-10.18 0.166,-0.5 2.927,-8.76 -1.976,-5.14 -0.045,-0.12 4.119,-10.2 12.674,-22.32 19.643,-29.33 18.691,-19.76 15.68,-20.29 3.012,-4.261 7.35,-14.85 7.993,-27.297 7.255,-26.779 -0.123,-5.667 5.101,-12.765 4.75,-7.332 4.44,-11.159 0.92,-6.683 0.32,-16.58 -6.96,-12.437 -2.85,-7.653 -0.32,-6.377 1.61,-2.562 3.49,-2.231 4.43,-2.55 2.63,-2.148 1.81,-9.011 5.7,-11.796 5.99,-6.066 6.37,-11.148 2.72,-11.531 2.64,-6.63 0,-5.739 0.21,-11.845 2.68,-10.486 4.43,-12.754 1.9,-7.332 5.71,-11.796 5.07,-7.013 3.48,-4.463 3.8,-5.739 3.49,-5.1 3.77,-4.132 3.17,-5.42 6.02,-10.839 6.34,-8.926 6.97,-6.694 7.95,-7.981 4.43,-4.144 4.41,-7.32 3.83,-4.794 4.43,-6.695 4.76,-7.651 6.97,-10.52 6.97,-9.883 5.04,-8.914 1.58,-9.246 0.11,-5.026 7.91,0.695 17.05,0.13 23.35,0.177 1.3,-4.972 5.6,-9.26 -1.74,-7.632 -4.81,-6.95 -0.69,-8.332 4.76,-6.275 3.52,-5.526 1.73,-7.637 0.69,-15.969 -1.37,-9.026 -3.83,-3.284 8.17,-24.264 4.03,-58.923 1.18,-17.232 34.27,5.122 28.27,2.438 6.9,2.084 7.12,5.361 11.84,10.613 19.31,3.13 22.76,14.586 5.51,2.432 10,2.085 32.07,2.091 19.66,2.435"
         id="path5287"
         inkscape:connector-curvature="0"
         style="fill-rule:evenodd" />
    </g>
    <g
       font-style="normal"
       font-weight="400"
       transform="matrix(0.999751,0,0,0.999751,212.545,165.313)"
       font-size="45.8333"
       id="g5289"
       style="font-style:normal;font-weight:400;font-size:45.83330154px;font-family:Ubuntu;fill:#85e2d4;fill-opacity:0.69411801;stroke:#ff0000;stroke-width:8.85826969;stroke-linecap:square;stroke-linejoin:bevel;stroke-opacity:0.69411801" />
    <g
       font-style="normal"
       font-weight="400"
       transform="matrix(0.31992,0,0,0.31992,1434.35,1306.16)"
       font-size="45.8333"
       id="g5291"
       style="font-style:normal;font-weight:400;font-size:45.83330154px;font-family:Ubuntu;fill:#85e2d4;fill-opacity:0.69411801;stroke:#ff0000;stroke-width:8.85826969;stroke-linecap:square;stroke-linejoin:bevel;stroke-opacity:0.69411801" />
    <g
       font-style="normal"
       font-weight="400"
       transform="matrix(0.999751,0,0,0.999751,1434.35,1306.16)"
       font-size="45.8333"
       id="g5293"
       style="font-style:normal;font-weight:400;font-size:45.83330154px;font-family:Ubuntu;fill:#000000;fill-opacity:1;stroke:none">
      <path
         vector-effect="non-scaling-stroke"
         d="m 3.78125,0 0,-31.6406 4.28125,0 0,28.1406 16,0 0,3.5 L 3.78125,0 M 59.1562,-15.9688 c 0,2.4688 -0.3541,4.7136 -1.0624,6.73442 -0.7084,2.02084 -1.737,3.75 -3.086,5.1875 -1.3489,1.4375 -2.9974,2.54688 -4.9453,3.32813 -1.9479,0.78125 -4.1563,1.171875 -6.625,1.171875 -2.6042,0 -4.888,-0.4088542 -6.8516,-1.226563 C 34.6224,-1.59115 32.9896,-2.72917 31.6875,-4.1875 30.3854,-5.64583 29.4036,-7.38021 28.7422,-9.39062 28.0807,-11.401 27.75,-13.5938 27.75,-15.9688 c 0,-2.4687 0.3464,-4.7005 1.0391,-6.6953 0.6927,-1.9948 1.7057,-3.6901 3.039,-5.0859 1.3334,-1.3958 2.9766,-2.474 4.9297,-3.2344 1.9531,-0.7604 4.1953,-1.1406 6.7266,-1.1406 2.5104,0 4.7422,0.3828 6.6953,1.1484 1.9531,0.7657 3.5937,1.8516 4.9219,3.2578 1.3281,1.4063 2.3359,3.1068 3.0234,5.1016 0.6875,1.9948 1.0312,4.211 1.0312,6.6484 m -4.375,0 c 0,-1.9062 -0.2447,-3.638 -0.7343,-5.1953 -0.4896,-1.5573 -1.2084,-2.888 -2.1563,-3.9921 -0.9479,-1.1042 -2.125,-1.9558 -3.5312,-2.5547 -1.4063,-0.599 -3.0313,-0.8985 -4.875,-0.8985 -1.8854,0 -3.5417,0.2995 -4.9688,0.8985 -1.4271,0.5989 -2.6146,1.4505 -3.5625,2.5547 -0.9479,1.1041 -1.6588,2.4348 -2.1328,3.9921 -0.4739,1.5573 -0.7109,3.2891 -0.7109,5.1953 0,1.8959 0.2448,3.6355 0.7344,5.2188 0.4895,1.58333 1.2083,2.94792 2.1562,4.09375 0.9479,1.14583 2.1302,2.03646 3.5469,2.67187 1.4166,0.63542 3.0469,0.95313 4.8906,0.95313 1.9792,0 3.6823,-0.32292 5.1094,-0.96875 1.4271,-0.64583 2.6015,-1.54167 3.5234,-2.6875 0.9219,-1.14583 1.6042,-2.51042 2.0469,-4.0937 0.4427,-1.5834 0.664,-3.3126 0.664,-5.1876 m 35.1407,7.23442 c 0,1.33334 -0.2604,2.5599 -0.7813,3.67969 -0.5208,1.11979 -1.3203,2.08854 -2.3984,2.90625 -1.0781,0.81771 -2.4349,1.455732 -4.0703,1.914065 -1.6354,0.458333 -3.5781,0.6875 -5.8281,0.6875 -3.9376,0 -7.0079,-0.690104 -9.211,-2.070315 -2.2031,-1.38021 -3.6016,-3.37239 -4.1953,-5.97656 l 4.1563,-0.82813 c 0.2083,0.82292 0.5286,1.57032 0.9609,2.24219 0.4323,0.67188 1.0182,1.25261 1.7578,1.74219 0.7396,0.48958 1.6563,0.86979 2.75,1.14062 1.0937,0.27084 2.4063,0.40626 3.9375,0.40626 1.2708,0 2.4375,-0.10938 3.5,-0.32813 1.0625,-0.21875 1.9766,-0.55208 2.7422,-1 0.7656,-0.44792 1.362,-1.02865 1.789,-1.74219 0.4271,-0.71354 0.6407,-1.5651 0.6407,-2.55468 0,-1.03126 -0.237,-1.86978 -0.711,-2.51558 -0.4739,-0.6459 -1.138,-1.1771 -1.9921,-1.5938 -0.8542,-0.4167 -1.8724,-0.7682 -3.0547,-1.0547 -1.1823,-0.2864 -2.4922,-0.5911 -3.9297,-0.9141 -0.8854,-0.1979 -1.7735,-0.414 -2.6641,-0.6484 -0.8906,-0.2344 -1.7422,-0.5104 -2.5547,-0.8281 -0.8125,-0.3177 -1.5781,-0.6953 -2.2968,-1.1328 -0.7188,-0.4375 -1.3412,-0.9584 -1.8672,-1.5625 -0.5261,-0.6042 -0.9375,-1.3073 -1.2344,-2.1094 -0.2969,-0.8021 -0.4453,-1.7292 -0.4453,-2.7812 0,-1.4896 0.3021,-2.7709 0.9062,-3.8438 0.6042,-1.0729 1.4453,-1.9531 2.5235,-2.6406 1.0781,-0.6875 2.3515,-1.1901 3.8203,-1.5078 1.4687,-0.3177 3.0573,-0.4766 4.7656,-0.4766 1.9583,0 3.6328,0.1536 5.0234,0.4609 1.3907,0.3073 2.5651,0.7683 3.5235,1.3829 0.9583,0.6145 1.7265,1.375 2.3047,2.2812 0.5781,0.9062 1.039,1.9583 1.3828,3.1562 l -4.2188,0.75 c -0.2083,-0.7708 -0.5104,-1.4557 -0.9062,-2.0546 -0.3959,-0.599 -0.9167,-1.099 -1.5625,-1.5 -0.6459,-0.4011 -1.4297,-0.7084 -2.3516,-0.9219 -0.9219,-0.2136 -2.0026,-0.3203 -3.2422,-0.3203 -1.4687,0 -2.7005,0.1328 -3.6953,0.3984 -0.9948,0.2656 -1.7969,0.6224 -2.4062,1.0703 -0.6094,0.4479 -1.0443,0.974 -1.3047,1.5781 -0.2604,0.6042 -0.3906,1.2605 -0.3906,1.9688 0,0.9375 0.2369,1.7109 0.7109,2.3203 0.4739,0.6094 1.1146,1.1172 1.9219,1.5235 0.8073,0.4062 1.7422,0.7421 2.8046,1.0078 1.0626,0.2656 2.1928,0.5338 3.3907,0.8046 0.9687,0.2292 1.9375,0.4584 2.9062,0.6876 0.9688,0.2291 1.8933,0.5052 2.7735,0.8281 0.8802,0.3229 1.7057,0.7005 2.4765,1.1328 0.7709,0.4323 1.4427,0.9635 2.0157,1.5937 0.5729,0.6302 1.0208,1.3724 1.3437,2.2266 0.3229,0.8542 0.4844,1.85938 0.4844,3.01562 M 122.578,-28.6094 c -1.802,0 -3.396,0.2995 -4.781,0.8985 -1.386,0.5989 -2.547,1.4505 -3.485,2.5547 -0.937,1.1041 -1.645,2.4348 -2.124,3.9921 -0.48,1.5573 -0.719,3.2891 -0.719,5.1953 0,1.8959 0.26,3.6355 0.781,5.2188 0.521,1.58333 1.263,2.94271 2.227,4.07812 0.963,1.13542 2.145,2.01823 3.546,2.64844 1.401,0.63021 2.977,0.94532 4.727,0.94532 1.229,0 2.349,-0.16146 3.359,-0.48438 1.011,-0.32292 1.925,-0.77604 2.743,-1.35938 0.817,-0.58333 1.546,-1.27604 2.187,-2.07812 0.641,-0.80208 1.211,-1.6875 1.711,-2.65625 l 3.5,1.75 c -0.573,1.1875 -1.279,2.28906 -2.117,3.30469 -0.839,1.01562 -1.823,1.89844 -2.953,2.64844 -1.131,0.75 -2.409,1.338537 -3.836,1.76562 -1.427,0.427083 -3.026,0.640625 -4.797,0.640625 -2.563,0 -4.805,-0.4088542 -6.727,-1.226563 -1.922,-0.817712 -3.531,-1.955732 -4.828,-3.414062 -1.297,-1.45833 -2.265,-3.19271 -2.906,-5.20312 -0.641,-2.01038 -0.961,-4.20318 -0.961,-6.57818 0,-2.4687 0.339,-4.7005 1.016,-6.6953 0.677,-1.9948 1.671,-3.6901 2.984,-5.0859 1.313,-1.3958 2.927,-2.474 4.844,-3.2344 1.916,-0.7604 4.104,-1.1406 6.562,-1.1406 3.365,0 6.177,0.6589 8.438,1.9766 2.26,1.3177 3.922,3.2734 4.984,5.8672 l -4.062,1.3437 c -0.302,-0.75 -0.706,-1.4635 -1.211,-2.1406 -0.506,-0.6771 -1.141,-1.2787 -1.907,-1.8047 -0.765,-0.5261 -1.661,-0.9453 -2.687,-1.2578 -1.026,-0.3125 -2.195,-0.4688 -3.508,-0.4688 M 141.781,0 l 0,-31.6406 24,0 0,3.5 -19.719,0 0,10.1562 18.376,0 0,3.4532 -18.376,0 0,11.0312 20.641,0 0,3.5 -24.922,0 m 57.907,-16.1562 c 0,2.6354 -0.396,4.9609 -1.188,6.97651 -0.792,2.01563 -1.878,3.70052 -3.258,5.05469 -1.38,1.35417 -3.008,2.38021 -4.883,3.07812 C 188.484,-0.348958 186.458,0 184.281,0 l -11.828,0 0,-31.6406 10.453,0 c 2.448,0 4.701,0.3021 6.758,0.9062 2.057,0.6042 3.828,1.5391 5.313,2.8047 1.484,1.2656 2.64,2.8724 3.468,4.8203 0.828,1.9479 1.243,4.2656 1.243,6.9532 m -4.313,0 c 0,-2.1355 -0.307,-3.9636 -0.922,-5.4844 -0.614,-1.5209 -1.474,-2.7683 -2.578,-3.7422 -1.104,-0.974 -2.43,-1.6901 -3.977,-2.1484 -1.546,-0.4584 -3.237,-0.6876 -5.07,-0.6876 l -6.094,0 0,24.7813 7.047,0 c 1.667,0 3.209,-0.26823 4.625,-0.80469 1.417,-0.53646 2.641,-1.33854 3.672,-2.40625 1.031,-1.06771 1.839,-2.39323 2.422,-3.97656 0.583,-1.5833 0.875,-3.4271 0.875,-5.5312 M 228.031,0 l -8.219,-13.1406 -9.859,0 0,13.1406 -4.281,0 0,-31.6406 14.89,0 c 1.792,0 3.381,0.2057 4.766,0.6172 1.386,0.4114 2.55,1.0052 3.492,1.7812 0.943,0.7761 1.662,1.7266 2.157,2.8516 0.494,1.125 0.742,2.3906 0.742,3.7968 0,1 -0.146,1.987 -0.438,2.961 -0.291,0.9739 -0.752,1.8646 -1.383,2.6719 -0.63,0.8073 -1.432,1.5026 -2.406,2.0859 -0.974,0.5833 -2.138,0.9948 -3.492,1.2344 L 232.984,0 228.031,0 m -0.625,-22.5469 c 0,-0.9583 -0.164,-1.789 -0.492,-2.4922 -0.328,-0.7031 -0.807,-1.2916 -1.437,-1.7656 -0.631,-0.4739 -1.394,-0.8281 -2.289,-1.0625 -0.896,-0.2344 -1.917,-0.3516 -3.063,-0.3516 l -10.172,0 0,11.6876 10.359,0 c 1.23,0 2.292,-0.1537 3.188,-0.461 0.896,-0.3073 1.633,-0.7292 2.211,-1.2656 0.578,-0.5365 1.005,-1.1719 1.281,-1.9063 0.276,-0.7343 0.414,-1.5286 0.414,-2.3828 m 41.282,6.5781 c 0,2.4688 -0.355,4.7136 -1.063,6.73442 -0.708,2.02084 -1.737,3.75 -3.086,5.1875 -1.349,1.4375 -2.997,2.54688 -4.945,3.32813 -1.948,0.78125 -4.156,1.171875 -6.625,1.171875 -2.604,0 -4.888,-0.4088542 -6.852,-1.226563 -1.963,-0.817712 -3.596,-1.955732 -4.898,-3.414062 -1.302,-1.45833 -2.284,-3.19271 -2.946,-5.20312 -0.661,-2.01038 -0.992,-4.20318 -0.992,-6.57818 0,-2.4687 0.347,-4.7005 1.039,-6.6953 0.693,-1.9948 1.706,-3.6901 3.039,-5.0859 1.334,-1.3958 2.977,-2.474 4.93,-3.2344 1.953,-0.7604 4.195,-1.1406 6.727,-1.1406 2.51,0 4.742,0.3828 6.695,1.1484 1.953,0.7657 3.594,1.8516 4.922,3.2578 1.328,1.4063 2.336,3.1068 3.023,5.1016 0.688,1.9948 1.032,4.211 1.032,6.6484 m -4.376,0 c 0,-1.9062 -0.244,-3.638 -0.734,-5.1953 -0.489,-1.5573 -1.208,-2.888 -2.156,-3.9921 -0.948,-1.1042 -2.125,-1.9558 -3.531,-2.5547 -1.407,-0.599 -3.032,-0.8985 -4.875,-0.8985 -1.886,0 -3.542,0.2995 -4.969,0.8985 -1.427,0.5989 -2.615,1.4505 -3.563,2.5547 -0.948,1.1041 -1.658,2.4348 -2.132,3.9921 -0.474,1.5573 -0.711,3.2891 -0.711,5.1953 0,1.8959 0.244,3.6355 0.734,5.2188 0.49,1.58333 1.208,2.94792 2.156,4.09375 0.948,1.14583 2.13,2.03646 3.547,2.67187 1.417,0.63542 3.047,0.95313 4.891,0.95313 1.979,0 3.682,-0.32292 5.109,-0.96875 1.427,-0.64583 2.602,-1.54167 3.524,-2.6875 0.921,-1.14583 1.604,-2.51042 2.046,-4.0937 0.443,-1.5834 0.664,-3.3126 0.664,-5.1876 m 35.141,7.23442 c 0,1.33334 -0.26,2.5599 -0.781,3.67969 -0.521,1.11979 -1.32,2.08854 -2.399,2.90625 -1.078,0.81771 -2.434,1.455732 -4.07,1.914065 -1.635,0.458333 -3.578,0.6875 -5.828,0.6875 -3.937,0 -7.008,-0.690104 -9.211,-2.070315 -2.203,-1.38021 -3.602,-3.37239 -4.195,-5.97656 l 4.156,-0.82813 c 0.208,0.82292 0.529,1.57032 0.961,2.24219 0.432,0.67188 1.018,1.25261 1.758,1.74219 0.739,0.48958 1.656,0.86979 2.75,1.14062 1.094,0.27084 2.406,0.40626 3.937,0.40626 1.271,0 2.438,-0.10938 3.5,-0.32813 1.063,-0.21875 1.977,-0.55208 2.742,-1 0.766,-0.44792 1.362,-1.02865 1.789,-1.74219 0.428,-0.71354 0.641,-1.5651 0.641,-2.55468 0,-1.03126 -0.237,-1.86978 -0.711,-2.51558 -0.474,-0.6459 -1.138,-1.1771 -1.992,-1.5938 -0.854,-0.4167 -1.872,-0.7682 -3.055,-1.0547 -1.182,-0.2864 -2.492,-0.5911 -3.929,-0.9141 -0.886,-0.1979 -1.774,-0.414 -2.664,-0.6484 -0.891,-0.2344 -1.743,-0.5104 -2.555,-0.8281 -0.813,-0.3177 -1.578,-0.6953 -2.297,-1.1328 -0.719,-0.4375 -1.341,-0.9584 -1.867,-1.5625 -0.526,-0.6042 -0.938,-1.3073 -1.235,-2.1094 -0.296,-0.8021 -0.445,-1.7292 -0.445,-2.7812 0,-1.4896 0.302,-2.7709 0.906,-3.8438 0.605,-1.0729 1.446,-1.9531 2.524,-2.6406 1.078,-0.6875 2.351,-1.1901 3.82,-1.5078 1.469,-0.3177 3.057,-0.4766 4.766,-0.4766 1.958,0 3.633,0.1536 5.023,0.4609 1.391,0.3073 2.565,0.7683 3.524,1.3829 0.958,0.6145 1.726,1.375 2.304,2.2812 0.578,0.9062 1.039,1.9583 1.383,3.1562 l -4.219,0.75 c -0.208,-0.7708 -0.51,-1.4557 -0.906,-2.0546 -0.396,-0.599 -0.917,-1.099 -1.562,-1.5 -0.646,-0.4011 -1.43,-0.7084 -2.352,-0.9219 -0.922,-0.2136 -2.003,-0.3203 -3.242,-0.3203 -1.469,0 -2.701,0.1328 -3.695,0.3984 -0.995,0.2656 -1.797,0.6224 -2.407,1.0703 -0.609,0.4479 -1.044,0.974 -1.304,1.5781 -0.261,0.6042 -0.391,1.2605 -0.391,1.9688 0,0.9375 0.237,1.7109 0.711,2.3203 0.474,0.6094 1.115,1.1172 1.922,1.5235 0.807,0.4062 1.742,0.7421 2.804,1.0078 1.063,0.2656 2.193,0.5338 3.391,0.8046 0.969,0.2292 1.938,0.4584 2.906,0.6876 0.969,0.2291 1.894,0.5052 2.774,0.8281 0.88,0.3229 1.706,0.7005 2.476,1.1328 0.771,0.4323 1.443,0.9635 2.016,1.5937 0.573,0.6302 1.021,1.3724 1.344,2.2266 0.323,0.8542 0.484,1.85938 0.484,3.01562"
         id="path5295"
         inkscape:connector-curvature="0"
         style="fill-rule:nonzero" />
    </g>
    <g
       font-style="normal"
       font-weight="400"
       transform="matrix(0.31992,0,0,0.31992,1434.35,1306.16)"
       font-size="45.8333"
       id="g5297"
       style="font-style:normal;font-weight:400;font-size:45.83330154px;font-family:Ubuntu;fill:#85e2d4;fill-opacity:0.69411801;stroke:#ff0000;stroke-width:8.85826969;stroke-linecap:square;stroke-linejoin:bevel;stroke-opacity:0.69411801" />
    <g
       font-style="normal"
       font-weight="400"
       transform="matrix(0.999751,0,0,0.999751,212.545,165.313)"
       font-size="45.8333"
       id="g5299"
       style="font-style:normal;font-weight:400;font-size:45.83330154px;font-family:Ubuntu;fill:#85e2d4;fill-opacity:0.69411801;stroke:#ff0000;stroke-width:8.85826969;stroke-linecap:square;stroke-linejoin:bevel;stroke-opacity:0.69411801" />
    <g
       font-style="normal"
       font-weight="400"
       transform="matrix(11.8081,0,0,11.8081,212.545,165.313)"
       font-size="45.8333"
       id="g5301"
       style="font-style:normal;font-weight:400;font-size:45.83330154px;font-family:Ubuntu;fill:none;stroke:#000000;stroke-width:1;stroke-linecap:square;stroke-linejoin:bevel;stroke-opacity:1" />
    <g
       font-style="normal"
       font-weight="400"
       transform="matrix(11.8081,0,0,11.8081,212.545,165.313)"
       font-size="45.8333"
       id="g5303"
       style="font-style:normal;font-weight:400;font-size:45.83330154px;font-family:Ubuntu;fill:none;stroke:#000000;stroke-width:1;stroke-linecap:square;stroke-linejoin:bevel;stroke-opacity:1" />
    <g
       font-style="normal"
       font-weight="400"
       transform="matrix(11.8081,0,0,11.8081,212.545,165.313)"
       font-size="45.8333"
       id="g5305"
       style="font-style:normal;font-weight:400;font-size:45.83330154px;font-family:Ubuntu;fill:none;stroke:#000000;stroke-width:1;stroke-linecap:square;stroke-linejoin:bevel;stroke-opacity:1" />
    <g
       font-style="normal"
       font-weight="400"
       font-size="45.8333"
       id="g5307"
       style="font-style:normal;font-weight:400;font-size:45.83330154px;font-family:Ubuntu;fill:none;stroke:#000000;stroke-width:1;stroke-linecap:square;stroke-linejoin:bevel;stroke-opacity:1" />
    <g
       font-style="normal"
       font-weight="400"
       transform="matrix(11.8081,0,0,11.8081,212.545,165.313)"
       font-size="45.8333"
       id="g5309"
       style="font-style:normal;font-weight:400;font-size:45.83330154px;font-family:Ubuntu;fill:none;stroke:#000000;stroke-width:1;stroke-linecap:square;stroke-linejoin:bevel;stroke-opacity:1" />
    <g
       font-style="normal"
       font-weight="400"
       transform="matrix(11.8081,0,0,11.8081,212.545,165.313)"
       font-size="45.8333"
       id="g5311"
       style="font-style:normal;font-weight:400;font-size:45.83330154px;font-family:Ubuntu;fill:none;stroke:#000000;stroke-width:1;stroke-linecap:square;stroke-linejoin:bevel;stroke-opacity:1" />
    <g
       font-style="normal"
       font-weight="400"
       transform="scale(11.8081,11.8081)"
       font-size="45.8333"
       id="g5313"
       style="font-style:normal;font-weight:400;font-size:45.83330154px;font-family:Ubuntu;fill:none;stroke:#000000;stroke-width:1;stroke-linecap:square;stroke-linejoin:bevel;stroke-opacity:1" />
    <g
       font-style="normal"
       font-weight="400"
       transform="scale(11.8081,11.8081)"
       font-size="45.8333"
       id="g5315"
       style="font-style:normal;font-weight:400;font-size:45.83330154px;font-family:Ubuntu;fill:none;stroke:#000000;stroke-width:1;stroke-linecap:square;stroke-linejoin:bevel;stroke-opacity:1" />
    <g
       font-style="normal"
       font-weight="400"
       font-size="45.8333"
       id="g5317"
       style="font-style:normal;font-weight:400;font-size:45.83330154px;font-family:Ubuntu;fill:none;stroke:#000000;stroke-width:1;stroke-linecap:square;stroke-linejoin:bevel;stroke-opacity:1" />
  </g>
  <defs
     id="defs5319" />
  <defs
     id="defs5350" />
  <defs
     id="defs5381" />
  <g
     inkscape:label="Layer 8"
     inkscape:groupmode="layer"
     id="Layer 8"
     style="display:inline;fill:none;fill-rule:evenodd;stroke:#000000;stroke-width:1;stroke-linecap:square;stroke-linejoin:bevel"
     transform="translate(-170.00788,29.598435)">
    <g
       font-style="normal"
       font-weight="400"
       font-size="45.8333"
       id="g5384"
       style="font-style:normal;font-weight:400;font-size:45.83330154px;font-family:Ubuntu;fill:none;stroke:#000000;stroke-width:1;stroke-linecap:square;stroke-linejoin:bevel;stroke-opacity:1" />
    <g
       font-style="normal"
       font-weight="400"
       transform="matrix(11.8081,0,0,11.8081,345.718,1784.24)"
       font-size="45.8333"
       id="g5386"
       style="font-style:normal;font-weight:400;font-size:45.83330154px;font-family:Ubuntu;fill:none;stroke:#000000;stroke-width:1;stroke-linecap:square;stroke-linejoin:bevel;stroke-opacity:1" />
    <g
       font-style="normal"
       font-weight="400"
       stroke-miterlimit="2"
       transform="matrix(11.8081,0,0,11.8081,345.718,1784.24)"
       font-size="45.8333"
       id="g5388"
       style="font-style:normal;font-weight:400;font-size:45.83330154px;font-family:Ubuntu;fill:#000000;fill-opacity:1;stroke:#000000;stroke-width:1;stroke-linecap:square;stroke-linejoin:miter;stroke-miterlimit:2;stroke-opacity:1">
      <path
         vector-effect="none"
         d="m 3.18438,7.9 5.08288,0 0,3 -5.08288,0 0,-3"
         id="path5390"
         inkscape:connector-curvature="0"
         style="fill-rule:evenodd" />
    </g>
    <g
       font-style="normal"
       font-weight="400"
       stroke-miterlimit="2"
       transform="matrix(11.8081,0,0,11.8081,345.718,1784.24)"
       font-size="45.8333"
       id="g5392"
       style="font-style:normal;font-weight:400;font-size:45.83330154px;font-family:Ubuntu;fill:#ffffff;fill-opacity:1;stroke:#000000;stroke-width:1;stroke-linecap:square;stroke-linejoin:miter;stroke-miterlimit:2;stroke-opacity:1">
      <path
         vector-effect="none"
         d="m 8.26726,7.9 5.08284,0 0,3 -5.08284,0 0,-3"
         id="path5394"
         inkscape:connector-curvature="0"
         style="fill-rule:evenodd" />
    </g>
    <g
       font-style="normal"
       font-weight="400"
       stroke-miterlimit="2"
       transform="matrix(11.8081,0,0,11.8081,345.718,1784.24)"
       font-size="45.8333"
       id="g5396"
       style="font-style:normal;font-weight:400;font-size:45.83330154px;font-family:Ubuntu;fill:#000000;fill-opacity:1;stroke:#000000;stroke-width:1;stroke-linecap:square;stroke-linejoin:miter;stroke-miterlimit:2;stroke-opacity:1">
      <path
         vector-effect="none"
         d="m 13.3501,7.9 10.1658,0 0,3 -10.1658,0 0,-3"
         id="path5398"
         inkscape:connector-curvature="0"
         style="fill-rule:evenodd" />
    </g>
    <g
       font-style="normal"
       font-weight="400"
       stroke-miterlimit="2"
       transform="matrix(11.8081,0,0,11.8081,345.718,1784.24)"
       font-size="45.8333"
       id="g5400"
       style="font-style:normal;font-weight:400;font-size:45.83330154px;font-family:Ubuntu;fill:#ffffff;fill-opacity:1;stroke:#000000;stroke-width:1;stroke-linecap:square;stroke-linejoin:miter;stroke-miterlimit:2;stroke-opacity:1">
      <path
         vector-effect="none"
         d="m 23.5159,7.9 10.1658,0 0,3 -10.1658,0 0,-3"
         id="path5402"
         inkscape:connector-curvature="0"
         style="fill-rule:evenodd" />
    </g>
    <g
       font-style="normal"
       font-weight="400"
       stroke-miterlimit="2"
       transform="matrix(11.8081,0,0,11.8081,345.718,1784.24)"
       font-size="45.8333"
       id="g5404"
       style="font-style:normal;font-weight:400;font-size:45.83330154px;font-family:Ubuntu;fill:#000000;fill-opacity:1;stroke:#000000;stroke-width:1;stroke-linecap:square;stroke-linejoin:miter;stroke-miterlimit:2;stroke-opacity:1">
      <path
         vector-effect="none"
         d="m 33.6817,7.9 10.1657,0 0,3 -10.1657,0 0,-3"
         id="path5406"
         inkscape:connector-curvature="0"
         style="fill-rule:evenodd" />
    </g>
    <g
       font-style="normal"
       font-weight="400"
       stroke-miterlimit="2"
       transform="matrix(11.8081,0,0,11.8081,345.718,1784.24)"
       font-size="45.8333"
       id="g5408"
       style="font-style:normal;font-weight:400;font-size:45.83330154px;font-family:Ubuntu;fill:#ffffff;fill-opacity:1;stroke:#000000;stroke-width:1;stroke-linecap:square;stroke-linejoin:miter;stroke-miterlimit:2;stroke-opacity:1">
      <path
         vector-effect="none"
         d="m 43.8474,7.9 10.1658,0 0,3 -10.1658,0 0,-3"
         id="path5410"
         inkscape:connector-curvature="0"
         style="fill-rule:evenodd" />
    </g>
    <g
       font-style="normal"
       font-weight="400"
       transform="matrix(11.8081,0,0,11.8081,345.718,1784.24)"
       font-size="45.8333"
       id="g5412"
       style="font-style:normal;font-weight:400;font-size:45.83330154px;font-family:Ubuntu;fill:none;stroke:#000000;stroke-width:1;stroke-linecap:square;stroke-linejoin:bevel;stroke-opacity:1" />
    <g
       font-style="normal"
       font-weight="400"
       transform="matrix(11.8081,0,0,11.8081,345.718,1784.24)"
       font-size="50"
       id="g5414"
       style="font-style:normal;font-weight:400;font-size:50px;font-family:Ubuntu;fill:none;stroke:#000000;stroke-width:1;stroke-linecap:square;stroke-linejoin:bevel;stroke-opacity:1" />
    <g
       font-style="normal"
       font-weight="400"
       transform="matrix(1.18081,0,0,1.18081,345.718,1784.24)"
       font-size="42"
       id="g5416"
       style="font-style:normal;font-weight:400;font-size:42px;font-family:Ubuntu;fill:none;stroke:#000000;stroke-width:1;stroke-linecap:square;stroke-linejoin:bevel;stroke-opacity:1">
      <text
         x="20"
         y="49"
         font-style="normal"
         font-weight="400"
         xml:space="preserve"
         font-size="42"
         id="text5418"
         style="font-style:normal;font-weight:400;font-size:42px;font-family:Ubuntu;fill:#000000;fill-opacity:1;stroke:none">1</text>
    </g>
    <g
       font-style="normal"
       font-weight="400"
       transform="matrix(11.8081,0,0,11.8081,345.718,1784.24)"
       font-size="50"
       id="g5420"
       style="font-style:normal;font-weight:400;font-size:50px;font-family:Ubuntu;fill:none;stroke:#000000;stroke-width:1;stroke-linecap:square;stroke-linejoin:bevel;stroke-opacity:1" />
    <g
       font-style="normal"
       font-weight="400"
       transform="matrix(1.18081,0,0,1.18081,345.718,1784.24)"
       font-size="42"
       id="g5422"
       style="font-style:normal;font-weight:400;font-size:42px;font-family:Ubuntu;fill:none;stroke:#000000;stroke-width:1;stroke-linecap:square;stroke-linejoin:bevel;stroke-opacity:1">
      <text
         x="121.656"
         y="49"
         font-style="normal"
         font-weight="400"
         xml:space="preserve"
         font-size="42"
         id="text5424"
         style="font-style:normal;font-weight:400;font-size:42px;font-family:Ubuntu;fill:#000000;fill-opacity:1;stroke:none">0</text>
    </g>
    <g
       font-style="normal"
       font-weight="400"
       transform="matrix(11.8081,0,0,11.8081,345.718,1784.24)"
       font-size="50"
       id="g5426"
       style="font-style:normal;font-weight:400;font-size:50px;font-family:Ubuntu;fill:none;stroke:#000000;stroke-width:1;stroke-linecap:square;stroke-linejoin:bevel;stroke-opacity:1" />
    <g
       font-style="normal"
       font-weight="400"
       transform="matrix(1.18081,0,0,1.18081,345.718,1784.24)"
       font-size="42"
       id="g5428"
       style="font-style:normal;font-weight:400;font-size:42px;font-family:Ubuntu;fill:none;stroke:#000000;stroke-width:1;stroke-linecap:square;stroke-linejoin:bevel;stroke-opacity:1">
      <text
         x="223.312"
         y="49"
         font-style="normal"
         font-weight="400"
         xml:space="preserve"
         font-size="42"
         id="text5430"
         style="font-style:normal;font-weight:400;font-size:42px;font-family:Ubuntu;fill:#000000;fill-opacity:1;stroke:none">1</text>
    </g>
    <g
       font-style="normal"
       font-weight="400"
       transform="matrix(11.8081,0,0,11.8081,345.718,1784.24)"
       font-size="50"
       id="g5432"
       style="font-style:normal;font-weight:400;font-size:50px;font-family:Ubuntu;fill:none;stroke:#000000;stroke-width:1;stroke-linecap:square;stroke-linejoin:bevel;stroke-opacity:1" />
    <g
       font-style="normal"
       font-weight="400"
       transform="matrix(1.18081,0,0,1.18081,345.718,1784.24)"
       font-size="42"
       id="g5434"
       style="font-style:normal;font-weight:400;font-size:42px;font-family:Ubuntu;fill:none;stroke:#000000;stroke-width:1;stroke-linecap:square;stroke-linejoin:bevel;stroke-opacity:1">
      <text
         x="324.96899"
         y="49"
         font-style="normal"
         font-weight="400"
         xml:space="preserve"
         font-size="42"
         id="text5436"
         style="font-style:normal;font-weight:400;font-size:42px;font-family:Ubuntu;fill:#000000;fill-opacity:1;stroke:none">2</text>
    </g>
    <g
       font-style="normal"
       font-weight="400"
       transform="matrix(11.8081,0,0,11.8081,345.718,1784.24)"
       font-size="50"
       id="g5438"
       style="font-style:normal;font-weight:400;font-size:50px;font-family:Ubuntu;fill:none;stroke:#000000;stroke-width:1;stroke-linecap:square;stroke-linejoin:bevel;stroke-opacity:1" />
    <g
       font-style="normal"
       font-weight="400"
       transform="matrix(1.18081,0,0,1.18081,345.718,1784.24)"
       font-size="42"
       id="g5440"
       style="font-style:normal;font-weight:400;font-size:42px;font-family:Ubuntu;fill:none;stroke:#000000;stroke-width:1;stroke-linecap:square;stroke-linejoin:bevel;stroke-opacity:1">
      <text
         x="426.625"
         y="49"
         font-style="normal"
         font-weight="400"
         xml:space="preserve"
         font-size="42"
         id="text5442"
         style="font-style:normal;font-weight:400;font-size:42px;font-family:Ubuntu;fill:#000000;fill-opacity:1;stroke:none">3</text>
    </g>
    <g
       font-style="normal"
       font-weight="400"
       transform="matrix(11.8081,0,0,11.8081,345.718,1784.24)"
       font-size="50"
       id="g5444"
       style="font-style:normal;font-weight:400;font-size:50px;font-family:Ubuntu;fill:none;stroke:#000000;stroke-width:1;stroke-linecap:square;stroke-linejoin:bevel;stroke-opacity:1" />
    <g
       font-style="normal"
       font-weight="400"
       transform="matrix(1.18081,0,0,1.18081,345.718,1784.24)"
       font-size="42"
       id="g5446"
       style="font-style:normal;font-weight:400;font-size:42px;font-family:Ubuntu;fill:none;stroke:#000000;stroke-width:1;stroke-linecap:square;stroke-linejoin:bevel;stroke-opacity:1">
      <text
         x="528.28101"
         y="49"
         font-style="normal"
         font-weight="400"
         xml:space="preserve"
         font-size="42"
         id="text5448"
         style="font-style:normal;font-weight:400;font-size:42px;font-family:Ubuntu;fill:#000000;fill-opacity:1;stroke:none">4 km</text>
    </g>
    <g
       font-style="normal"
       font-weight="400"
       transform="matrix(11.8081,0,0,11.8081,345.718,1784.24)"
       font-size="50"
       id="g5450"
       style="font-style:normal;font-weight:400;font-size:50px;font-family:Ubuntu;fill:none;stroke:#000000;stroke-width:1;stroke-linecap:square;stroke-linejoin:bevel;stroke-opacity:1" />
    <g
       font-style="normal"
       font-weight="400"
       transform="matrix(11.8081,0,0,11.8081,345.718,1784.24)"
       font-size="45.8333"
       id="g5452"
       style="font-style:normal;font-weight:400;font-size:45.83330154px;font-family:Ubuntu;fill:none;stroke:#000000;stroke-width:1;stroke-linecap:square;stroke-linejoin:bevel;stroke-opacity:1" />
    <g
       font-style="normal"
       font-weight="400"
       transform="matrix(11.8081,0,0,11.8081,345.718,1784.24)"
       font-size="45.8333"
       id="g5454"
       style="font-style:normal;font-weight:400;font-size:45.83330154px;font-family:Ubuntu;fill:none;stroke:#000000;stroke-width:1;stroke-linecap:square;stroke-linejoin:bevel;stroke-opacity:1" />
    <g
       font-style="normal"
       font-weight="400"
       transform="matrix(11.8081,0,0,11.8081,2706.94,285.478)"
       font-size="45.8333"
       id="g5456"
       style="font-style:normal;font-weight:400;font-size:45.83330154px;font-family:Ubuntu;fill:none;stroke:#000000;stroke-width:1;stroke-linecap:square;stroke-linejoin:bevel;stroke-opacity:1" />
    <g
       font-style="normal"
       font-weight="400"
       transform="matrix(11.8081,0,0,11.8081,2706.94,285.478)"
       font-size="45.8333"
       id="g5458"
       style="font-style:normal;font-weight:400;font-size:45.83330154px;font-family:Ubuntu;fill:none;stroke:#000000;stroke-width:1;stroke-linecap:square;stroke-linejoin:bevel;stroke-opacity:1" />
    <g
       font-style="normal"
       font-weight="400"
       transform="matrix(11.8081,0,0,11.8081,2706.94,285.478)"
       font-size="45.8333"
       id="g5464"
       style="font-style:normal;font-weight:400;font-size:45.83330154px;font-family:Ubuntu;fill:none;stroke:#000000;stroke-width:1;stroke-linecap:square;stroke-linejoin:bevel;stroke-opacity:1" />
    <g
       font-style="normal"
       font-weight="400"
       transform="matrix(11.8081,0,0,11.8081,2706.94,285.478)"
       font-size="45.8333"
       id="g5466"
       style="font-style:normal;font-weight:400;font-size:45.83330154px;font-family:Ubuntu;fill:none;stroke:#000000;stroke-width:1;stroke-linecap:square;stroke-linejoin:bevel;stroke-opacity:1" />
    <g
       font-style="normal"
       font-weight="400"
       transform="matrix(11.8081,0,0,11.8081,2706.94,285.478)"
       font-size="45.8333"
       id="g5468"
       style="font-style:normal;font-weight:400;font-size:45.83330154px;font-family:Ubuntu;fill:none;stroke:#000000;stroke-width:1;stroke-linecap:square;stroke-linejoin:bevel;stroke-opacity:1" />
    <g
       font-style="normal"
       font-weight="400"
       transform="matrix(11.8081,0,0,11.8081,2816.06,285.478)"
       font-size="45.8333"
       id="g5470"
       style="font-style:normal;font-weight:400;font-size:45.83330154px;font-family:Ubuntu;fill:none;stroke:#000000;stroke-width:1;stroke-linecap:square;stroke-linejoin:bevel;stroke-opacity:1" />
    <g
       font-style="italic"
       font-weight="700"
       transform="matrix(11.8081,0,0,11.8081,2816.06,285.478)"
       font-size="91.6667"
       id="g5472"
       style="font-style:italic;font-weight:700;font-size:91.66670227px;font-family:'Liberation Serif';fill:none;stroke:#000000;stroke-width:1;stroke-linecap:square;stroke-linejoin:bevel;stroke-opacity:1" />
    <g
       id="g6048"
       transform="translate(-364.14593,78.431422)">
      <g
         style="font-style:normal;font-weight:400;font-size:45.83330154px;font-family:Ubuntu;fill:#000000;fill-opacity:1;stroke:none"
         id="g5460"
         font-size="45.8333"
         transform="matrix(0.298838,0,0,0.298838,2706.94,285.478)"
         font-weight="400"
         font-style="normal">
        <path
           style="fill-rule:evenodd"
           inkscape:connector-curvature="0"
           id="path5462"
           d="M 389.354,178.217 292.161,18.381 290,561.619 l 36.711,-1.075 -4.309,-425.526 66.952,43.199"
           vector-effect="non-scaling-stroke" />
      </g>
      <g
         style="font-style:italic;font-weight:700;font-size:78px;font-family:'Liberation Serif';fill:none;stroke:#000000;stroke-width:1;stroke-linecap:square;stroke-linejoin:bevel;stroke-opacity:1"
         id="g5474"
         font-size="78"
         transform="matrix(1.18081,0,0,1.18081,2816.06,285.478)"
         font-weight="700"
         font-style="italic">
        <text
           style="font-style:italic;font-weight:700;font-size:78px;font-family:'Liberation Serif';fill:#000000;fill-opacity:1;stroke:none"
           id="text5476"
           font-size="78"
           xml:space="preserve"
           font-weight="700"
           font-style="italic"
           y="80"
           x="10">N</text>
      </g>
    </g>
    <g
       font-style="italic"
       font-weight="700"
       transform="matrix(11.8081,0,0,11.8081,2816.06,285.478)"
       font-size="91.6667"
       id="g5478"
       style="font-style:italic;font-weight:700;font-size:91.66670227px;font-family:'Liberation Serif';fill:none;stroke:#000000;stroke-width:1;stroke-linecap:square;stroke-linejoin:bevel;stroke-opacity:1" />
    <g
       font-style="normal"
       font-weight="400"
       transform="matrix(11.8081,0,0,11.8081,2816.06,285.478)"
       font-size="45.8333"
       id="g5480"
       style="font-style:normal;font-weight:400;font-size:45.83330154px;font-family:Ubuntu;fill:none;stroke:#000000;stroke-width:1;stroke-linecap:square;stroke-linejoin:bevel;stroke-opacity:1" />
    <g
       font-style="normal"
       font-weight="400"
       transform="matrix(11.8081,0,0,11.8081,2816.06,285.478)"
       font-size="45.8333"
       id="g5482"
       style="font-style:normal;font-weight:400;font-size:45.83330154px;font-family:Ubuntu;fill:none;stroke:#000000;stroke-width:1;stroke-linecap:square;stroke-linejoin:bevel;stroke-opacity:1" />
    <g
       font-style="normal"
       font-weight="400"
       transform="matrix(11.8081,0,0,11.8081,785.065,649.972)"
       font-size="45.8333"
       id="g5484"
       style="font-style:normal;font-weight:400;font-size:45.83330154px;font-family:Ubuntu;fill:none;stroke:#000000;stroke-width:1;stroke-linecap:square;stroke-linejoin:bevel;stroke-opacity:1" />
    <g
       font-style="normal"
       font-weight="400"
       transform="matrix(11.8081,0,0,11.8081,785.065,649.972)"
       font-size="41.6667"
       id="g5486"
       style="font-style:normal;font-weight:400;font-size:41.66669846px;font-family:Ubuntu;fill:none;stroke:#000000;stroke-width:1;stroke-linecap:square;stroke-linejoin:bevel;stroke-opacity:1" />
    <g
       font-style="normal"
       font-weight="400"
       transform="matrix(1.18081,0,0,1.18081,785.065,649.972)"
       font-size="35"
       id="g5488"
       style="font-style:normal;font-weight:400;font-size:35px;font-family:Ubuntu;fill:none;stroke:#000000;stroke-width:1;stroke-linecap:square;stroke-linejoin:bevel;stroke-opacity:1">
      <text
         x="10"
         y="43"
         font-style="normal"
         font-weight="400"
         xml:space="preserve"
         font-size="35"
         id="text5490"
         style="font-style:normal;font-weight:400;font-size:35px;font-family:Ubuntu;fill:#000000;fill-opacity:1;stroke:none">(Priority KBA)</text>
    </g>
    <g
       font-style="normal"
       font-weight="400"
       transform="matrix(11.8081,0,0,11.8081,785.065,649.972)"
       font-size="41.6667"
       id="g5492"
       style="font-style:normal;font-weight:400;font-size:41.66669846px;font-family:Ubuntu;fill:none;stroke:#000000;stroke-width:1;stroke-linecap:square;stroke-linejoin:bevel;stroke-opacity:1" />
    <g
       font-style="normal"
       font-weight="400"
       transform="matrix(11.8081,0,0,11.8081,785.065,649.972)"
       font-size="45.8333"
       id="g5494"
       style="font-style:normal;font-weight:400;font-size:45.83330154px;font-family:Ubuntu;fill:none;stroke:#000000;stroke-width:1;stroke-linecap:square;stroke-linejoin:bevel;stroke-opacity:1" />
    <g
       font-style="normal"
       font-weight="400"
       transform="matrix(11.8081,0,0,11.8081,785.065,649.972)"
       font-size="45.8333"
       id="g5496"
       style="font-style:normal;font-weight:400;font-size:45.83330154px;font-family:Ubuntu;fill:none;stroke:#000000;stroke-width:1;stroke-linecap:square;stroke-linejoin:bevel;stroke-opacity:1" />
    <g
       font-style="normal"
       font-weight="400"
       transform="scale(11.8081,11.8081)"
       font-size="45.8333"
       id="g5498"
       style="font-style:normal;font-weight:400;font-size:45.83330154px;font-family:Ubuntu;fill:none;stroke:#000000;stroke-width:1;stroke-linecap:square;stroke-linejoin:bevel;stroke-opacity:1" />
    <g
       font-style="normal"
       font-weight="400"
       transform="scale(11.8081,11.8081)"
       font-size="45.8333"
       id="g5500"
       style="font-style:normal;font-weight:400;font-size:45.83330154px;font-family:Ubuntu;fill:none;stroke:#000000;stroke-width:1;stroke-linecap:square;stroke-linejoin:bevel;stroke-opacity:1" />
    <g
       font-style="normal"
       font-weight="400"
       font-size="45.8333"
       id="g5502"
       style="font-style:normal;font-weight:400;font-size:45.83330154px;font-family:Ubuntu;fill:none;stroke:#000000;stroke-width:1;stroke-linecap:square;stroke-linejoin:bevel;stroke-opacity:1" />
  </g>
</svg>
